<?xml version="1.0" encoding="utf-8"?>
<!-- Generator: Adobe Illustrator 25.4.1, SVG Export Plug-In . SVG Version: 6.00 Build 0)  -->
<svg version="1.1" xmlns="http://www.w3.org/2000/svg" xmlns:xlink="http://www.w3.org/1999/xlink" x="0px" y="0px"
	 viewBox="0 0 500 500" style="enable-background:new 0 0 500 500;" xml:space="preserve">
<style type="text/css">
	.st0{fill:#FFFFFF;}
	.st1{fill:#FECAD0;}
	.st2{fill:#171C51;}
	.st3{fill:#EE84AA;}
	.st4{fill:#96A4CD;}
	.st5{fill:#7389BB;}
	.st6{fill:#587CF8;}
	.st7{opacity:0.25;fill:#FFFFFF;}
	.st8{fill:none;stroke:#171C51;stroke-width:0.4739;stroke-linecap:round;stroke-linejoin:round;stroke-miterlimit:10;}
	.st9{fill:#0D1235;}
	.st10{fill:none;stroke:#E45E8E;stroke-width:0.4739;stroke-linecap:round;stroke-miterlimit:9;}
	.st11{fill:none;stroke:#171C51;stroke-width:0.7109;stroke-linecap:round;stroke-linejoin:round;stroke-miterlimit:10;}
	.st12{fill:#FBB8C2;}
	.st13{fill:#1F3251;}
	.st14{fill:#2C4183;}
	.st15{fill:#325ECB;}
	.st16{fill:#3456B6;}
	.st17{fill:#FEB160;}
	.st18{clip-path:url(#SVGID_00000088132869504219895200000014978292582899161523_);}
	.st19{fill:#212B6B;}
	.st20{fill:none;stroke:#587CF8;stroke-width:0.7109;stroke-miterlimit:10;}
	.st21{fill:#E6EAFD;}
	.st22{fill:none;stroke:#94A3D7;stroke-width:1.8957;stroke-linecap:round;stroke-linejoin:round;stroke-miterlimit:10;}
	.st23{fill:#DDD9D9;}
	.st24{fill:#DDD9D9;stroke:#587CF8;stroke-width:0.8576;stroke-linecap:round;stroke-linejoin:round;stroke-miterlimit:10;}
	
		.st25{opacity:0.25;fill:#DDD9D9;stroke:#587CF8;stroke-width:0.8576;stroke-linecap:round;stroke-linejoin:round;stroke-miterlimit:10;}
	.st26{fill:#DDD9D9;stroke:#FEB160;stroke-width:0.8576;stroke-linecap:round;stroke-linejoin:round;stroke-miterlimit:10;}
</style>
<g id="BACKGROUND">
	<g>
		<rect y="0" class="st0" width="500" height="500"/>
	</g>
</g>
<g id="OBJECTS">
	<g>
		<path class="st0" d="M42.4,408.1c0,0,0-13.2-6.4-32.2c-6.4-19-39.2-22.8-35.8-50.1c18.4,6.4,32.9,33,36,41.1
			c-10.8-40.9-3.2-69.8-3.2-69.8s14.7,30.6,9.3,70c19.4-47.3,34.6-53.7,34.6-53.7s-4,28.7-14.5,43.7s-18.6,14.8-18.6,14.8
			s0.2,24.7,4.9,36.1H42.4z"/>
		<path class="st0" d="M465.4,408.1c0,0,0-13.2-6.4-32.2c-6.4-19-39.2-22.8-35.8-50.1c18.4,6.4,32.9,33,36,41.1
			c-10.8-40.9-3.2-69.8-3.2-69.8s14.7,30.6,9.3,70c19.4-47.3,34.6-53.7,34.6-53.7s-4,28.7-14.5,43.7c-10.5,15-18.6,14.8-18.6,14.8
			s0.2,24.7,4.9,36.1H465.4z"/>
		<g>
			<g>
				<g>
					<polyline class="st1" points="140.9,380.3 142.9,395.1 138.5,402.5 127.8,398.4 124.5,384 					"/>
					<path class="st2" d="M165.7,405.5l-23.3-13.1l-4.4,6.1h-10.2l-1.1,9.2h38.4C166.3,407.6,166.7,406.1,165.7,405.5z"/>
					<polyline class="st1" points="58.2,380.3 55.2,395.1 59.6,402.5 70.3,398.4 74.6,384 					"/>
					<path class="st1" d="M152.5,235.9l-17.4,22.3c-0.6,0.8-1,1.7-1,2.7l-1.5,19.9l-6.3-41.8l8.8-14.4l-0.9-2.9l-3.3-10.8l17.2-6.3
						l1,3l5.5,15.8C156.1,227.6,155.3,232.3,152.5,235.9z"/>
					<polygon class="st3" points="149.2,207.6 134.3,221.7 130.9,211 148.1,204.6 					"/>
					<polygon class="st4" points="144.1,384.1 123,387.5 106.5,318.1 102.4,300.9 102.3,300.5 75.4,389.2 54.3,383.5 73.9,260.3 
						75.4,251 128.9,250.2 129.5,255.3 					"/>
					<polygon class="st5" points="129.5,255.3 73.9,260.3 74.7,255.3 75.4,251 128.9,250.2 129.4,254.4 					"/>
					<path class="st2" d="M129.4,254.4c-11.6,1.6-46.5,1-54.7,0.9l0.7-4.3l53.5-0.8L129.4,254.4z"/>
					<path class="st6" d="M150.9,203.6l-12.4,7.2l-1.6,0.9l-3.7,2.2v0.1l-0.1,1.6l-0.6,12.7l-0.1,1.6l-0.6,12.7l-0.1,1.6l-0.2,4
						c0,0,2.2,2.4,1.6,4.4c-0.2,0.5-3.8,0.9-9.3,1.1c-0.5,0-1,0-1.6,0.1c-3.8,0.1-8.3,0.3-13,0.3c-0.5,0-1.1,0-1.6,0
						c-4.3,0-8.8,0-13-0.1c-0.5,0-1.1,0-1.6,0c-4.9-0.1-9.5-0.3-13-0.6c-0.6,0-1.1-0.1-1.6-0.1c-3.5-0.3-5.7-0.8-5.6-1.3
						c0.2-2.9,2.1-4.8,2.1-4.8l0-3l0-1.6l0-12.7l0-1.6l0-12.7v-0.8l-1.3-0.7l-8.2-4.7l-1.6-0.9l-10.3-5.8l0.6-1.2l0.7-1.6l5.8-12.7
						l0.7-1.5l2.4-5.3l0.5-1.1c0.3-0.7,0.7-1.4,1.1-2.1c0.8-1.5,1.8-2.8,2.8-4.1c0.4-0.5,0.9-1.1,1.4-1.6c2.5-2.7,5.5-4.9,8.8-6.5
						c0.5-0.3,1.1-0.5,1.6-0.7c2.3-1,4.7-1.6,7.3-2l3.8-0.6l1.9-0.3l1.6-0.2l0.1,0l12.9,1l1.6,0.1l3.9,0.3l3.3,0.4
						c0.2,0,0.4,0.1,0.6,0.1c1.8,0.3,3.5,0.7,5.2,1.3c0.5,0.2,1.1,0.4,1.6,0.6c3.7,1.5,7.1,3.7,9.9,6.5c0.5,0.5,1,1,1.5,1.6
						c0.6,0.6,1.1,1.3,1.6,2c0.6,0.8,1.1,1.6,1.6,2.4c0.5,0.9,1,1.8,1.5,2.8l2.6,5.5l0.7,1.5l5.9,12.7l0.7,1.6L150.9,203.6z"/>
					<g>
						<path class="st7" d="M149.1,199.8h-10.6v-12.7h4.8l-0.7-1.5h-4v-8.3c-0.5-0.8-1-1.6-1.6-2.4v10.7h-13v-12.7h11.4
							c-0.5-0.5-1-1.1-1.5-1.6h-9.9v-6.5c-0.5-0.2-1.1-0.4-1.6-0.6v7.1h-13v-9.2l-1.6-0.1v9.3h-13V161l-1.6,0.2v10.1h-13v-7.2
							c-0.5,0.2-1.1,0.5-1.6,0.7v6.5h-8.8c-0.5,0.5-0.9,1-1.4,1.6h10.2v12.7h-13V177c-0.4,0.7-0.7,1.4-1.1,2.1l-0.5,1.1v5.3h-2.4
							l-0.7,1.5h3.2v12.7h-9l-0.7,1.6h9.7v7.1l1.6,0.9v-8h13V214h-4.8l1.3,0.7v0.8h3.4v12.7H75l0,1.6h3.5v12.7H75l0,1.6h3.6v9.1
							c0.5,0,1,0.1,1.6,0.1V244h13v9.8c0.5,0,1.1,0,1.6,0V244h13v9.9c0.5,0,1.1,0,1.6,0V244h13v9.6c0.5,0,1.1,0,1.6-0.1V244h7.9
							l0.1-1.6h-8v-12.7h8.5l0.1-1.6h-8.6v-12.7h9.2l0.1-1.6h-9.3v-12.7h13v10.4l1.6-0.9v-9.5h11.3L149.1,199.8z M78.5,199.8h-13
							v-12.7h13V199.8z M93.1,242.4h-13v-12.7h13V242.4z M93.1,228.2h-13v-12.7h13V228.2z M93.1,214h-13v-12.7h13V214z M93.1,199.8
							h-13v-12.7h13V199.8z M93.1,185.6h-13v-12.7h13V185.6z M107.7,242.4h-13v-12.7h13V242.4z M107.7,228.2h-13v-12.7h13V228.2z
							 M107.7,214h-13v-12.7h13V214z M107.7,199.8h-13v-12.7h13V199.8z M107.7,185.6h-13v-12.7h13V185.6z M122.3,242.4h-13v-12.7h13
							V242.4z M122.3,228.2h-13v-12.7h13V228.2z M122.3,214h-13v-12.7h13V214z M122.3,199.8h-13v-12.7h13V199.8z M122.3,185.6h-13
							v-12.7h13V185.6z M136.9,199.8h-13v-12.7h13V199.8z"/>
					</g>
					<path class="st0" d="M117.1,163c-1.2,5.1-4.2,10.1-10.9,10c-10.9-0.1-14.2-8.2-15-11.5l3.6-0.5l18.4,1.5l3.3,0.4
						C116.7,163,116.9,163,117.1,163z"/>
					<line class="st8" x1="130.9" y1="211" x2="129.5" y2="190.3"/>
					<path class="st2" d="M121.8,128.3c0,0,2.3,2.4,0.5,6.7c-1.8,4.2-2.7,7.8-2.9,11.8c-0.1,3.3-14.8,5.2-19.9,5.8
						c-1,0.1-1.7,0.2-1.7,0.2l-4-7.7c-0.5-1.4-1.8-3.9-2.9-6.9c-1.8-4.8-3.2-10.7-0.3-14.1c4.7-5.6,9.8-3.1,17.8-6.9
						c8-3.8,12-7.4,16.5-2.2C129.5,120.2,121.8,128.3,121.8,128.3z"/>
					<path class="st9" d="M100.9,150.9l-1.3,1.7c-1,0.1-1.7,0.2-1.7,0.2l-4-7.7c-0.5-1.4-1.8-3.9-2.9-6.9c3.9-1.6,6.7-5.6,6.7-5.6
						L100.9,150.9z"/>
					<path class="st1" d="M113.2,162.5c0,0,0.4,7.6-8,7.3c-8.4-0.3-10.4-8.8-10.4-8.8l2.3-0.5c0,0,0.9-9,0-15.5l16.1,8
						c-0.2,0.1-0.3,0.3-0.4,0.5c-1.9,2.5-1.7,8.2-1.7,8.2L113.2,162.5z"/>
					<path class="st3" d="M111.1,161.8c-10.4,0.3-13.3-11.5-13.3-11.5l14.9,3.3C110.9,156,111.1,161.8,111.1,161.8z"/>
					<path class="st1" d="M120.5,145.7c0,1.5,0,2.9-0.2,4.2c-0.8,5.4-3.8,9.3-11,8.7c-10.6-0.8-12.6-11-12.6-11s-2.7,2.2-5.4-0.3
						c-2.7-2.5-1.3-6.4,1.3-6.8c1.4-0.2,2.8,1.1,3.7,2.5c0.4,0.6,1.3,0.3,1.3-0.4v-10c0,0,12.9,0.5,20.6-2.2c0,0,0.1,0,0.1,0
						c1.2,1.1,1.7,2.6,1.8,4.2c0.2,2.2-0.2,4.8,0,6.9C120.4,142.8,120.5,144.3,120.5,145.7z"/>
					<path class="st10" d="M112.8,147.7l1-0.6c0.7-0.4,1-1.2,0.6-1.9l-1.7-3.8"/>
					<path d="M109.1,144.1c0,0.5-0.3,0.9-0.7,0.9s-0.7-0.4-0.7-0.9c0-0.5,0.3-0.9,0.7-0.9S109.1,143.6,109.1,144.1z"/>
					<ellipse cx="117.1" cy="143.7" rx="0.7" ry="0.9"/>
					<path class="st10" d="M91.7,143.2c1.6-0.9,3.5,0.6,3.1,2.8"/>
					<path class="st10" d="M109.3,151.8c0,0,2,2,4.8,0.4"/>
					<path class="st11" d="M104.8,140.2c0,0,1.5-2.2,4.5-1.2"/>
					<path class="st11" d="M119.4,139.1c0,0-1.8-1.9-4.7-0.2"/>
					<ellipse class="st12" cx="105.2" cy="147.7" rx="2.6" ry="2.5"/>
					<path class="st12" d="M120.5,145.7c0,1.5,0,2.9-0.2,4.2c-0.4,0.2-0.8,0.3-1.3,0.3c-1.4,0-2.6-1.1-2.6-2.5
						c0-1.4,1.2-2.5,2.6-2.5C119.6,145.2,120.1,145.4,120.5,145.7z"/>
					<g>
						<path class="st13" d="M126,230.2h-13.2c-1.6,0-2.6-1.3-2.3-2.8l5.6-27c0.3-1.5,1.9-2.8,3.5-2.8h15.1c1.6,0,2.6,1.3,2.3,2.8
							l-7.5,27C129.1,228.9,127.6,230.2,126,230.2z"/>
						<path class="st14" d="M127.9,231.3h-13.2c-1.6,0-2.6-1.3-2.3-2.8l5.6-27c0.3-1.5,1.9-2.8,3.5-2.8h13.2c1.6,0,2.6,1.3,2.3,2.8
							l-5.6,27C131,230.1,129.5,231.3,127.9,231.3z"/>
					</g>
					<path class="st1" d="M124.7,225.9c0,2.7-3.3,5-3.3,5s0.8,3.6-5.4,4.9c-6.2,1.2-12.4-4-12.4-4L63.8,240c-1,0.2-2.1,0.3-3.1,0.3
						c-4.5,0-8.8-1.9-11.6-5.4c-3.6-4.3-4.4-10.3-2-15.4l5.8-12.1l2-4.2l20.3,11.5l-1.5,2.4l-2.1,3.5l32.2-1.1c0,0,3.3-2.2,5.4-5
						c2.1-2.8,2.9-3.4,4.6-2.3c1.7,1-0.2,5.7-1.6,7.5c5.1,2.8,11.3,0.6,13.8,1C128.5,221.2,128.5,224,124.7,225.9z"/>
					<path class="st10" d="M124.7,225.9c-3.2,1.3-11,0.1-13.2-1.3"/>
					<path class="st10" d="M121.4,230.9c-4.4,0.8-9.3,0.6-11.8-1.9"/>
					<path class="st15" d="M120,210.5L120,210.5c-0.8,0-1.4-0.7-1.2-1.5l1.1-5.2c0.2-0.8,1-1.5,1.8-1.5l0,0c0.8,0,1.4,0.7,1.2,1.5
						l-1.1,5.2C121.6,209.9,120.8,210.5,120,210.5z"/>
					<line class="st10" x1="71.5" y1="220.7" x2="60.8" y2="220.7"/>
					<line class="st10" x1="135.2" y1="224.6" x2="140.8" y2="217.8"/>
					<line class="st8" x1="75.1" y1="214.7" x2="86.7" y2="193"/>
					<polygon class="st3" points="75.1,214.7 73.6,217.2 52.8,207.4 54.8,203.2 					"/>
					<line class="st8" x1="102.2" y1="300.5" x2="109.6" y2="277.1"/>
					<path class="st2" d="M32.5,405.5l23.3-13.1l4.4,6.1h10.2l1.1,9.2H33.1C31.8,407.6,31.4,406.1,32.5,405.5z"/>
					<g>
						<path class="st4" d="M75,389.8l-20.5-4.1c-1.4-0.3-2.3-1.6-2-3l0.7-3.2c0.3-1.4,1.6-2.2,3-1.9l20.5,4.1c1.4,0.3,2.3,1.6,2,3
							l-0.7,3.2C77.7,389.2,76.3,390.1,75,389.8z"/>
						<line class="st8" x1="55.8" y1="377.6" x2="77.1" y2="381.9"/>
					</g>
					<g>
						<path class="st4" d="M144.4,386l-20.6,3.7c-1.4,0.3-2.7-0.6-3-2l-0.6-3.2c-0.3-1.4,0.7-2.7,2.1-2.9l20.6-3.7
							c1.4-0.3,2.7,0.6,3,2l0.6,3.2C146.7,384.4,145.8,385.7,144.4,386z"/>
						<line class="st8" x1="121.9" y1="381.7" x2="143.3" y2="377.8"/>
					</g>
					<line class="st8" x1="80.9" y1="245.3" x2="127.6" y2="238.7"/>
					<polygon class="st5" points="109,280 106.5,318.1 102.4,300.9 102.4,300.1 					"/>
				</g>
				<g>
					<path class="st1" d="M289.7,165.7L279.6,203c-1.6,5.9-8,9.4-14,7.6l-6.9-2l20.7-47.4L289.7,165.7z"/>
					<path class="st3" d="M283.5,155.4c-0.8-1-7.3,2.3-8.8,2.7c-1.6,0.4-0.2,4.1,2.7,3.8c2.9-0.4,3.8-3.3,3.8-3.3L283.5,155.4z"/>
					<path class="st13" d="M278.8,147.4l-0.2,24.4l2.7-0.6v-23.8c0-0.5-0.3-1-0.9-1.2l0,0C279.6,146,278.8,146.5,278.8,147.4z"/>
					<path class="st1" d="M282.6,155.8c0,0-8.3,8.1-6.7,10.4c1.6,2.3,6.7-1.9,7.7-3.2c-0.1,2.7,3.4,5.2,5.5,4.9
						c3.2-0.5,4.5-3.6,3.5-5.1c-1-1.4-6.9-4.8-6.9-4.8S284.2,153.6,282.6,155.8z"/>
					<g>
						<polyline class="st1" points="202,380.3 199.1,395.1 203.5,402.5 214.2,398.4 218.5,384 						"/>
						<path class="st2" d="M176.3,405.5l23.3-13.1l4.4,6.1h10.2l1.1,9.2h-38.4C175.7,407.6,175.3,406.1,176.3,405.5z"/>
					</g>
					<g>
						<polyline class="st1" points="302.2,380.3 305.1,395.1 300.7,402.5 290,398.4 285.7,384 						"/>
						<path class="st2" d="M327.9,405.5l-23.3-13.1l-4.4,6.1H290l-1.1,9.2h38.4C328.5,407.6,328.9,406.1,327.9,405.5z"/>
					</g>
					<polygon class="st6" points="304.1,375 282.1,379.7 248.5,270.2 221.8,377.8 200,374.7 214,260.3 216.1,242.7 248.7,240.3 
						270.6,238.7 271,240.3 271.2,241.2 					"/>
					<polygon class="st16" points="271.2,241.2 214,260.3 216.1,242.7 248.7,240.3 271,240.3 					"/>
					<path class="st17" d="M272.7,237.8c0.2,1.4-0.8,2.6-2.2,2.9l-52.5,7.5c-1.8,0.3-3.4-1.1-3.3-2.9l1.5-40.1l1.1-29.2l8-17.1
						l1.7-3.5h18.4l2,0.3c0.5,0.1,1,0.1,1.5,0.2c7.9,1.5,14.7,6.5,18.4,13.6l11.3,22.2l-10.8,10.6L272.7,237.8z"/>
					<path class="st17" d="M224,171.5c-0.3,0.8-0.5,1.7-0.4,2.5l2,25.8l-1.7,1l-7.7,4.4l-9.7,5.5l-1.6,0.9l-3.1-25.7
						c-1.3-11.3,4.9-22.1,15.5-26.8l6.5-2.9l3.2-1.4l2.3,0.6l1.3,0.4l-2.6,6.2L224,171.5z"/>
					<g>
						<defs>
							<path id="SVGID_1_" d="M267.8,202.4l10.8-10.6l-11.3-22.2c-3.6-7.1-10.4-12.1-18.4-13.6c-0.5-0.1-1-0.2-1.5-0.2l-2-0.3h-16.1
								l-2.3-0.6l-3.2,1.4l-6.5,2.9c-10.6,4.7-16.8,15.6-15.5,26.8l3.1,25.7l11.3-6.5l-1.5,40.1c-0.1,1.8,1.5,3.1,3.3,2.9l52.5-7.5
								c1.4-0.2,2.4-1.5,2.2-2.9L267.8,202.4z"/>
						</defs>
						<clipPath id="SVGID_00000014606632773751171330000001124459563714910132_">
							<use xlink:href="#SVGID_1_"  style="overflow:visible;"/>
						</clipPath>
						<g style="clip-path:url(#SVGID_00000014606632773751171330000001124459563714910132_);">
							<g>
								<path class="st7" d="M206.2,237.2c0,1-0.9,1.9-1.9,1.9c-1,0-1.9-0.8-1.9-1.9c0-1,0.9-1.9,1.9-1.9
									C205.4,235.3,206.2,236.2,206.2,237.2z"/>
								<path class="st7" d="M217.5,237.2c0,1-0.9,1.9-1.9,1.9c-1,0-1.9-0.8-1.9-1.9c0-1,0.9-1.9,1.9-1.9
									C216.6,235.3,217.5,236.2,217.5,237.2z"/>
								<path class="st7" d="M228.7,237.2c0,1-0.9,1.9-1.9,1.9c-1,0-1.9-0.8-1.9-1.9c0-1,0.9-1.9,1.9-1.9
									C227.9,235.3,228.7,236.2,228.7,237.2z"/>
								<path class="st7" d="M240,237.2c0,1-0.9,1.9-1.9,1.9c-1,0-1.9-0.8-1.9-1.9c0-1,0.9-1.9,1.9-1.9
									C239.1,235.3,240,236.2,240,237.2z"/>
								<path class="st7" d="M251.2,237.2c0,1-0.9,1.9-1.9,1.9c-1,0-1.9-0.8-1.9-1.9c0-1,0.9-1.9,1.9-1.9
									C250.4,235.3,251.2,236.2,251.2,237.2z"/>
								<path class="st7" d="M262.5,237.2c0,1-0.9,1.9-1.9,1.9c-1,0-1.9-0.8-1.9-1.9c0-1,0.9-1.9,1.9-1.9
									C261.6,235.3,262.5,236.2,262.5,237.2z"/>
								<path class="st7" d="M273.7,237.2c0,1-0.9,1.9-1.9,1.9c-1,0-1.9-0.8-1.9-1.9c0-1,0.9-1.9,1.9-1.9
									C272.9,235.3,273.7,236.2,273.7,237.2z"/>
								<path class="st7" d="M285,237.2c0,1-0.9,1.9-1.9,1.9c-1,0-1.9-0.8-1.9-1.9c0-1,0.9-1.9,1.9-1.9
									C284.1,235.3,285,236.2,285,237.2z"/>
							</g>
							<g>
								<path class="st7" d="M206.2,227c0,1-0.9,1.9-1.9,1.9c-1,0-1.9-0.8-1.9-1.9c0-1,0.9-1.9,1.9-1.9
									C205.4,225.1,206.2,225.9,206.2,227z"/>
								<path class="st7" d="M217.5,227c0,1-0.9,1.9-1.9,1.9c-1,0-1.9-0.8-1.9-1.9c0-1,0.9-1.9,1.9-1.9
									C216.6,225.1,217.5,225.9,217.5,227z"/>
								<path class="st7" d="M228.7,227c0,1-0.9,1.9-1.9,1.9c-1,0-1.9-0.8-1.9-1.9c0-1,0.9-1.9,1.9-1.9
									C227.9,225.1,228.7,225.9,228.7,227z"/>
								<path class="st7" d="M240,227c0,1-0.9,1.9-1.9,1.9c-1,0-1.9-0.8-1.9-1.9c0-1,0.9-1.9,1.9-1.9C239.1,225.1,240,225.9,240,227
									z"/>
								<path class="st7" d="M251.2,227c0,1-0.9,1.9-1.9,1.9c-1,0-1.9-0.8-1.9-1.9c0-1,0.9-1.9,1.9-1.9
									C250.4,225.1,251.2,225.9,251.2,227z"/>
								<path class="st7" d="M262.5,227c0,1-0.9,1.9-1.9,1.9c-1,0-1.9-0.8-1.9-1.9c0-1,0.9-1.9,1.9-1.9
									C261.6,225.1,262.5,225.9,262.5,227z"/>
								<path class="st7" d="M273.7,227c0,1-0.9,1.9-1.9,1.9c-1,0-1.9-0.8-1.9-1.9c0-1,0.9-1.9,1.9-1.9
									C272.9,225.1,273.7,225.9,273.7,227z"/>
								<path class="st7" d="M285,227c0,1-0.9,1.9-1.9,1.9c-1,0-1.9-0.8-1.9-1.9c0-1,0.9-1.9,1.9-1.9C284.1,225.1,285,225.9,285,227
									z"/>
							</g>
							<g>
								<ellipse class="st7" cx="204.3" cy="216.7" rx="1.9" ry="1.9"/>
								<path class="st7" d="M217.5,216.7c0,1-0.9,1.9-1.9,1.9c-1,0-1.9-0.8-1.9-1.9s0.9-1.9,1.9-1.9
									C216.6,214.9,217.5,215.7,217.5,216.7z"/>
								<path class="st7" d="M228.7,216.7c0,1-0.9,1.9-1.9,1.9c-1,0-1.9-0.8-1.9-1.9s0.9-1.9,1.9-1.9
									C227.9,214.9,228.7,215.7,228.7,216.7z"/>
								<path class="st7" d="M240,216.7c0,1-0.9,1.9-1.9,1.9c-1,0-1.9-0.8-1.9-1.9s0.9-1.9,1.9-1.9C239.1,214.9,240,215.7,240,216.7
									z"/>
								<path class="st7" d="M251.2,216.7c0,1-0.9,1.9-1.9,1.9c-1,0-1.9-0.8-1.9-1.9s0.9-1.9,1.9-1.9
									C250.4,214.9,251.2,215.7,251.2,216.7z"/>
								<ellipse class="st7" cx="260.6" cy="216.7" rx="1.9" ry="1.9"/>
								<ellipse class="st7" cx="271.8" cy="216.7" rx="1.9" ry="1.9"/>
								<ellipse class="st7" cx="283.1" cy="216.7" rx="1.9" ry="1.9"/>
							</g>
							<g>
								<ellipse class="st7" cx="204.3" cy="206.5" rx="1.9" ry="1.9"/>
								<path class="st7" d="M217.5,206.5c0,1-0.9,1.9-1.9,1.9c-1,0-1.9-0.8-1.9-1.9c0-1,0.9-1.9,1.9-1.9
									C216.6,204.7,217.5,205.5,217.5,206.5z"/>
								<path class="st7" d="M228.7,206.5c0,1-0.9,1.9-1.9,1.9c-1,0-1.9-0.8-1.9-1.9c0-1,0.9-1.9,1.9-1.9
									C227.9,204.7,228.7,205.5,228.7,206.5z"/>
								<path class="st7" d="M240,206.5c0,1-0.9,1.9-1.9,1.9c-1,0-1.9-0.8-1.9-1.9c0-1,0.9-1.9,1.9-1.9
									C239.1,204.7,240,205.5,240,206.5z"/>
								<path class="st7" d="M251.2,206.5c0,1-0.9,1.9-1.9,1.9c-1,0-1.9-0.8-1.9-1.9c0-1,0.9-1.9,1.9-1.9
									C250.4,204.7,251.2,205.5,251.2,206.5z"/>
								<ellipse class="st7" cx="260.6" cy="206.5" rx="1.9" ry="1.9"/>
								<ellipse class="st7" cx="271.8" cy="206.5" rx="1.9" ry="1.9"/>
								<ellipse class="st7" cx="283.1" cy="206.5" rx="1.9" ry="1.9"/>
							</g>
							<g>
								<path class="st7" d="M206.2,196.3c0,1-0.9,1.9-1.9,1.9c-1,0-1.9-0.8-1.9-1.9c0-1,0.9-1.9,1.9-1.9
									C205.4,194.4,206.2,195.3,206.2,196.3z"/>
								<path class="st7" d="M217.5,196.3c0,1-0.9,1.9-1.9,1.9c-1,0-1.9-0.8-1.9-1.9c0-1,0.9-1.9,1.9-1.9
									C216.6,194.4,217.5,195.3,217.5,196.3z"/>
								<path class="st7" d="M228.7,196.3c0,1-0.9,1.9-1.9,1.9c-1,0-1.9-0.8-1.9-1.9c0-1,0.9-1.9,1.9-1.9
									C227.9,194.4,228.7,195.3,228.7,196.3z"/>
								<path class="st7" d="M240,196.3c0,1-0.9,1.9-1.9,1.9c-1,0-1.9-0.8-1.9-1.9c0-1,0.9-1.9,1.9-1.9
									C239.1,194.4,240,195.3,240,196.3z"/>
								<path class="st7" d="M251.2,196.3c0,1-0.9,1.9-1.9,1.9c-1,0-1.9-0.8-1.9-1.9c0-1,0.9-1.9,1.9-1.9
									C250.4,194.4,251.2,195.3,251.2,196.3z"/>
								<path class="st7" d="M262.5,196.3c0,1-0.9,1.9-1.9,1.9c-1,0-1.9-0.8-1.9-1.9c0-1,0.9-1.9,1.9-1.9
									C261.6,194.4,262.5,195.3,262.5,196.3z"/>
								<path class="st7" d="M273.7,196.3c0,1-0.9,1.9-1.9,1.9c-1,0-1.9-0.8-1.9-1.9c0-1,0.9-1.9,1.9-1.9
									C272.9,194.4,273.7,195.3,273.7,196.3z"/>
								<path class="st7" d="M285,196.3c0,1-0.9,1.9-1.9,1.9c-1,0-1.9-0.8-1.9-1.9c0-1,0.9-1.9,1.9-1.9
									C284.1,194.4,285,195.3,285,196.3z"/>
							</g>
							<g>
								<path class="st7" d="M206.2,186.1c0,1-0.9,1.9-1.9,1.9c-1,0-1.9-0.8-1.9-1.9c0-1,0.9-1.9,1.9-1.9
									C205.4,184.2,206.2,185,206.2,186.1z"/>
								<path class="st7" d="M217.5,186.1c0,1-0.9,1.9-1.9,1.9c-1,0-1.9-0.8-1.9-1.9c0-1,0.9-1.9,1.9-1.9
									C216.6,184.2,217.5,185,217.5,186.1z"/>
								<path class="st7" d="M228.7,186.1c0,1-0.9,1.9-1.9,1.9c-1,0-1.9-0.8-1.9-1.9c0-1,0.9-1.9,1.9-1.9
									C227.9,184.2,228.7,185,228.7,186.1z"/>
								<path class="st7" d="M240,186.1c0,1-0.9,1.9-1.9,1.9c-1,0-1.9-0.8-1.9-1.9c0-1,0.9-1.9,1.9-1.9
									C239.1,184.2,240,185,240,186.1z"/>
								<path class="st7" d="M251.2,186.1c0,1-0.9,1.9-1.9,1.9c-1,0-1.9-0.8-1.9-1.9c0-1,0.9-1.9,1.9-1.9
									C250.4,184.2,251.2,185,251.2,186.1z"/>
								<path class="st7" d="M262.5,186.1c0,1-0.9,1.9-1.9,1.9c-1,0-1.9-0.8-1.9-1.9c0-1,0.9-1.9,1.9-1.9
									C261.6,184.2,262.5,185,262.5,186.1z"/>
								<path class="st7" d="M273.7,186.1c0,1-0.9,1.9-1.9,1.9c-1,0-1.9-0.8-1.9-1.9c0-1,0.9-1.9,1.9-1.9
									C272.9,184.2,273.7,185,273.7,186.1z"/>
								<path class="st7" d="M285,186.1c0,1-0.9,1.9-1.9,1.9c-1,0-1.9-0.8-1.9-1.9c0-1,0.9-1.9,1.9-1.9
									C284.1,184.2,285,185,285,186.1z"/>
							</g>
							<g>
								<ellipse class="st7" cx="204.3" cy="175.8" rx="1.9" ry="1.9"/>
								<path class="st7" d="M217.5,175.8c0,1-0.9,1.9-1.9,1.9c-1,0-1.9-0.8-1.9-1.9c0-1,0.9-1.9,1.9-1.9
									C216.6,174,217.5,174.8,217.5,175.8z"/>
								<path class="st7" d="M228.7,175.8c0,1-0.9,1.9-1.9,1.9c-1,0-1.9-0.8-1.9-1.9c0-1,0.9-1.9,1.9-1.9
									C227.9,174,228.7,174.8,228.7,175.8z"/>
								<path class="st7" d="M240,175.8c0,1-0.9,1.9-1.9,1.9c-1,0-1.9-0.8-1.9-1.9c0-1,0.9-1.9,1.9-1.9
									C239.1,174,240,174.8,240,175.8z"/>
								<path class="st7" d="M251.2,175.8c0,1-0.9,1.9-1.9,1.9c-1,0-1.9-0.8-1.9-1.9c0-1,0.9-1.9,1.9-1.9
									C250.4,174,251.2,174.8,251.2,175.8z"/>
								<ellipse class="st7" cx="260.6" cy="175.8" rx="1.9" ry="1.9"/>
								<ellipse class="st7" cx="271.8" cy="175.8" rx="1.9" ry="1.9"/>
								<ellipse class="st7" cx="283.1" cy="175.8" rx="1.9" ry="1.9"/>
							</g>
							<g>
								<ellipse class="st7" cx="204.3" cy="165.6" rx="1.9" ry="1.9"/>
								<path class="st7" d="M217.5,165.6c0,1-0.9,1.9-1.9,1.9c-1,0-1.9-0.8-1.9-1.9c0-1,0.9-1.9,1.9-1.9
									C216.6,163.8,217.5,164.6,217.5,165.6z"/>
								<path class="st7" d="M228.7,165.6c0,1-0.9,1.9-1.9,1.9c-1,0-1.9-0.8-1.9-1.9c0-1,0.9-1.9,1.9-1.9
									C227.9,163.8,228.7,164.6,228.7,165.6z"/>
								<path class="st7" d="M240,165.6c0,1-0.9,1.9-1.9,1.9c-1,0-1.9-0.8-1.9-1.9c0-1,0.9-1.9,1.9-1.9
									C239.1,163.8,240,164.6,240,165.6z"/>
								<path class="st7" d="M251.2,165.6c0,1-0.9,1.9-1.9,1.9c-1,0-1.9-0.8-1.9-1.9c0-1,0.9-1.9,1.9-1.9
									C250.4,163.8,251.2,164.6,251.2,165.6z"/>
								<ellipse class="st7" cx="260.6" cy="165.6" rx="1.9" ry="1.9"/>
								<ellipse class="st7" cx="271.8" cy="165.6" rx="1.9" ry="1.9"/>
								<ellipse class="st7" cx="283.1" cy="165.6" rx="1.9" ry="1.9"/>
							</g>
							<g>
								<path class="st7" d="M206.2,155.4c0,1-0.9,1.9-1.9,1.9c-1,0-1.9-0.8-1.9-1.9s0.9-1.9,1.9-1.9
									C205.4,153.5,206.2,154.4,206.2,155.4z"/>
								<path class="st7" d="M217.5,155.4c0,1-0.9,1.9-1.9,1.9c-1,0-1.9-0.8-1.9-1.9s0.9-1.9,1.9-1.9
									C216.6,153.5,217.5,154.4,217.5,155.4z"/>
								<path class="st7" d="M228.7,155.4c0,1-0.9,1.9-1.9,1.9c-1,0-1.9-0.8-1.9-1.9s0.9-1.9,1.9-1.9
									C227.9,153.5,228.7,154.4,228.7,155.4z"/>
								<path class="st7" d="M240,155.4c0,1-0.9,1.9-1.9,1.9c-1,0-1.9-0.8-1.9-1.9s0.9-1.9,1.9-1.9C239.1,153.5,240,154.4,240,155.4
									z"/>
								<path class="st7" d="M251.2,155.4c0,1-0.9,1.9-1.9,1.9c-1,0-1.9-0.8-1.9-1.9s0.9-1.9,1.9-1.9
									C250.4,153.5,251.2,154.4,251.2,155.4z"/>
								<path class="st7" d="M262.5,155.4c0,1-0.9,1.9-1.9,1.9c-1,0-1.9-0.8-1.9-1.9s0.9-1.9,1.9-1.9
									C261.6,153.5,262.5,154.4,262.5,155.4z"/>
								<path class="st7" d="M273.7,155.4c0,1-0.9,1.9-1.9,1.9c-1,0-1.9-0.8-1.9-1.9s0.9-1.9,1.9-1.9
									C272.9,153.5,273.7,154.4,273.7,155.4z"/>
								<path class="st7" d="M285,155.4c0,1-0.9,1.9-1.9,1.9c-1,0-1.9-0.8-1.9-1.9s0.9-1.9,1.9-1.9C284.1,153.5,285,154.4,285,155.4
									z"/>
							</g>
						</g>
					</g>
					<path class="st13" d="M252.2,196.9l11.2-24.1c0.4-0.9,1.3-1.6,2.3-1.9l45.6-12.2c0.8-0.2,2.3,1.6,2,2.3l-16.6,30
						c-0.5,1.1-1.5,1.9-2.6,2.3l-42.9,15.8L252.2,196.9z"/>
					<path class="st14" d="M253,198.7l11.2-24.1c0.4-0.9,1.3-1.6,2.3-1.9l45.6-12.2c0.8-0.2,1.4,0.6,1.1,1.3l-15.7,31.1
						c-0.5,1.1-1.5,1.9-2.6,2.3L252,211L253,198.7z"/>
					<path class="st1" d="M264.1,204.4c0,0,0.9,2.1-3.6,6.2c-4.5,4.1-11.4,1.4-11.4,1.4l-18.2,13.5c-2.6,1.9-5.7,2.8-8.7,2.8
						c-2.3,0-4.6-0.5-6.7-1.6c-3.9-2-6.7-5.6-7.6-9.7l-0.1-0.6l-1.2-5.6l9.7-5.5l7.7-4.4l0.3,1.4l1.2,6.5l19.8-9.4
						c0,0,4-6.2,5.9-8.4c1.9-2.2,4-2.6,4.7-1.1c0.7,1.4-3.6,7.3-3.6,7.3s1.6-0.1,6.4-1.7c4.8-1.6,7.9-4.9,9.2-3.9
						c1.3,1,0.6,3.9-1.2,6.2C267,201.5,264.1,204.4,264.1,204.4z"/>
					<polygon class="st3" points="224.2,202.2 207.7,216.3 206.5,210.7 216.2,205.2 223.9,200.7 					"/>
					<path class="st0" d="M248.9,155.9c-0.8,4.2-3.2,8.4-9.7,9.1c-5.1,0.6-8.7-1-11.2-3c-1.1-0.9-2-2-2.7-3c-0.7-1-1.1-1.9-1.5-2.7
						l3.2-1.4l2.3,0.6h16.1l2,0.3C247.9,155.7,248.4,155.8,248.9,155.9z"/>
					<path class="st1" d="M239.7,162.1c-9,1-12.7-7.3-12.7-7.3l1.8-0.8c0,0,0.3-7-0.4-11l2.6,0.6l12.7,3.2c-1.2,2.7-0.9,6.4-0.7,7.6
						c0,0.2,0,0.4,0,0.4l2.3,0.6C245.4,155.4,245.7,161.5,239.7,162.1z"/>
					<path class="st3" d="M243,154.4c-5.1,0.1-11.5-1.6-13.5-8.1c-0.5-1.5,0.2-2.3,1.5-2.7l12.7,3.2
						C242.6,149.5,242.9,153.2,243,154.4z"/>
					<path class="st2" d="M226.3,138.5l-4.6-5.5c-2.4-2.9-2.1-7,0.6-9.6l0,0l0,0c-2.5-5.8,1-12.4,7.3-13.8l4.7-1
						c0.8-0.2,1.6-0.5,2.3-1l4.5-3.2c1.1-0.8,2.6-0.8,3.7-0.1l0,0c1.5,0.9,2,2.8,1.2,4.3l-1.4,2.6c-0.2,0.3,0.2,0.6,0.5,0.4l8.2-5
						c1.1-0.6,2.4-0.5,3.3,0.4l0,0c0.8,0.9,0.9,2.2,0.2,3.1l-5.6,7.7c-0.2,0.3,0.1,0.6,0.4,0.5l1.4-0.5c1.4-0.5,3,0.1,3.8,1.3l0,0
						c0.8,1.2,0.6,2.7-0.4,3.7c-2.7,2.8-7.8,8.4-8.4,11.6C247,138.8,226.3,138.5,226.3,138.5z"/>
					<path class="st1" d="M248.6,129.9c-0.2,0.9-0.3,2.1-0.3,4c0,1.2,0.2,3.3,0.3,5.5c0,1.6-0.1,3.2-0.4,4.8c-0.8,3.6-3,6.7-8.6,6.7
						c-11.5,0-12.6-11-12.6-11s-0.3,2.7-2.9,1.4c-1.9-0.9-2.6-5.2-0.4-6.2c1.3-0.6,2.6,0.2,3.6,1c0.4,0.3,1,0,0.9-0.5l-0.5-5.2
						c3.1,0.9,14.3-2.2,18.8-6.4c0.1,1.1,0.9,2.4,1.6,3.3C248.5,128.1,248.7,129,248.6,129.9z"/>
					<g>
						<path class="st10" d="M240.5,142.1l1-0.6c0.7-0.4,1-1.2,0.6-1.9l-1.7-3.8"/>
						<path d="M236.8,137.6c0,0.5-0.3,0.9-0.7,0.9c-0.4,0-0.7-0.4-0.7-0.9c0-0.5,0.3-0.9,0.7-0.9
							C236.4,136.7,236.8,137.1,236.8,137.6z"/>
						<path d="M245.5,137.1c0,0.5-0.3,0.9-0.7,0.9s-0.7-0.4-0.7-0.9c0-0.5,0.3-0.9,0.7-0.9S245.5,136.6,245.5,137.1z"/>
						<path class="st11" d="M232.5,134.6c0,0,1.5-2.2,4.5-1.2"/>
						<path class="st11" d="M247.1,133.4c0,0-1.8-1.9-4.7-0.2"/>
					</g>
					<path class="st0" d="M237,144.2l4.3,0.2c0,0-0.1,2.2-2.3,2.1C236.8,146.3,237,144.2,237,144.2z"/>
					<path class="st10" d="M223.4,137.2c1.3-0.8,2.5,0.2,2.2,2.1"/>
					<g>
						<path class="st12" d="M236.4,141.8c0,1.4-1.2,2.5-2.6,2.5c-1.4,0-2.6-1.1-2.6-2.5c0-1.4,1.2-2.5,2.6-2.5
							C235.2,139.3,236.4,140.4,236.4,141.8z"/>
						<path class="st12" d="M248.5,139.5c0,1.6-0.1,3.2-0.4,4.8c-0.2,0-0.3,0.1-0.5,0.1c-1.4,0-2.6-1.1-2.6-2.5
							c0-1.4,1.2-2.5,2.6-2.5C247.9,139.3,248.2,139.3,248.5,139.5z"/>
					</g>
					<line class="st10" x1="225.4" y1="208.6" x2="218.1" y2="212.2"/>
					<path class="st10" d="M266.6,197.5c-1.6,3.1-10.4,4.3-10.4,4.3"/>
					<path class="st10" d="M264.1,204.4c-3.6,3.7-9.4,2.8-9.4,2.8"/>
					<line class="st8" x1="223.9" y1="200.7" x2="220.9" y2="179.2"/>
					<line class="st8" x1="261.4" y1="217.8" x2="239.2" y2="236.1"/>
					<g>
						<path class="st6" d="M220.1,385.1l-20.7-2.6c-1.4-0.2-2.4-1.4-2.2-2.8l0.4-3.2c0.2-1.4,1.5-2.3,2.9-2.2l20.7,2.6
							c1.4,0.2,2.4,1.4,2.2,2.8l-0.4,3.2C222.8,384.3,221.5,385.3,220.1,385.1z"/>
						<line class="st8" x1="200" y1="374.3" x2="221.5" y2="377"/>
					</g>
					<g>
						<path class="st6" d="M305.5,380.9l-20.1,5.7c-1.4,0.4-2.8-0.4-3.2-1.7l-0.9-3.1c-0.4-1.3,0.4-2.7,1.7-3.1l20.1-5.7
							c1.4-0.4,2.8,0.4,3.2,1.7l0.9,3.1C307.6,379.1,306.8,380.5,305.5,380.9z"/>
						<line class="st8" x1="282.7" y1="378.8" x2="303.5" y2="372.9"/>
					</g>
					<g>
						<path class="st7" d="M266.8,176.4c1.2-0.9,2.8-0.9,3.4,0c0.7,0.9,0.2,2.3-1,3.2c-1.2,0.9-2.8,0.9-3.4,0
							C265.1,178.7,265.5,177.2,266.8,176.4z"/>
						<path class="st7" d="M267.4,177.1c0.6-0.4,1.4-0.4,1.8,0c0.3,0.5,0.1,1.2-0.5,1.6c-0.6,0.4-1.4,0.4-1.8,0
							C266.5,178.3,266.7,177.6,267.4,177.1z"/>
					</g>
					<line class="st8" x1="250.3" y1="260.3" x2="244.5" y2="286.5"/>
				</g>
				<path class="st14" d="M328.4,188.8h-0.6C328,188.8,328.2,188.8,328.4,188.8z"/>
				<path class="st14" d="M327.8,188.8C327.7,188.8,327.7,188.8,327.8,188.8L327.8,188.8L327.8,188.8z"/>
				<g>
					<g>
						<polyline class="st1" points="373.3,354.5 371.9,395.5 376.3,402.9 386.9,398.9 389.8,358.2 						"/>
						<path class="st17" d="M349.1,405.9l23.3-13.1l4.4,6.1h10.2l1.1,9.2h-38.4C348.5,408.1,348,406.5,349.1,405.9z"/>
					</g>
					<g>
						<polyline class="st1" points="444.5,354.5 457.9,395.5 453.5,402.9 442.8,398.9 428.1,358.2 						"/>
						<path class="st17" d="M480.7,405.9l-23.3-13.1l-4.4,6.1h-10.2l-1.1,9.2h38.4C481.3,408.1,481.7,406.5,480.7,405.9z"/>
					</g>
					<path class="st19" d="M374.6,219.4l-5.5,154.9l21.8,1.6l8.3-96.9l32.9,99.8l19.4-5.9c0,0-26.2-105.4-29.2-120.4
						c-2.9-15-1.5-22.9-6.1-33.4L374.6,219.4z"/>
					<path class="st2" d="M392.1,115.4c-6.3-1.7-11.1,7.3-9.6,18.4c1.5,11.1-8.3,21.7-7.2,26.3c1.1,4.5,22.9,10.9,37.5,10.7
						c14.6-0.1,19.1-6.3,16.4-10.7c-2.7-4.4-7-8.7-6.6-22C422.9,124.7,413.5,99.8,392.1,115.4z"/>
					<path class="st1" d="M362,178.8l-8.1,17.7l-12.5-28.6c0,0-1.6-9.8-2.9-12.5c-1.3-2.7-0.9-6.4-2.6-6.9c-1.7-0.5-2.3,2.4-2.3,5
						c0,2.6-0.4,5-0.4,5s-7.2-6.1-7.6-8c-0.4-1.9-0.2-8.4-1.8-9.3c-1.6-0.8-3.4,1.1-3.7,6.6c-0.4,5.6,11.1,21.7,11.1,21.7l8.4,39.7
						l23.5,4.2l14-22.3L362,178.8z"/>
					<path class="st6" d="M434.1,184l-8.7,6.1l-0.8,0.6l-6.5,4.6l-1,25l-3.9-0.1l-0.8,0l-11.4-0.2l-0.8,0l-11.4-0.2l-0.8,0
						l-11.4-0.2l-0.8,0l-1.2,0c0,0,0.5-6.1-1.3-15c-1.8-8.9,0.7-15,0.7-15l-12-10.6l6.2-9.3c1.9-2.9,4.5-5.1,7.6-6.6
						c0.3-0.1,0.5-0.3,0.8-0.4c0.9-0.4,1.8-0.7,2.8-0.9l8.6-2.2l0.5-0.1l0.3-0.1l2.9-0.7l8.5,0h0.8l9.2,0l2.2,1.1l0.8,0.4l0,0l7.8,4
						c1.3,0.7,2.5,1.5,3.6,2.4c0.3,0.2,0.6,0.5,0.8,0.7c1.9,1.8,3.4,4,4.4,6.4L434.1,184z"/>
					<g>
						<path class="st7" d="M376.6,162.5v56.9l-0.8,0v-56.5C376.1,162.7,376.3,162.6,376.6,162.5z"/>
						<polygon class="st7" points="388.8,159.2 388.8,219.7 388,219.7 388,159.4 388.5,159.3 						"/>
						<polygon class="st7" points="401,158.5 401,219.9 400.2,219.9 400.2,158.5 						"/>
						<polygon class="st7" points="413.2,160.1 413.2,220.2 412.4,220.1 412.4,159.6 						"/>
						<path class="st7" d="M425.4,167.2v23l-0.8,0.6v-24.3C424.9,166.7,425.2,166.9,425.4,167.2z"/>
					</g>
					<path class="st0" d="M413.3,160.1c-2.5,5-9.2,8-17.4,7.4c-6.9-0.4-7.7-4.9-7.4-8.2l3.3-0.8l18.5,0.1L413.3,160.1z"/>
					<path class="st1" d="M410.3,158.5c0,0-3.4,6.6-12,6.6c-8.6,0-6.5-6.6-6.5-6.6l2.4-0.8l-0.1-4.1l-0.2-6l14.7-4.4
						c-0.3,0.6-0.5,1.5-0.7,2.5c-0.7,4.5,0.1,12,0.1,12L410.3,158.5z"/>
					<path class="st3" d="M408.5,143.3c-0.3,0.6-0.5,1.5-0.7,2.5c0,0,0,0,0,0c-4.1,8.1-11.1,8.2-13.8,7.9l-0.2-6L408.5,143.3z"/>
					<path class="st1" d="M392.4,121.7c1.4,7.1,16.8,11.9,17.9,12.7c0.6,0.5,0.9,1.6,0.9,2.4c0,0.2,0.3,0.2,0.3,0
						c0.4-1,1.2-2.5,2.5-2.7c2-0.2,4,2.3,2.9,5.3c-1.2,3-5.8,1.4-5.8,1.4s-3.8,9-12.6,9.3c-8.8,0.2-10.7-7-10-11.4
						c0.7-4.4,0.6-6.6,0.2-9.3C388.3,126.9,391.6,125.1,392.4,121.7z"/>
					<path class="st10" d="M414.7,136c-0.7,0.2-1.6,2.2-1.2,3.1"/>
					<g>
						<path class="st10" d="M397.2,141.6l-1-0.6c-0.7-0.4-1-1.2-0.6-1.9l1.7-3.8"/>
						<path d="M400.9,137.1c0,0.5,0.3,0.9,0.7,0.9c0.4,0,0.7-0.4,0.7-0.9c0-0.5-0.3-0.9-0.7-0.9
							C401.2,136.2,400.9,136.6,400.9,137.1z"/>
						<path d="M392.1,136.6c0,0.5,0.3,0.9,0.7,0.9c0.4,0,0.7-0.4,0.7-0.9c0-0.5-0.3-0.9-0.7-0.9
							C392.4,135.7,392.1,136.1,392.1,136.6z"/>
						<path class="st11" d="M404.7,132.3c0,0-1.8-2-4.7-0.6"/>
						<path class="st11" d="M390.5,132.2c0,0,1.8-1.9,4.7-0.2"/>
					</g>
					<path class="st20" d="M395.3,136.8c0,2-1.7,3.6-3.7,3.6s-3.7-1.6-3.7-3.6s1.7-3.6,3.7-3.6S395.3,134.8,395.3,136.8z"/>
					<path class="st20" d="M405.6,136.8c0,2-1.7,3.6-3.7,3.6s-3.7-1.6-3.7-3.6s1.7-3.6,3.7-3.6S405.6,134.8,405.6,136.8z"/>
					<path class="st20" d="M395.1,136c0,0,1.6-1.5,3.1,0"/>
					<path class="st10" d="M398.3,144.9c0,0,2.4,1,4.3-0.7"/>
					<path class="st4" d="M371.8,219h-36.3l0,0c-0.6,0-1.2-0.3-1.3-0.9l-7.8-27.5c-0.2-0.7,0.2-1.4,0.9-1.6l0.5-0.1h0c0,0,0,0,0,0
						h36.3L371.8,219z"/>
					<path class="st21" d="M350.1,205.3c0,1.5-1.3,2.7-2.8,2.7s-2.8-1.2-2.8-2.7c0-1.5,1.3-2.7,2.8-2.7S350.1,203.8,350.1,205.3z"/>
					<g>
						<path class="st5" d="M371.7,219h28.9c0.7,0,1.3-0.6,1.3-1.3v-0.4c0-0.7-0.6-1.3-1.3-1.3h-28.9c-0.7,0-1.3,0.6-1.3,1.3v0.4
							C370.4,218.5,371,219,371.7,219z"/>
						<path class="st5" d="M362.7,190.6l7.7,27.1c0.2,0.7,0.9,1.1,1.6,0.9l0.5-0.1c0.7-0.2,1.1-0.9,0.9-1.6l-7.7-27.1
							c-0.2-0.7-0.9-1.1-1.6-0.9l-0.5,0.1C362.9,189.2,362.5,189.9,362.7,190.6z"/>
					</g>
					<path class="st1" d="M447.2,226.9c0,3.5-1.6,6.8-4.4,9.1c-4.1,3.3-10.1,3.6-14.5,0.6l-20.2-13.5c0,0-11,2.3-15.9,1.9
						c-4.9-0.4-10.2-3-10.3-4c0-1,19.9-3,19-3.8c-0.9-0.8-9.8-0.9-10-2.7c-0.1-1.9,2.1-2.5,5.8-2.8c3.7-0.2,8.5,1.6,8.5,1.6
						l20.2,2.7l-5.7-16.3l-1.6-4.4l15.9-11.3l1,3.3l11.5,36.2C447,224.6,447.2,225.8,447.2,226.9z"/>
					<polygon class="st3" points="434.1,184 435.1,187.3 419.7,199.7 418.2,195.3 					"/>
					<line class="st10" x1="425.5" y1="216" x2="434.1" y2="217.1"/>
					<path class="st2" d="M377.6,217.5c0,0.3-0.2,0.5-0.5,0.5c-0.3,0-0.5-0.2-0.5-0.5s0.2-0.5,0.5-0.5
						C377.4,217.1,377.6,217.3,377.6,217.5z"/>
					<path class="st2" d="M379.5,217.5c0,0.3-0.2,0.5-0.5,0.5c-0.3,0-0.5-0.2-0.5-0.5s0.2-0.5,0.5-0.5
						C379.3,217.1,379.5,217.3,379.5,217.5z"/>
					<g>
						<path class="st4" d="M390.3,381.5l-20.9-0.7c-1.4,0-2.5-1.2-2.5-2.6l0.1-3.2c0-1.4,1.2-2.5,2.7-2.4l20.9,0.7
							c1.4,0,2.5,1.2,2.5,2.6l-0.1,3.2C392.9,380.5,391.7,381.5,390.3,381.5z"/>
					</g>
					<g>
						<path class="st4" d="M453.1,376.9l-20,5.8c-1.4,0.4-2.8-0.4-3.2-1.7l-1-3.1c-0.4-1.3,0.4-2.7,1.7-3.1l20-5.8
							c1.4-0.4,2.8,0.4,3.2,1.7l1,3.1C455.2,375.1,454.5,376.5,453.1,376.9z"/>
					</g>
					<line class="st8" x1="393" y1="258.8" x2="403.1" y2="290.6"/>
					<path class="st8" d="M376.6,203.7c5.4,4.8,14.9,5.6,14.9,5.6"/>
					<line class="st8" x1="418.2" y1="195.3" x2="411.3" y2="184"/>
					<path class="st8" d="M374,189.4c2.9-5.7,3.5-13.1,3.5-13.1"/>
				</g>
			</g>
			<line class="st22" x1="19.4" y1="408.1" x2="499.4" y2="408.1"/>
		</g>
	</g>
	<g>
		<g>
			<polygon class="st23" points="350.8,91 350.8,127.1 341.7,118 306.7,118 306.7,91 			"/>
			<g>
				<line class="st24" x1="318.6" y1="98.3" x2="338.9" y2="98.3"/>
				<line class="st25" x1="322" y1="102.5" x2="338.9" y2="102.5"/>
				<line class="st25" x1="318.6" y1="106.6" x2="338.9" y2="106.6"/>
				<line class="st25" x1="324.7" y1="110.8" x2="338.9" y2="110.8"/>
			</g>
		</g>
		<g>
			<polygon class="st23" points="147,112 147,148.1 156.1,139 191.1,139 191.1,112 			"/>
			<g>
				<line class="st26" x1="179.2" y1="119.3" x2="158.9" y2="119.3"/>
				<line class="st25" x1="175.8" y1="123.4" x2="158.9" y2="123.4"/>
				<line class="st25" x1="179.2" y1="127.6" x2="158.9" y2="127.6"/>
				<line class="st25" x1="173.1" y1="131.7" x2="158.9" y2="131.7"/>
			</g>
		</g>
	</g>
</g>
<g id="DESIGNED_BY_FREEPIK">
</g>
</svg>
