<svg width="54" height="54" viewBox="0 0 54 54" fill="none" xmlns="http://www.w3.org/2000/svg">
<g clip-path="url(#clip0_1655_79017)">
<path d="M45 6.75H42.75V2.25H38.25V6.75H15.75V2.25H11.25V6.75H9C6.525 6.75 4.5 8.775 4.5 11.25V47.25C4.5 49.725 6.525 51.75 9 51.75H45C47.475 51.75 49.5 49.725 49.5 47.25V11.25C49.5 8.775 47.475 6.75 45 6.75ZM45 11.25V18H9V11.25H45ZM9 47.25V22.5H45V47.25H9Z" fill="#7700FF"/>
<path d="M11.975 40.575C12.5417 40.125 12.8 39.9167 12.75 39.95C14.3833 38.6 15.6667 37.4917 16.6 36.625C17.55 35.7583 18.35 34.85 19 33.9C19.65 32.95 19.975 32.025 19.975 31.125C19.975 30.4417 19.8167 29.9083 19.5 29.525C19.1833 29.1417 18.7083 28.95 18.075 28.95C17.4417 28.95 16.9417 29.1917 16.575 29.675C16.225 30.1417 16.05 30.8083 16.05 31.675H11.925C11.9583 30.2583 12.2583 29.075 12.825 28.125C13.4083 27.175 14.1667 26.475 15.1 26.025C16.05 25.575 17.1 25.35 18.25 25.35C20.2333 25.35 21.725 25.8583 22.725 26.875C23.7417 27.8917 24.25 29.2167 24.25 30.85C24.25 32.6333 23.6417 34.2917 22.425 35.825C21.2083 37.3417 19.6583 38.825 17.775 40.275H24.525V43.75H11.975V40.575ZM25.9572 29.725V25.75H32.8822V44H28.4322V29.725H25.9572Z" fill="#7500FF"/>
<path d="M37.086 41.725C37.086 41.207 37.1887 40.7543 37.394 40.367C37.5993 39.9797 37.8887 39.681 38.262 39.471C38.6307 39.2563 39.0577 39.149 39.543 39.149C40.0237 39.149 40.4507 39.2563 40.824 39.471C41.1973 39.681 41.4867 39.982 41.692 40.374C41.8973 40.7613 42 41.2117 42 41.725L42 43.566L37.086 43.566L37.086 41.725ZM40.964 41.802C40.964 41.3493 40.8403 40.997 40.593 40.745C40.3457 40.493 39.9957 40.367 39.543 40.367C39.0903 40.367 38.738 40.493 38.486 40.745C38.234 40.997 38.108 41.3493 38.108 41.802L38.108 42.369L40.964 42.369L40.964 41.802ZM41.132 35.4211L41.132 37.2551L42 37.5491L42 38.8021L37.086 37.0241L37.086 35.6381L42 33.8601L42 35.1271L41.132 35.4211ZM40.208 35.7291L38.409 36.3381L40.208 36.9401L40.208 35.7291ZM37.086 29.1049L40.376 30.8059L42 30.8059L42 32.0029L40.376 32.0029L37.086 33.7039L37.086 32.3459L39.144 31.3939L37.086 30.4489L37.086 29.1049ZM42.049 26.8446C42.049 27.204 41.9907 27.526 41.874 27.8106C41.7573 28.0953 41.5847 28.324 41.356 28.4966C41.1273 28.6646 40.852 28.7533 40.53 28.7626L40.53 27.4886C40.712 27.47 40.852 27.407 40.95 27.2996C41.0433 27.1923 41.09 27.0523 41.09 26.8796C41.09 26.7023 41.0503 26.5623 40.971 26.4596C40.887 26.357 40.7727 26.3056 40.628 26.3056C40.5067 26.3056 40.4063 26.3476 40.327 26.4316C40.2477 26.511 40.1823 26.6113 40.131 26.7326C40.0797 26.8493 40.0213 27.0173 39.956 27.2366C39.858 27.554 39.76 27.813 39.662 28.0136C39.564 28.2143 39.4193 28.387 39.228 28.5316C39.0367 28.6763 38.787 28.7486 38.479 28.7486C38.0217 28.7486 37.6647 28.583 37.408 28.2516C37.1467 27.9203 37.016 27.4886 37.016 26.9566C37.016 26.4153 37.1467 25.979 37.408 25.6476C37.6647 25.3163 38.024 25.139 38.486 25.1156L38.486 26.4106C38.3273 26.42 38.2037 26.4783 38.115 26.5856C38.0217 26.693 37.975 26.8306 37.975 26.9986C37.975 27.1433 38.0147 27.26 38.094 27.3486C38.1687 27.4373 38.2783 27.4816 38.423 27.4816C38.5817 27.4816 38.7053 27.407 38.794 27.2576C38.8827 27.1083 38.9783 26.875 39.081 26.5576C39.1883 26.2403 39.291 25.9836 39.389 25.7876C39.487 25.587 39.6293 25.4143 39.816 25.2696C40.0027 25.125 40.243 25.0526 40.537 25.0526C40.817 25.0526 41.0713 25.125 41.3 25.2696C41.5287 25.4096 41.7107 25.615 41.846 25.8856C41.9813 26.1563 42.049 26.476 42.049 26.8446Z" fill="#7500FF"/>
<path opacity="0.3" d="M9 11.2734H45V18.0009H9V11.2734Z" fill="#7700FF"/>
</g>
<defs>
<clipPath id="clip0_1655_79017">
<rect width="54" height="54" fill="white"/>
</clipPath>
</defs>
</svg>
