<svg width="54" height="54" viewBox="0 0 54 54" fill="none" xmlns="http://www.w3.org/2000/svg">
<g clip-path="url(#clip0_1630_70330)">
<path opacity="0.3" d="M16.7849 21.2812C12.7799 25.3088 12.4874 31.5863 15.8174 35.9963C19.2599 30.2812 24.2099 25.5562 30.1499 22.4963C25.0649 26.7937 21.2624 32.4862 19.1699 38.9662C20.8574 39.9338 22.7474 40.4963 24.7499 40.4963C27.7649 40.4963 30.5774 39.3263 32.7149 37.2113C36.6299 33.2963 39.0374 22.4288 40.0499 13.9688C31.5899 14.9588 20.7224 17.3663 16.7849 21.2812Z" fill="#7700FF"/>
<path d="M13.6127 18.1125C7.47023 24.255 7.47023 34.245 13.6127 40.3875C16.6952 43.47 20.7227 45 24.7502 45C28.7777 45 32.8052 43.47 35.8877 40.3875C43.7177 32.5575 45.0002 9 45.0002 9C45.0002 9 21.4427 10.2825 13.6127 18.1125ZM32.7152 37.215C30.5777 39.33 27.7652 40.5 24.7502 40.5C22.7477 40.5 20.8577 39.9375 19.1702 38.97C21.2402 32.49 25.0652 26.7975 30.1502 22.5C24.2327 25.56 19.2602 30.285 15.8177 36C12.4877 31.59 12.7802 25.3125 16.8077 21.285C20.7227 17.37 31.5902 14.9625 40.0502 13.95C39.0377 22.41 36.6302 33.2775 32.7152 37.215Z" fill="#7700FF"/>
</g>
<defs>
<clipPath id="clip0_1630_70330">
<rect width="54" height="54" fill="white"/>
</clipPath>
</defs>
</svg>
