<svg width="34" height="34" viewBox="0 0 34 34" fill="none" xmlns="http://www.w3.org/2000/svg">
<circle cx="17" cy="17" r="14.5" fill="#FFB800" stroke="#E8E8E8" stroke-width="5"/>
<path opacity="0.3" d="M13.2458 14.8984C11.7739 16.3786 11.6664 18.6857 12.8903 20.3065C14.1555 18.2061 15.9747 16.4696 18.1578 15.345C16.2889 16.9244 14.8914 19.0165 14.1224 21.3981C14.7426 21.7536 15.4372 21.9604 16.1732 21.9604C17.2812 21.9604 18.3149 21.5304 19.1005 20.7531C20.5393 19.3142 21.4241 15.3202 21.7962 12.2109C18.687 12.5748 14.693 13.4596 13.2458 14.8984Z" fill="white"/>
<path d="M12.0798 13.7319C9.82234 15.9894 9.82234 19.6609 12.0798 21.9184C13.2127 23.0513 14.6929 23.6136 16.1731 23.6136C17.6533 23.6136 19.1335 23.0513 20.2664 21.9184C23.1441 19.0407 23.6154 10.3828 23.6154 10.3828C23.6154 10.3828 14.9575 10.8542 12.0798 13.7319ZM19.1004 20.7524C18.3148 21.5297 17.2812 21.9597 16.1731 21.9597C15.4372 21.9597 14.7425 21.753 14.1223 21.3974C14.8831 19.0159 16.2889 16.9238 18.1577 15.3444C15.9829 16.469 14.1554 18.2055 12.8902 20.3059C11.6664 18.6851 11.7739 16.378 13.2541 14.8978C14.6929 13.459 18.687 12.5742 21.7962 12.202C21.4241 15.3113 20.5393 19.3053 19.1004 20.7524Z" fill="white"/>
</svg>
