<svg xmlns="http://www.w3.org/2000/svg" viewBox="0 0 365.22 351.81"><g id="f0d4fff7-7a67-47d7-94bf-82843bf4b0fe" data-name="Layer 2"><g id="f15af575-c145-4c11-a6c0-7edd1f42ad10" data-name="Layer 1"><path d="M239.26,341.64a31.29,31.29,0,0,1-.59,6.06c-.29,1.51-2,2.61-3.94,2.61a4.33,4.33,0,0,1-3.37-1.44c-9.29-11.55-25.86-19.25-44.75-19.25a62.52,62.52,0,0,0-29.15,7,52.08,52.08,0,0,0-15,12.3,4.39,4.39,0,0,1-3.34,1.39h-.58c-2,0-3.63-1.1-3.94-2.6a29.64,29.64,0,0,1-.61-4.94c-.37-10.65,4.62-20.45,13-27.89-8.42-7.44-13.41-17.25-13-27.89a29.64,29.64,0,0,1,.61-4.94c.31-1.5,2-2.61,3.94-2.61h.58a4.4,4.4,0,0,1,3.34,1.4,51.89,51.89,0,0,0,15,12.29,62.4,62.4,0,0,0,29.15,7c18.89,0,35.46-7.7,44.75-19.26a4.36,4.36,0,0,1,3.37-1.44c2,0,3.65,1.11,3.94,2.62a31.29,31.29,0,0,1,.59,6.06c0,10.25-4.9,19.6-13,26.76C234.36,322,239.26,331.39,239.26,341.64Z" fill="none" stroke="#2e2e75" stroke-miterlimit="10" stroke-width="3"/><circle cx="186.61" cy="273.68" r="19.59" fill="none" stroke="#2e2e75" stroke-miterlimit="10" stroke-width="3"/><path d="M355.05,123.56a32.08,32.08,0,0,1,6.06.58c1.5.29,2.61,2,2.61,3.94a4.36,4.36,0,0,1-1.44,3.38C350.73,140.75,343,157.31,343,176.2a62.34,62.34,0,0,0,7,29.15,51.83,51.83,0,0,0,12.3,15,4.38,4.38,0,0,1,1.39,3.33v.59c0,2-1.1,3.63-2.6,3.94a30.71,30.71,0,0,1-4.94.6c-10.65.38-20.45-4.62-27.89-13-7.44,8.42-17.25,13.42-27.89,13a30.69,30.69,0,0,1-4.95-.6c-1.49-.31-2.6-2-2.6-3.94v-.59a4.39,4.39,0,0,1,1.4-3.33,51.8,51.8,0,0,0,12.29-15,62.34,62.34,0,0,0,7-29.15c0-18.89-7.69-35.45-19.25-44.74a4.36,4.36,0,0,1-1.44-3.38c0-2,1.11-3.65,2.62-3.94a32,32,0,0,1,6.06-.58c10.24,0,19.6,4.89,26.76,13C335.44,128.45,344.8,123.56,355.05,123.56Z" fill="none" stroke="#2e2e75" stroke-miterlimit="10" stroke-width="3"/><circle cx="287.09" cy="176.2" r="19.59" fill="none" stroke="#2e2e75" stroke-miterlimit="10" stroke-width="3"/><path d="M10.18,123.56a31.93,31.93,0,0,0-6.06.58c-1.51.29-2.62,2-2.62,3.94a4.36,4.36,0,0,0,1.44,3.38c11.56,9.29,19.25,25.85,19.25,44.74a62.34,62.34,0,0,1-7,29.15,51.8,51.8,0,0,1-12.29,15,4.39,4.39,0,0,0-1.4,3.33v.59c0,2,1.1,3.63,2.6,3.94a30.69,30.69,0,0,0,5,.6c10.64.38,20.45-4.62,27.89-13,7.43,8.42,17.24,13.42,27.89,13a30.71,30.71,0,0,0,4.94-.6c1.5-.31,2.6-2,2.6-3.94v-.59a4.39,4.39,0,0,0-1.4-3.33,51.8,51.8,0,0,1-12.29-15,62.34,62.34,0,0,1-7-29.15c0-18.89,7.69-35.45,19.25-44.74a4.36,4.36,0,0,0,1.44-3.38c0-2-1.11-3.65-2.62-3.94a31.93,31.93,0,0,0-6.06-.58c-10.24,0-19.6,4.89-26.75,13C29.78,128.45,20.42,123.56,10.18,123.56Z" fill="none" stroke="#2e2e75" stroke-miterlimit="10" stroke-width="3"/><circle cx="78.13" cy="176.2" r="19.59" fill="none" stroke="#2e2e75" stroke-miterlimit="10" stroke-width="3"/><path d="M336.42,252.24a32,32,0,0,1,3.88,4.7c.86,1.27.45,3.24-.94,4.64a4.32,4.32,0,0,1-3.41,1.36c-14.74-1.6-31.89,4.68-45.25,18A62.38,62.38,0,0,0,275,306.53a51.72,51.72,0,0,0-1.92,19.31,4.38,4.38,0,0,1-1.38,3.35l-.41.41c-1.38,1.39-3.35,1.79-4.63.95a30,30,0,0,1-3.92-3.07c-7.79-7.26-11.19-17.72-10.5-28.94-11.21.7-21.68-2.71-28.94-10.5a30,30,0,0,1-3.07-3.92c-.84-1.28-.44-3.24.95-4.63l.41-.41a4.37,4.37,0,0,1,3.35-1.37,51.94,51.94,0,0,0,19.31-1.93,62.38,62.38,0,0,0,25.56-15.66c13.36-13.36,19.63-30.51,18-45.25a4.36,4.36,0,0,1,1.36-3.41c1.4-1.39,3.37-1.79,4.64-.93a31.28,31.28,0,0,1,4.7,3.87c7.25,7.24,10.4,17.32,9.75,28.09C319.1,241.84,329.18,245,336.42,252.24Z" fill="#58b84f"/><circle cx="251.14" cy="241.42" r="19.59" fill="#58b84f"/><path d="M33.92,251.66a31.28,31.28,0,0,0-3.87,4.7c-.86,1.27-.46,3.25.93,4.64a4.37,4.37,0,0,0,3.41,1.37c14.74-1.6,31.89,4.67,45.25,18A62.32,62.32,0,0,1,95.3,306a51.92,51.92,0,0,1,1.93,19.31,4.35,4.35,0,0,0,1.37,3.34L99,329c1.39,1.38,3.35,1.78,4.63.94a30.76,30.76,0,0,0,3.92-3.06c7.79-7.27,11.2-17.73,10.5-29,11.22.7,21.68-2.7,28.94-10.5a29.31,29.31,0,0,0,3.07-3.92c.84-1.28.44-3.24-.95-4.63l-.41-.41a4.41,4.41,0,0,0-3.35-1.37,51.73,51.73,0,0,1-19.31-1.93,62.36,62.36,0,0,1-25.56-15.65c-13.35-13.36-19.63-30.52-18-45.26a4.32,4.32,0,0,0-1.36-3.4c-1.4-1.39-3.37-1.8-4.64-.94a31.9,31.9,0,0,0-4.7,3.87c-7.24,7.25-10.4,17.32-9.75,28.09C51.24,241.26,41.16,244.42,33.92,251.66Z" fill="#f5841d"/><circle cx="119.2" cy="240.84" r="19.59" fill="#f5841d"/><path d="M132.08,10.18a31.13,31.13,0,0,1,.59-6.06c.29-1.51,2-2.62,3.94-2.62A4.33,4.33,0,0,1,140,2.94c9.29,11.56,25.86,19.25,44.75,19.25a62.4,62.4,0,0,0,29.15-7,51.76,51.76,0,0,0,15-12.29,4.4,4.4,0,0,1,3.34-1.4h.58c2,0,3.63,1.1,3.94,2.6a29.63,29.63,0,0,1,.61,5c.37,10.64-4.62,20.45-13,27.89,8.42,7.43,13.41,17.24,13,27.89a29.64,29.64,0,0,1-.61,4.94c-.31,1.5-2,2.6-3.94,2.6h-.58a4.4,4.4,0,0,1-3.34-1.4,51.76,51.76,0,0,0-15-12.29,62.4,62.4,0,0,0-29.15-7c-18.89,0-35.46,7.69-44.75,19.25a4.33,4.33,0,0,1-3.37,1.44c-2,0-3.65-1.11-3.94-2.62a31.13,31.13,0,0,1-.59-6.06c0-10.24,4.9-19.6,13-26.75C137,29.78,132.08,20.42,132.08,10.18Z" fill="none" stroke="#2e2e75" stroke-miterlimit="10" stroke-width="3"/><circle cx="184.73" cy="78.13" r="19.59" fill="none" stroke="#2e2e75" stroke-miterlimit="10" stroke-width="3"/><path d="M34.92,99.58a31.78,31.78,0,0,1-3.87-4.7c-.86-1.28-.46-3.25.93-4.64a4.37,4.37,0,0,1,3.41-1.37c14.74,1.6,31.89-4.67,45.25-18A62.38,62.38,0,0,0,96.3,45.28,51.92,51.92,0,0,0,98.23,26a4.35,4.35,0,0,1,1.37-3.34l.41-.42c1.39-1.38,3.35-1.78,4.63-.95a30.83,30.83,0,0,1,3.92,3.07c7.79,7.26,11.2,17.73,10.5,29,11.22-.7,21.68,2.7,28.94,10.49a30.06,30.06,0,0,1,3.07,3.93c.84,1.28.44,3.24-.95,4.62l-.41.42a4.41,4.41,0,0,1-3.35,1.37A51.93,51.93,0,0,0,127.05,76a62.49,62.49,0,0,0-25.56,15.66c-13.35,13.36-19.63,30.52-18,45.26a4.32,4.32,0,0,1-1.36,3.4c-1.4,1.39-3.37,1.8-4.64.94a31.9,31.9,0,0,1-4.7-3.87c-7.24-7.25-10.4-17.33-9.75-28.1C52.24,110,42.16,106.82,34.92,99.58Z" fill="#58b84f"/><circle cx="120.2" cy="110.4" r="19.59" fill="#58b84f"/><path d="M337.42,100.15a32,32,0,0,0,3.88-4.7c.86-1.27.45-3.24-.94-4.64A4.36,4.36,0,0,0,337,89.45c-14.74,1.6-31.89-4.67-45.25-18A62.38,62.38,0,0,1,276,45.86a51.72,51.72,0,0,1-1.92-19.31,4.38,4.38,0,0,0-1.38-3.35l-.41-.41C271,21.4,269,21,267.7,21.84a30,30,0,0,0-3.92,3.07c-7.79,7.26-11.19,17.73-10.5,28.94-11.21-.69-21.68,2.71-28.94,10.5a30,30,0,0,0-3.07,3.92c-.84,1.28-.44,3.25.95,4.63l.41.41A4.38,4.38,0,0,0,226,74.69a51.72,51.72,0,0,1,19.31,1.92,62.38,62.38,0,0,1,25.56,15.66c13.36,13.36,19.63,30.51,18,45.25a4.36,4.36,0,0,0,1.36,3.41c1.4,1.39,3.37,1.79,4.64.94a32,32,0,0,0,4.7-3.88c7.25-7.24,10.4-17.32,9.75-28.09C320.1,110.55,330.18,107.4,337.42,100.15Z" fill="#f5841d"/><circle cx="252.14" cy="110.97" r="19.59" fill="#f5841d"/></g></g></svg>