<svg width="30" height="28" viewBox="0 0 30 28" fill="none" xmlns="http://www.w3.org/2000/svg">
<g opacity="0.65">
<path d="M8.08836 15.9295C12.5554 15.9295 16.1767 12.3635 16.1767 7.96473C16.1767 3.56593 12.5554 0 8.08836 0C3.62128 0 0 3.56593 0 7.96473C0 12.3635 3.62128 15.9295 8.08836 15.9295Z" fill="#FFCC00"/>
</g>
<g opacity="0.65">
<path d="M21.9116 15.9295C26.3787 15.9295 30 12.3635 30 7.96473C30 3.56593 26.3787 0 21.9116 0C17.4445 0 13.8232 3.56593 13.8232 7.96473C13.8232 12.3635 17.4445 15.9295 21.9116 15.9295Z" fill="#006837"/>
</g>
<g opacity="0.65">
<path d="M15.3276 27.9998C19.7947 27.9998 23.416 24.4338 23.416 20.035C23.416 15.6362 19.7947 12.0703 15.3276 12.0703C10.8605 12.0703 7.23926 15.6362 7.23926 20.035C7.23926 24.4338 10.8605 27.9998 15.3276 27.9998Z" fill="#2E3192"/>
</g>
</svg>
