<svg width="478" height="458" viewBox="0 0 478 458" fill="none" xmlns="http://www.w3.org/2000/svg">
<path d="M11.4944 79.4189L6.19827 65.1479L8.54208 64.2781L5.89402 57.1426C5.04779 54.8623 4.41967 52.5816 3.99398 50.3171L1.53702 50.779C0.579416 45.6848 0.583399 40.6487 1.40748 35.8415L3.87154 36.2639C4.67728 31.5636 6.31746 27.0908 8.64597 23.0271L6.47683 21.7842C8.96935 17.4344 12.2024 13.5318 16.0127 10.2736L17.6374 12.1737C21.197 9.12987 25.2866 6.68627 29.7549 5.02025L28.8815 2.67779C33.4515 0.973839 38.399 0.033102 43.5825 0.0263538L43.5857 2.52634C45.8898 2.52336 48.2475 2.71627 50.6454 3.12355L58.1489 4.398L58.5676 1.9333L73.5747 4.48226L73.1561 6.94696L88.1632 9.4959L88.5818 7.0312L103.589 9.58016L103.17 12.0449L118.178 14.5938L118.596 12.1291L133.603 14.6781L133.185 17.1428L148.192 19.6917L148.61 17.227L163.618 19.776L163.199 22.2407L178.206 24.7896L178.625 22.3249L193.632 24.8739L193.213 27.3386L208.22 29.8875L208.639 27.4228L223.646 29.9718L223.227 32.4365L238.235 34.9854L238.653 32.5207L253.66 35.0697L253.242 37.5344L268.249 40.0833L268.668 37.6186L283.675 40.1676L283.256 42.6323L298.263 45.1812L298.682 42.7165L313.689 45.2655L313.27 47.7302L328.277 50.2791L328.696 47.8144L343.703 50.3634L343.285 52.8281L358.292 55.377L358.71 52.9123L373.717 55.4613L373.299 57.926L388.306 60.4749L388.725 58.0102L403.732 60.5592L403.313 63.0239L418.32 65.5728L418.739 63.1081L433.746 65.6571L433.327 68.1218L440.831 69.3962C443.229 69.8035 445.518 70.3999 447.692 71.1635L448.52 68.8048C453.411 70.5226 457.77 73.0441 461.521 76.1614L459.924 78.0841C463.591 81.132 466.645 84.7888 469 88.8372L471.161 87.5801C473.682 91.9137 475.445 96.6649 476.361 101.594L473.903 102.051C474.76 106.655 474.831 111.419 474.04 116.122L476.505 116.536C475.696 121.346 474.037 126.101 471.451 130.593L469.284 129.346C468.135 131.343 466.789 133.289 465.237 135.162L460.382 141.023L462.307 142.618L452.596 154.34L450.671 152.745L440.96 164.467L442.885 166.062L433.174 177.784L431.249 176.189L421.537 187.911L423.463 189.506L413.752 201.228L411.826 199.633L402.115 211.355L404.041 212.95L394.33 224.672L392.404 223.077L382.693 234.799L384.619 236.394L374.907 248.116L372.982 246.521L363.271 258.244L365.196 259.838L355.485 271.561L353.56 269.966L343.849 281.688L345.774 283.283L336.063 295.005L334.138 293.41L324.427 305.132L326.352 306.727L316.641 318.449L314.716 316.854L305.005 328.576L306.93 330.171L297.219 341.893L295.294 340.298L285.583 352.02L287.508 353.615L277.797 365.337L275.872 363.742L266.161 375.464L268.086 377.059L258.375 388.781L256.45 387.186L246.739 398.909L248.664 400.503L238.953 412.226L237.028 410.631L227.317 422.353L229.242 423.948L219.531 435.67L217.606 434.075L212.75 439.936C211.199 441.809 209.538 443.493 207.789 444.994L209.418 446.891C205.485 450.267 201.122 452.782 196.546 454.472L195.68 452.127C191.207 453.779 186.513 454.595 181.83 454.61L181.838 457.11C176.824 457.127 171.828 456.278 167.101 454.607L167.935 452.25C163.519 450.689 159.358 448.369 155.681 445.333L154.089 447.26C150.328 444.155 147.04 440.34 144.442 435.855L146.606 434.602C145.451 432.608 144.439 430.47 143.593 428.189L140.945 421.054L138.601 421.924L133.305 407.653L135.649 406.783L130.353 392.512L128.009 393.382L122.713 379.111L125.057 378.241L119.76 363.97L117.417 364.84L112.12 350.569L114.464 349.699L109.168 335.428L106.824 336.298L101.528 322.027L103.872 321.157L98.5759 306.886L96.2321 307.755L90.936 293.484L93.2798 292.615L87.9837 278.344L85.6399 279.213L80.3438 264.942L82.6876 264.073L77.3915 249.802L75.0477 250.671L69.7516 236.4L72.0954 235.53L66.7993 221.259L64.4555 222.129L59.1594 207.858L61.5032 206.988L56.2071 192.717L53.8632 193.587L48.5671 179.316L50.9109 178.446L45.6148 164.175L43.271 165.045L37.9749 150.774L40.3187 149.904L35.0226 135.633L32.6788 136.503L27.3827 122.232L29.7265 121.362L24.4304 107.091L22.0866 107.961L16.7905 93.69L19.1343 92.8202L13.8382 78.5491L11.4944 79.4189Z" stroke="#7949FF" stroke-width="5" stroke-linejoin="round" stroke-dasharray="15 15"/>
</svg>
