<svg width="202" height="208" viewBox="0 0 202 208" fill="none" xmlns="http://www.w3.org/2000/svg">
<path d="M50.9458 35.3206C51.3577 0.778455 95.7303 -13.0565 115.7 15.1308C124.631 27.7365 140.664 33.1578 155.412 28.5594C188.391 18.277 215.261 56.2026 194.624 83.9057C185.395 96.2949 185.193 113.218 194.124 125.823C214.094 154.011 186.328 191.285 153.604 180.219C138.969 175.27 122.812 180.308 113.583 192.697C92.9469 220.4 48.9167 205.511 49.3285 170.969C49.5127 155.521 39.729 141.712 25.0942 136.763C-7.63 125.698 -7.07588 79.2214 25.9029 68.939C40.6514 64.3405 50.7617 50.7683 50.9458 35.3206Z" fill="#FFEF5E"/>
</svg>
