<svg width="18" height="20" viewBox="0 0 18 20" fill="none" xmlns="http://www.w3.org/2000/svg">
<g id="&#240;&#159;&#166;&#134; emoji &#34;man playing handball medium dark&#34;">
<path id="Vector" d="M9.28368 3.86719L10.1806 5.25591L8.62443 6.10726L7.72754 4.69065L9.28368 3.86719Z" fill="#8B5C56"/>
<path id="Vector_2" d="M14.9707 4.70695L15.8755 2.45049L15.9755 2.22689C16.0445 2.05243 16.1748 1.71048 16.0905 1.51508C16.0062 1.32666 15.7379 1.13126 15.4159 1.03357C15.4159 1.03357 15.0173 0.92191 14.6723 0.991695C14.4117 1.04752 14.4577 1.31968 14.4577 1.31968C14.4577 1.31968 14.3657 1.38249 14.1357 1.53602C13.9078 1.68421 14.0073 1.95831 14.1208 2.15096L13.3169 4.15549C13.2403 4.34336 13.0615 4.4758 12.855 4.50578L12.8432 4.50749L10.1715 4.96309L10.4957 6.53891L13.1454 6.08712C13.9903 5.95997 14.6795 5.42479 14.9695 4.70973L14.9707 4.70695ZM1.8707 8.07473C2.01799 8.19588 2.18665 8.28548 2.36569 8.34278C4.90659 9.61586 8.11132 8.82157 9.57716 6.52327L8.05421 5.71823C7.0674 7.26537 4.90383 7.79852 3.19186 6.92656L2.86724 6.66508C2.59127 6.44874 2.23865 6.32313 1.8707 6.32313H0.820494C0.628851 6.31615 0.475537 6.44874 0.460205 6.61623H0.375883C0.176574 6.61623 0.0079285 6.7558 0.000262789 6.93724C-0.00740292 7.11868 0.153577 7.27221 0.360551 7.27918C0.352885 7.3071 0.34522 7.34199 0.34522 7.37688C0.34522 7.55832 0.5062 7.70487 0.705508 7.70487H1.41075L1.8707 8.07473ZM3.51807 14.3066H5.40249C5.36914 14.3661 5.35082 14.4328 5.35082 14.5019L5.36615 18.1656H3.83305L3.51807 14.3066ZM11.8819 15.9015L16.1671 15.9814L16.0215 14.7253L11.882 14.1461L11.8819 14.1454V15.9015Z" fill="#966661"/>
<path id="Vector_3" d="M8.44824 11.7263L9.68242 14.4689L11.6065 13.8757C12.0741 13.7292 12.3348 13.2686 12.1814 12.8359L11.3229 10.3516L8.44824 11.7263Z" fill="#636363"/>
<path id="Vector_4" d="M5.34277 11.7845L6.7456 13.8431C7.05223 14.3037 7.74214 14.4084 8.19442 14.0525L10.4788 12.266C10.4788 12.266 11.437 11.4565 11.391 10.7935C11.345 10.1306 11.0077 9.52344 11.0077 9.52344L7.15955 10.9401" fill="#9B9B9B"/>
<path id="Vector_5" d="M15.7454 2.81359L14.013 2.23438C14.013 2.23438 13.7293 3.00201 13.714 3.16949L15.3928 3.6859L15.7454 2.81359ZM7.53551 5.95395C7.28254 6.22611 6.12502 8.63369 7.15989 10.9436L11.2764 10.1759C11.373 10.0295 11.3067 9.93566 11.2118 9.80119C11.1486 9.71152 11.0725 9.60377 11.0234 9.45017C10.6797 8.36181 10.7147 7.43918 10.7167 7.38684L10.7168 7.38454C10.5251 7.18914 10.4025 7.35662 10.4025 7.35662L7.53551 5.95395ZM1.94727 8.15217L3.0128 6.78439C3.51107 7.02166 3.87902 7.2031 3.87136 7.2031L2.83649 8.57786C2.66784 8.52203 1.94727 8.15217 1.94727 8.15217ZM5.8338 14.021C6.1021 13.9303 6.64636 13.693 6.64636 13.693L5.34319 11.7879L4.05533 12.409C4.05533 12.409 3.65671 12.5137 3.46507 12.8626C3.13544 13.4627 3.52639 14.3699 3.52639 14.3699H5.34319C5.34319 14.3699 5.51184 14.1327 5.8338 14.021ZM12.2268 14.1886V15.9053C12.2268 15.9053 10.732 16.0728 10.3411 15.7517C10.0038 15.4796 9.89647 15.1586 9.68183 14.4677L11.7976 13.8048L11.8819 14.1467L12.2268 14.1886Z" fill="#0092E7"/>
<path id="Vector_6" d="M10.7987 6.91539C10.7823 7.07422 10.751 7.24583 10.7011 7.4309C10.3178 8.86846 7.38184 6.2934 7.38184 6.2934C7.38184 6.2934 7.60414 5.45595 8.42437 5.17681C8.75867 5.06221 9.04989 5.02089 9.29566 5.02056L11.6901 4.69531L11.9278 6.32132C11.9584 6.53765 11.8051 6.73305 11.5675 6.77492L10.7987 6.91539Z" fill="#00A6ED"/>
<path id="Vector_7" d="M14.1816 2.7914C15.0283 2.7914 15.7147 2.16652 15.7147 1.3957C15.7147 0.624875 15.0283 0 14.1816 0C13.3348 0 12.6484 0.624875 12.6484 1.3957C12.6484 2.16652 13.3348 2.7914 14.1816 2.7914Z" fill="#CDC4D6"/>
<path id="Vector_8" d="M16.578 14.2769L15.5202 14.6328L15.4512 15.9238L17.5286 17.5009C17.7662 17.6545 18.0805 17.4311 17.9809 17.1799L16.8463 14.3885C16.808 14.2908 16.6854 14.242 16.578 14.2769Z" fill="#533566"/>
<path id="Vector_9" d="M5.36587 18.8899L5.35821 17.864L3.75914 17.4453L1.65874 18.5968C1.4211 18.7503 1.54375 19.0922 1.83505 19.0922L5.1589 19.0783C5.27388 19.0783 5.36587 18.9945 5.36587 18.8899Z" fill="#533566"/>
<path id="Vector_10" d="M8.22582 1.14062H7.29827C6.51636 1.14062 5.88011 1.71984 5.88011 2.43165V2.79453C5.88011 2.90618 5.84945 3.01784 5.78045 3.11554C5.58881 3.40864 5.50449 3.43655 5.49682 3.5831C5.48149 3.80641 5.71146 3.86224 5.82645 3.87619C5.85711 3.88317 5.88011 3.90411 5.88778 3.939C5.91077 4.74153 6.07175 5.31376 7.12195 5.31376C7.76587 5.31376 8.77775 5.02067 9.06904 4.3298L9.33734 3.40166L9.64397 2.43165C9.65164 1.71984 9.00772 1.14062 8.22582 1.14062Z" fill="#966661"/>
<path id="Vector_11" d="M10.441 1.68511C10.4333 1.18266 10.1267 0.701144 9.54408 0.58251C9.44443 0.561574 9.34477 0.554596 9.24512 0.554596C9.07647 0.554596 8.90782 0.519703 8.76984 0.435961C8.67019 0.380133 8.5552 0.345241 8.42489 0.338262C8.32523 0.331284 8.23324 0.345241 8.14892 0.373155C7.91128 0.456897 7.65831 0.44294 7.43601 0.352219C7.35169 0.317327 7.2597 0.289413 7.16004 0.289413C6.92241 0.282434 6.7001 0.380133 6.56212 0.540639C6.49313 0.617402 6.39347 0.666252 6.27849 0.666252C5.8952 0.652295 5.58091 0.924456 5.57324 1.28036C5.57324 1.58043 5.81854 1.84562 6.14817 1.88749H6.17883L7.70431 1.95029C7.92661 1.95727 8.09526 2.13174 8.07993 2.33411C8.0646 2.49462 8.20258 2.63419 8.38656 2.64117L8.47855 2.64814C8.63186 2.65512 8.75451 2.77376 8.74685 2.9203L8.72385 3.46463C8.70852 3.78564 9.1378 3.96708 9.37543 3.93219C9.61307 3.90427 9.85837 3.7647 9.96569 3.62513C10.0883 3.46463 10.1957 3.20642 10.2493 3.018C10.2953 2.85052 10.3413 2.64814 10.3796 2.45275C10.4486 2.09684 10.441 1.68511 10.441 1.68511Z" fill="#2D242D"/>
<path id="Vector_12" d="M7.23227 2.36136C7.31084 2.41729 7.32494 2.52075 7.26354 2.59233C7.20237 2.66356 7.08968 2.67649 7.01103 2.62151L7.00689 2.61882C7.00252 2.61602 6.99478 2.61136 6.98413 2.60551C6.96259 2.59376 6.92939 2.57754 6.88639 2.56216C6.80046 2.53142 6.67788 2.5049 6.53032 2.52169C6.43128 2.53296 6.34097 2.46902 6.32856 2.37888C6.31621 2.28874 6.38643 2.20653 6.48547 2.19526C6.70586 2.17019 6.88984 2.20996 7.01855 2.25598C7.08286 2.27898 7.13399 2.30376 7.17002 2.32342C7.18803 2.33327 7.20237 2.3419 7.21287 2.3485C7.21808 2.3518 7.2223 2.35459 7.2256 2.35678L7.22974 2.35961L7.23127 2.36065C7.23127 2.36065 7.23188 2.36109 7.23227 2.36136Z" fill="#372128"/>
<path id="Vector_13" d="M6.24809 3.16204C6.19443 3.16204 6.14844 3.11319 6.14844 3.05736V3.05038C6.1561 2.81311 6.37841 2.6875 6.59305 2.6875C6.80769 2.6875 7.02999 2.82707 7.02233 3.06434V3.07132C7.02233 3.12715 6.97633 3.17599 6.92267 3.17599L6.24809 3.16204Z" fill="white"/>
<path id="Vector_14" d="M6.1706 3.1609C6.16294 3.126 6.15527 3.09111 6.15527 3.04924C6.15527 2.87478 6.27792 2.74219 6.43124 2.74219C6.57689 2.74219 6.69954 2.88176 6.69187 3.05622C6.69187 3.09809 6.68421 3.13298 6.66888 3.16788L6.1706 3.1609Z" fill="#7D4533"/>
<path id="Vector_15" d="M6.25527 3.16112C6.23228 3.1332 6.22461 3.09133 6.22461 3.04946C6.22461 2.95176 6.2936 2.875 6.37792 2.875C6.46225 2.875 6.53124 2.95874 6.53124 3.05644C6.53124 3.09831 6.51591 3.1332 6.49291 3.1681L6.25527 3.16112Z" fill="black"/>
<path id="Vector_16" d="M6.34366 2.93036C6.3442 2.89588 6.32066 2.8676 6.291 2.86719C6.26141 2.86678 6.23688 2.8944 6.23634 2.92887C6.23573 2.96334 6.25926 2.99162 6.28893 2.99203C6.31852 2.99244 6.34305 2.96483 6.34366 2.93036Z" fill="white"/>
<path id="Vector_17" d="M6.77051 3.92691C6.81973 3.9429 6.84533 3.99215 6.82778 4.03693C6.73387 4.27631 6.44265 4.40539 6.17795 4.31933C6.12882 4.30334 6.10321 4.25409 6.12077 4.20932C6.13832 4.16454 6.19244 4.14122 6.24158 4.1572C6.40616 4.21072 6.59029 4.13044 6.6497 3.97903C6.66726 3.93425 6.72138 3.91092 6.77051 3.92691Z" fill="#990838"/>
</g>
</svg>
