<svg width="23" height="16" viewBox="0 0 23 16" fill="none" xmlns="http://www.w3.org/2000/svg">
<g id="Layer 2">
<g id="Layer 1">
<path id="Vector" d="M0 1.06785V5.33927H23V1.06785C23 0.784641 22.8868 0.513028 22.6854 0.312767C22.484 0.112506 22.2108 0 21.926 0L1.07401 0C0.789167 0 0.515988 0.112506 0.314571 0.312767C0.113155 0.513028 0 0.784641 0 1.06785Z" fill="#FAA819"/>
<path id="Vector_2" d="M23 5.33594H0V10.6699H23V5.33594Z" fill="#E6E7E8"/>
<path id="Vector_3" d="M0 14.9355C0 15.2187 0.113155 15.4903 0.314571 15.6906C0.515988 15.8908 0.789167 16.0033 1.07401 16.0033H21.9296C22.2144 16.0033 22.4876 15.8908 22.689 15.6906C22.8904 15.4903 23.0036 15.2187 23.0036 14.9355V10.6641H0V14.9355Z" fill="#A8CE38"/>
<path id="Vector_4" d="M11.8335 8.02822C11.8342 8.10264 11.8127 8.17559 11.7716 8.23782C11.7305 8.30004 11.6718 8.34872 11.6028 8.37769C11.5339 8.40666 11.4578 8.41461 11.3843 8.40052C11.3108 8.38644 11.2432 8.35096 11.19 8.29858C11.1368 8.24621 11.1005 8.1793 11.0856 8.10636C11.0708 8.03342 11.0781 7.95773 11.1065 7.88891C11.135 7.82008 11.1834 7.76122 11.2456 7.7198C11.3078 7.67837 11.381 7.65626 11.4558 7.65625C11.5052 7.65602 11.5541 7.66546 11.5998 7.68402C11.6455 7.70259 11.6871 7.72992 11.7221 7.76446C11.7572 7.799 11.7851 7.84007 11.8042 7.88533C11.8233 7.93059 11.8333 7.97914 11.8335 8.02822Z" fill="#006BB5"/>
<path id="Vector_5" d="M11.4561 5.75C11.0025 5.75 10.5591 5.88376 10.182 6.13435C9.80486 6.38494 9.51096 6.74112 9.33746 7.15781C9.16396 7.57451 9.11866 8.033 9.20728 8.4753C9.2959 8.9176 9.51447 9.32383 9.83533 9.64261C10.1562 9.96138 10.5649 10.1784 11.0099 10.2661C11.4548 10.3539 11.9159 10.3085 12.3348 10.1357C12.7538 9.96285 13.1118 9.67035 13.3636 9.2952C13.6153 8.92004 13.7495 8.47908 13.7491 8.02809C13.7491 7.72877 13.6898 7.4324 13.5745 7.15589C13.4593 6.87938 13.2904 6.62817 13.0774 6.41661C12.8645 6.20504 12.6117 6.03728 12.3335 5.9229C12.0553 5.80852 11.7571 5.74977 11.4561 5.75ZM11.4561 10.1478C11.0345 10.1478 10.6223 10.0235 10.2717 9.79054C9.92108 9.55763 9.64783 9.22658 9.48647 8.83926C9.32511 8.45193 9.28289 8.02574 9.36515 7.61456C9.44741 7.20338 9.65046 6.82568 9.94861 6.52924C10.2468 6.2328 10.6266 6.03092 11.0402 5.94913C11.4537 5.86734 11.8824 5.90932 12.272 6.06975C12.6615 6.23018 12.9945 6.50187 13.2287 6.85045C13.463 7.19903 13.588 7.60885 13.588 8.02809C13.5883 8.30651 13.5333 8.58226 13.4262 8.83953C13.3192 9.09681 13.1621 9.33058 12.9641 9.52746C12.7661 9.72433 12.531 9.88046 12.2722 9.9869C12.0135 10.0933 11.7361 10.148 11.4561 10.1478Z" fill="#006BB5"/>
<path id="Vector_6" d="M11.4557 7.65041L11.3555 6.78545L11.4557 5.90625L11.5577 6.78545L11.4557 7.65041Z" fill="#006BB5"/>
<path id="Vector_7" d="M11.4557 10.1426L11.3555 9.27586L11.4557 8.39844L11.5577 9.27586L11.4557 10.1426Z" fill="#006BB5"/>
<path id="Vector_8" d="M11.8359 8.02332L12.7059 7.92188L13.5902 8.02332L12.7059 8.12477L11.8359 8.02332Z" fill="#006BB5"/>
<path id="Vector_9" d="M9.32617 8.02332L10.1961 7.92188L11.0804 8.02332L10.1961 8.12477L9.32617 8.02332Z" fill="#006BB5"/>
<path id="Vector_10" d="M11.6455 7.69673L11.9928 6.89762L12.5226 6.1875L12.1682 6.99729L11.6455 7.69673Z" fill="#006BB5"/>
<path id="Vector_11" d="M10.3906 9.8608L10.7379 9.06169L11.2677 8.35156L10.9151 9.16135L10.3906 9.8608Z" fill="#006BB5"/>
<path id="Vector_12" d="M11.7852 8.21094L12.5889 8.55799L13.3031 9.08302L12.4868 8.73241L11.7852 8.21094Z" fill="#006BB5"/>
<path id="Vector_13" d="M9.6123 6.96094L10.416 7.30799L11.1302 7.83302L10.314 7.48241L9.6123 6.96094Z" fill="#006BB5"/>
<path id="Vector_14" d="M11.7842 7.83302L12.4877 7.31333L13.3021 6.96094L12.5897 7.48774L11.7842 7.83302Z" fill="#006BB5"/>
<path id="Vector_15" d="M9.61035 9.08302L10.3138 8.56333L11.1301 8.21094L10.4159 8.73774L9.61035 9.08302Z" fill="#006BB5"/>
<path id="Vector_16" d="M11.6475 8.35156L12.1684 9.05279L12.5246 9.86257L11.9929 9.15245L11.6475 8.35156Z" fill="#006BB5"/>
<path id="Vector_17" d="M10.3926 6.1875L10.9135 6.88694L11.2697 7.69851L10.7381 6.98839L10.3926 6.1875Z" fill="#006BB5"/>
<path id="Vector_18" d="M11.3599 7.66021L11.0377 6.85042L10.9053 5.97656L11.2328 6.79881L11.3599 7.66021Z" fill="#006BB5"/>
<path id="Vector_19" d="M12.0076 10.0743L11.6854 9.26449L11.5547 8.39062L11.8823 9.21287L12.0076 10.0743Z" fill="#006BB5"/>
<path id="Vector_20" d="M11.8232 7.92862L12.6377 7.60826L13.5166 7.47656L12.6896 7.80226L11.8232 7.92862Z" fill="#006BB5"/>
<path id="Vector_21" d="M9.39941 8.56925L10.2139 8.24889L11.0928 8.11719L10.2658 8.44288L9.39941 8.56925Z" fill="#006BB5"/>
<path id="Vector_22" d="M11.5547 7.66021L11.6836 6.79881L12.0076 5.97656L11.8787 6.85042L11.5547 7.66021Z" fill="#006BB5"/>
<path id="Vector_23" d="M10.9053 10.0743L11.0342 9.21287L11.3599 8.39062L11.2293 9.26449L10.9053 10.0743Z" fill="#006BB5"/>
<path id="Vector_24" d="M11.8232 8.11719L12.6896 8.24533L13.5166 8.56925L12.6377 8.43932L11.8232 8.11719Z" fill="#006BB5"/>
<path id="Vector_25" d="M9.39941 7.47656L10.2658 7.60471L11.0928 7.92862L10.2139 7.7987L9.39941 7.47656Z" fill="#006BB5"/>
<path id="Vector_26" d="M11.7246 7.75503L12.2688 7.07338L12.9633 6.52344L12.412 7.21576L11.7246 7.75503Z" fill="#006BB5"/>
<path id="Vector_27" d="M9.94922 9.52243L10.4952 8.83901L11.1897 8.28906L10.6366 8.98139L9.94922 9.52243Z" fill="#006BB5"/>
<path id="Vector_28" d="M11.7246 8.28906L12.412 8.83011L12.9651 9.52243L12.2688 8.97249L11.7246 8.28906Z" fill="#006BB5"/>
<path id="Vector_29" d="M9.95117 6.52344L10.6367 7.06448L11.1917 7.75503L10.4953 7.20686L9.95117 6.52344Z" fill="#006BB5"/>
<path id="Vector_30" d="M11.2932 5.90516C11.2962 5.92783 11.2924 5.95088 11.2822 5.97139C11.272 5.9919 11.2559 6.00894 11.236 6.02037C11.2161 6.0318 11.1932 6.0371 11.1703 6.0356C11.1473 6.03411 11.1253 6.02588 11.1071 6.01196C11.0888 5.99803 11.0751 5.97905 11.0677 5.95739C11.0603 5.93574 11.0595 5.91239 11.0655 5.89029C11.0714 5.8682 11.0838 5.84835 11.1011 5.83325C11.1184 5.81816 11.1398 5.8085 11.1626 5.80549C11.1931 5.80192 11.2239 5.81034 11.2483 5.82895C11.2727 5.84756 11.2888 5.8749 11.2932 5.90516Z" fill="#006BB5"/>
<path id="Vector_31" d="M11.8501 10.1083C11.8532 10.1386 11.8446 10.1689 11.8259 10.1931C11.8073 10.2172 11.7801 10.2334 11.7498 10.2382C11.7192 10.2422 11.6882 10.234 11.6637 10.2153C11.6392 10.1966 11.6232 10.169 11.6192 10.1385C11.6151 10.1081 11.6234 10.0773 11.6422 10.0529C11.661 10.0286 11.6888 10.0126 11.7194 10.0086C11.7499 10.005 11.7807 10.0135 11.8051 10.0321C11.8295 10.0507 11.8456 10.078 11.8501 10.1083Z" fill="#006BB5"/>
<path id="Vector_32" d="M13.5848 7.86339C13.5542 7.86741 13.5232 7.85916 13.4987 7.84047C13.4742 7.82178 13.4582 7.79417 13.4541 7.76373C13.4501 7.73328 13.4584 7.70249 13.4772 7.67812C13.496 7.65376 13.5237 7.63782 13.5544 7.6338C13.5695 7.63182 13.5849 7.63282 13.5997 7.63675C13.6145 7.64069 13.6283 7.64748 13.6405 7.65673C13.6526 7.66599 13.6628 7.67753 13.6704 7.69069C13.6781 7.70386 13.683 7.7184 13.685 7.73347C13.687 7.74855 13.686 7.76386 13.6821 7.77855C13.6781 7.79324 13.6713 7.80701 13.662 7.81907C13.6527 7.83114 13.6411 7.84126 13.6278 7.84887C13.6146 7.85647 13.6 7.86141 13.5848 7.86339Z" fill="#006BB5"/>
<path id="Vector_33" d="M9.35823 8.41808C9.32761 8.42209 9.29664 8.41385 9.27214 8.39516C9.24763 8.37646 9.2316 8.34886 9.22756 8.31841C9.22353 8.28797 9.23182 8.25718 9.25062 8.23281C9.26942 8.20845 9.29718 8.19251 9.3278 8.18849C9.35842 8.18448 9.38939 8.19273 9.4139 8.21142C9.4384 8.23011 9.45444 8.25771 9.45847 8.28816C9.46251 8.3186 9.45422 8.3494 9.43542 8.37376C9.41662 8.39813 9.38885 8.41407 9.35823 8.41808Z" fill="#006BB5"/>
<path id="Vector_34" d="M12.38 6.1133C12.3678 6.14132 12.345 6.16349 12.3166 6.17512C12.2882 6.18674 12.2564 6.18692 12.2278 6.17559C12.2137 6.16975 12.2009 6.1612 12.1902 6.15044C12.1794 6.13967 12.1708 6.1269 12.165 6.11286C12.1592 6.09881 12.1562 6.08376 12.1563 6.06857C12.1563 6.05337 12.1593 6.03834 12.1652 6.02432C12.1711 6.01029 12.1797 5.99756 12.1905 5.98684C12.2013 5.97612 12.2142 5.96762 12.2283 5.96184C12.2424 5.95605 12.2576 5.95309 12.2728 5.95313C12.2881 5.95316 12.3032 5.95618 12.3174 5.96202C12.3315 5.96787 12.3443 5.97641 12.355 5.98718C12.3658 5.99794 12.3744 6.01071 12.3802 6.02476C12.386 6.03881 12.389 6.05386 12.389 6.06905C12.3889 6.08424 12.3859 6.09928 12.38 6.1133Z" fill="#006BB5"/>
<path id="Vector_35" d="M10.7404 10.0274C10.7315 10.0485 10.7166 10.0665 10.6974 10.0792C10.6782 10.0919 10.6557 10.0986 10.6327 10.0986C10.6097 10.0985 10.5872 10.0917 10.5681 10.0789C10.549 10.0662 10.5341 10.0481 10.5254 10.0269C10.5166 10.0058 10.5143 9.9825 10.5189 9.96007C10.5234 9.93763 10.5345 9.91704 10.5509 9.9009C10.5672 9.88476 10.5879 9.87378 10.6105 9.86936C10.6331 9.86495 10.6565 9.86729 10.6777 9.87609C10.692 9.88173 10.7049 9.89017 10.7159 9.9009C10.7268 9.91163 10.7354 9.92443 10.7412 9.93854C10.7471 9.95265 10.75 9.96778 10.7499 9.98304C10.7497 9.9983 10.7465 10.0134 10.7404 10.0274Z" fill="#006BB5"/>
<path id="Vector_36" d="M13.3826 8.93944C13.3684 8.93395 13.3555 8.92571 13.3445 8.91518C13.3336 8.90466 13.3248 8.89206 13.3188 8.87814C13.3128 8.86422 13.3097 8.84925 13.3096 8.83411C13.3095 8.81896 13.3124 8.80395 13.3182 8.78994C13.3301 8.76162 13.3528 8.73915 13.3813 8.72746C13.4098 8.71578 13.4419 8.71585 13.4703 8.72765C13.4986 8.73921 13.5211 8.76146 13.5328 8.7895C13.5446 8.81753 13.5446 8.84906 13.533 8.87715C13.5214 8.90523 13.499 8.92757 13.4708 8.93926C13.4426 8.95094 13.4109 8.951 13.3826 8.93944Z" fill="#006BB5"/>
<path id="Vector_37" d="M9.44269 7.32403C9.42145 7.31523 9.40331 7.30037 9.39057 7.28132C9.37782 7.26226 9.37105 7.23988 9.37109 7.217C9.37114 7.19412 9.37801 7.17177 9.39084 7.15278C9.40366 7.13378 9.42187 7.11899 9.44314 7.11028C9.46442 7.10156 9.48782 7.09932 9.51038 7.10383C9.53294 7.10834 9.55365 7.1194 9.56989 7.13562C9.58613 7.15183 9.59717 7.17247 9.60161 7.19492C9.60605 7.21736 9.6037 7.24062 9.59485 7.26174C9.58298 7.29006 9.56028 7.31254 9.53175 7.32422C9.50321 7.3359 9.47118 7.33583 9.44269 7.32403Z" fill="#006BB5"/>
<path id="Vector_38" d="M13.2179 6.82332C13.1939 6.83542 13.1665 6.8389 13.1402 6.83317C13.114 6.82744 13.0905 6.81285 13.0739 6.79189C13.0572 6.77092 13.0484 6.74487 13.0488 6.71816C13.0493 6.69145 13.0591 6.66572 13.0764 6.64535C13.1004 6.63325 13.1278 6.62977 13.1541 6.63551C13.1803 6.64124 13.2038 6.65582 13.2204 6.67678C13.2371 6.69775 13.2459 6.7238 13.2455 6.75051C13.245 6.77722 13.2352 6.80295 13.2179 6.82332Z" fill="#006BB5"/>
<path id="Vector_39" d="M9.84538 9.40984C9.82717 9.42403 9.80513 9.43251 9.78206 9.43419C9.75899 9.43586 9.73594 9.43066 9.71585 9.41925C9.69577 9.40784 9.67956 9.39073 9.6693 9.37012C9.65904 9.34951 9.65519 9.32632 9.65825 9.30352C9.6613 9.28072 9.67113 9.25935 9.68646 9.24213C9.7018 9.2249 9.72195 9.21262 9.74434 9.20684C9.76673 9.20106 9.79034 9.20204 9.81217 9.20967C9.83399 9.2173 9.85303 9.23122 9.86686 9.24966C9.87607 9.26156 9.88283 9.27516 9.88674 9.28967C9.89064 9.30417 9.89163 9.31931 9.88963 9.33419C9.88764 9.34908 9.8827 9.36343 9.8751 9.37641C9.86751 9.38939 9.85741 9.40075 9.84538 9.40984Z" fill="#006BB5"/>
<path id="Vector_40" d="M12.6625 9.77301C12.6482 9.75491 12.6397 9.73299 12.638 9.71005C12.6363 9.68711 12.6415 9.6642 12.653 9.64423C12.6645 9.62426 12.6817 9.60814 12.7024 9.59794C12.7232 9.58774 12.7465 9.58391 12.7694 9.58695C12.7924 9.58999 12.8139 9.59976 12.8312 9.61501C12.8485 9.63025 12.8608 9.65028 12.8667 9.67255C12.8725 9.69481 12.8715 9.71829 12.8638 9.73999C12.8561 9.76169 12.8421 9.78062 12.8236 9.79437C12.8116 9.80353 12.7979 9.81024 12.7834 9.81413C12.7688 9.81802 12.7535 9.819 12.7386 9.81701C12.7236 9.81503 12.7092 9.81012 12.6961 9.80256C12.6831 9.79501 12.6716 9.78497 12.6625 9.77301Z" fill="#006BB5"/>
<path id="Vector_41" d="M10.0675 6.40703C10.0543 6.39596 10.0438 6.38211 10.0367 6.36651C10.0296 6.3509 10.0261 6.33392 10.0264 6.3168C10.0267 6.29967 10.0308 6.28282 10.0385 6.26747C10.0461 6.25212 10.0571 6.23865 10.0706 6.22803C10.0841 6.21742 10.0998 6.20991 10.1166 6.20607C10.1334 6.20223 10.1508 6.20214 10.1677 6.20582C10.1845 6.20949 10.2003 6.21684 10.2139 6.22732C10.2275 6.2378 10.2387 6.25116 10.2465 6.26643C10.2647 6.29092 10.2727 6.32151 10.2687 6.35173C10.2647 6.38195 10.249 6.40944 10.225 6.42839C10.2009 6.44536 10.1712 6.4526 10.142 6.44863C10.1127 6.44467 10.0861 6.4298 10.0675 6.40703Z" fill="#006BB5"/>
<path id="Vector_42" d="M10.7401 6.02369C10.7491 6.04485 10.7516 6.0682 10.7472 6.09076C10.7428 6.11333 10.7318 6.13408 10.7155 6.15037C10.6992 6.16667 10.6784 6.17777 10.6557 6.18226C10.633 6.18675 10.6095 6.18443 10.5882 6.17559C10.5669 6.16676 10.5487 6.1518 10.5359 6.13264C10.5232 6.11347 10.5164 6.09097 10.5166 6.06799C10.5168 6.04501 10.5238 6.0226 10.5368 6.00362C10.5499 5.98464 10.5683 5.96994 10.5897 5.9614C10.618 5.95015 10.6496 5.95038 10.6777 5.96202C10.7058 5.97367 10.7282 5.99581 10.7401 6.02369Z" fill="#006BB5"/>
<path id="Vector_43" d="M12.38 9.93785C12.3919 9.96617 12.3919 9.99802 12.3802 10.0264C12.3684 10.0548 12.3458 10.0773 12.3174 10.0891C12.2889 10.1009 12.2568 10.101 12.2283 10.0893C12.1998 10.0776 12.1771 10.0552 12.1652 10.0268C12.1533 9.99851 12.1533 9.96667 12.165 9.93829C12.1768 9.90992 12.1994 9.88736 12.2279 9.87556C12.2564 9.86423 12.2882 9.86441 12.3166 9.87603C12.345 9.88766 12.3678 9.90983 12.38 9.93785Z" fill="#006BB5"/>
<path id="Vector_44" d="M13.4697 7.32403C13.4412 7.33583 13.4092 7.3359 13.3806 7.32422C13.3521 7.31254 13.3294 7.29006 13.3175 7.26174C13.3087 7.24062 13.3063 7.21736 13.3108 7.19492C13.3152 7.17247 13.3263 7.15183 13.3425 7.13562C13.3587 7.1194 13.3794 7.10834 13.402 7.10383C13.4246 7.09932 13.448 7.10156 13.4692 7.11028C13.4905 7.11899 13.5087 7.13378 13.5216 7.15278C13.5344 7.17177 13.5412 7.19412 13.5413 7.217C13.5413 7.23988 13.5346 7.26226 13.5218 7.28132C13.5091 7.30037 13.4909 7.31523 13.4697 7.32403Z" fill="#006BB5"/>
<path id="Vector_45" d="M9.53184 8.94096C9.51056 8.94992 9.48708 8.95238 9.46439 8.94802C9.4417 8.94365 9.42083 8.93267 9.40444 8.91647C9.38805 8.90027 9.37688 8.87958 9.37236 8.85705C9.36784 8.83451 9.37018 8.81115 9.37907 8.78994C9.38796 8.76873 9.403 8.75063 9.42227 8.73795C9.44155 8.72527 9.46418 8.71859 9.48729 8.71875C9.5104 8.71892 9.53294 8.72592 9.55203 8.73887C9.57113 8.75182 9.58591 8.77013 9.59449 8.79146C9.60034 8.80536 9.60335 8.82027 9.60336 8.83533C9.60337 8.85039 9.60037 8.86531 9.59455 8.87921C9.58872 8.89311 9.58018 8.90573 9.56942 8.91633C9.55865 8.92693 9.54588 8.9353 9.53184 8.94096Z" fill="#006BB5"/>
<path id="Vector_46" d="M11.8501 5.9356C11.8456 5.96586 11.8295 5.9932 11.8051 6.01181C11.7807 6.03042 11.7499 6.03883 11.7194 6.03527C11.6888 6.03126 11.661 6.01532 11.6422 5.99095C11.6234 5.96658 11.6151 5.93579 11.6192 5.90535C11.6232 5.8749 11.6392 5.8473 11.6637 5.82861C11.6882 5.80991 11.7192 5.80167 11.7498 5.80568C11.7801 5.81052 11.8073 5.82667 11.8259 5.85083C11.8446 5.87499 11.8532 5.90532 11.8501 5.9356Z" fill="#006BB5"/>
<path id="Vector_47" d="M11.2932 10.1463C11.2888 10.1766 11.2727 10.2039 11.2483 10.2225C11.2239 10.2411 11.1931 10.2496 11.1626 10.246C11.1398 10.243 11.1184 10.2333 11.1011 10.2182C11.0838 10.2031 11.0714 10.1833 11.0655 10.1612C11.0595 10.1391 11.0603 10.1157 11.0677 10.0941C11.0751 10.0724 11.0888 10.0534 11.1071 10.0395C11.1253 10.0256 11.1473 10.0174 11.1703 10.0159C11.1932 10.0144 11.2161 10.0197 11.236 10.0311C11.2559 10.0425 11.272 10.0596 11.2822 10.0801C11.2924 10.1006 11.2962 10.1236 11.2932 10.1463Z" fill="#006BB5"/>
<path id="Vector_48" d="M13.5544 8.41808C13.5237 8.41407 13.496 8.39813 13.4772 8.37376C13.4584 8.3494 13.4501 8.3186 13.4541 8.28816C13.4582 8.25771 13.4742 8.23011 13.4987 8.21142C13.5232 8.19273 13.5542 8.18448 13.5848 8.18849C13.6154 8.19251 13.6432 8.20845 13.662 8.23281C13.6808 8.25718 13.6891 8.28797 13.685 8.31841C13.681 8.34886 13.665 8.37646 13.6405 8.39516C13.616 8.41385 13.585 8.42209 13.5544 8.41808Z" fill="#006BB5"/>
<path id="Vector_49" d="M9.3278 7.86339C9.29718 7.85938 9.26942 7.84344 9.25062 7.81907C9.23182 7.79471 9.22353 7.76392 9.22756 7.73347C9.2316 7.70303 9.24763 7.67542 9.27214 7.65673C9.29664 7.63804 9.32761 7.62979 9.35823 7.63381C9.38885 7.63782 9.41662 7.65376 9.43542 7.67812C9.45422 7.70249 9.46251 7.73328 9.45847 7.76373C9.45444 7.79417 9.4384 7.82178 9.4139 7.84047C9.38939 7.85916 9.35842 7.86741 9.3278 7.86339Z" fill="#006BB5"/>
<path id="Vector_50" d="M12.8455 6.4047C12.8315 6.42289 12.8124 6.43654 12.7906 6.44393C12.7688 6.45132 12.7453 6.45211 12.7231 6.4462C12.7008 6.4403 12.6808 6.42797 12.6656 6.41076C12.6504 6.39356 12.6407 6.37226 12.6377 6.34956C12.6347 6.32686 12.6385 6.30378 12.6487 6.28325C12.6589 6.26272 12.675 6.24566 12.6949 6.23422C12.7149 6.22278 12.7378 6.21749 12.7608 6.219C12.7838 6.22052 12.8058 6.22878 12.824 6.24275C12.8363 6.25184 12.8466 6.2633 12.8544 6.27643C12.8621 6.28956 12.8672 6.30411 12.8692 6.31921C12.8712 6.33431 12.8701 6.34966 12.866 6.36434C12.862 6.37903 12.855 6.39275 12.8455 6.4047Z" fill="#006BB5"/>
<path id="Vector_51" d="M10.2513 9.77743C10.2435 9.79271 10.2324 9.80607 10.2188 9.81655C10.2052 9.82703 10.1894 9.83438 10.1726 9.83805C10.1557 9.84172 10.1383 9.84164 10.1215 9.8378C10.1047 9.83395 10.089 9.82645 10.0755 9.81583C10.062 9.80522 10.051 9.79174 10.0433 9.77639C10.0357 9.76104 10.0316 9.7442 10.0313 9.72707C10.031 9.70995 10.0345 9.69297 10.0416 9.67736C10.0487 9.66175 10.0592 9.64791 10.0723 9.63683C10.0928 9.61955 10.1187 9.60986 10.1456 9.60939C10.1724 9.60893 10.1986 9.61772 10.2197 9.63428C10.2408 9.65085 10.2555 9.67415 10.2612 9.70025C10.267 9.72634 10.2635 9.75361 10.2513 9.77743Z" fill="#006BB5"/>
<path id="Vector_52" d="M13.0764 9.40905C13.0645 9.39983 13.0545 9.38837 13.0471 9.37533C13.0397 9.36228 13.0349 9.3479 13.0331 9.33302C13.0312 9.31814 13.0324 9.30305 13.0364 9.28861C13.0405 9.27417 13.0474 9.26066 13.0567 9.24887C13.0657 9.23671 13.077 9.22648 13.0901 9.21879C13.1031 9.2111 13.1176 9.2061 13.1327 9.20411C13.1477 9.20211 13.163 9.20316 13.1776 9.20718C13.1922 9.2112 13.2059 9.21812 13.2178 9.22751C13.2331 9.23527 13.2466 9.24632 13.2571 9.25986C13.2677 9.27341 13.275 9.28912 13.2787 9.30585C13.2824 9.32258 13.2824 9.33992 13.2785 9.35661C13.2746 9.3733 13.2671 9.38893 13.2564 9.40237C13.2457 9.41581 13.2322 9.42673 13.2167 9.43433C13.2013 9.44193 13.1844 9.44603 13.1671 9.44633C13.1499 9.44662 13.1328 9.44312 13.1171 9.43605C13.1014 9.42899 13.0875 9.41855 13.0764 9.40549V9.40905Z" fill="#006BB5"/>
<path id="Vector_53" d="M9.6951 6.82429C9.67108 6.80534 9.65541 6.77785 9.65141 6.74763C9.6474 6.71741 9.65536 6.68682 9.67362 6.66233C9.6924 6.63806 9.72009 6.62218 9.75062 6.61818C9.78116 6.61418 9.81204 6.62237 9.83651 6.64097C9.84854 6.65006 9.85864 6.66142 9.86624 6.6744C9.87383 6.68739 9.87877 6.70173 9.88077 6.71662C9.88276 6.73151 9.88178 6.74664 9.87787 6.76115C9.87396 6.77566 9.8672 6.78925 9.85799 6.80115C9.83947 6.8257 9.81191 6.84192 9.78136 6.84626C9.75081 6.8506 9.71978 6.8427 9.6951 6.82429Z" fill="#006BB5"/>
</g>
</g>
</svg>
