<svg width="13" height="19" viewBox="0 0 13 19" fill="none" xmlns="http://www.w3.org/2000/svg">
<g id="&#240;&#159;&#166;&#134; emoji &#34;military medal&#34;">
<path id="Vector" d="M0.725158 0H12.2377C12.6282 0 12.9482 0.328997 12.9482 0.735404V4.47049C12.9482 4.72853 12.8138 4.97365 12.5961 5.10267L10.132 6.58638L9.08964 7.15142V7.50241H3.91036V7.14793L2.8745 6.58638L0.359313 5.10267C0.137193 4.97365 0 4.72853 0 4.47049V0.735404C0 0.328997 0.326651 0 0.725158 0Z" fill="#0074BA"/>
<path id="Vector_2" d="M2.87402 6.58638V0H4.55729L4.56376 7.50241L2.87402 6.58638Z" fill="#D3D3D3"/>
<path id="Vector_3" d="M8.44238 7.50241V0H10.1321V6.58638L8.44238 7.50241Z" fill="#D3D3D3"/>
<path id="Vector_4" d="M8.44208 0H4.55762V7.50241H8.44208V0Z" fill="#F8312F"/>
<path id="Vector_5" d="M6.5 18.065C10.0898 18.065 13 15.0931 13 11.4271C13 7.76097 10.0898 4.78906 6.5 4.78906C2.91017 4.78906 0 7.76097 0 11.4271C0 15.0931 2.91017 18.065 6.5 18.065Z" fill="#FFB02E"/>
<path id="Vector_6" d="M6.50669 17.2605C4.9788 17.2605 3.54155 16.6541 2.46683 15.551C1.38566 14.4479 0.790039 12.9835 0.790039 11.4224C0.790039 9.86129 1.38566 8.39693 2.46683 7.29383C4.69394 5.01664 8.31944 5.01664 10.553 7.29383C12.7801 9.571 12.7801 13.2738 10.553 15.551C9.46536 16.6541 8.02811 17.2605 6.50669 17.2605ZM6.50022 6.3778C5.23777 6.3778 3.96884 6.86807 3.01068 7.85506C2.07839 8.80979 1.56693 10.0742 1.56693 11.4224C1.56693 12.7707 2.07839 14.035 3.01068 14.9898C3.94295 15.9445 5.18598 16.467 6.50022 16.467C7.82094 16.467 9.05749 15.9445 9.98976 14.9898C11.9126 13.0222 11.9126 9.82258 9.98976 7.85506C9.03159 6.86807 7.76914 6.3778 6.50022 6.3778Z" fill="#FCD53F"/>
<path id="Vector_7" d="M6.89529 8.81409L7.43265 9.92364C7.49739 10.0527 7.62039 10.1494 7.76282 10.1688L8.96053 10.3494C9.31661 10.401 9.46551 10.8526 9.20008 11.1106L8.37139 11.9363C8.24838 12.0589 8.20954 12.2395 8.26133 12.4072L8.6433 13.5104C8.77279 13.8781 8.41024 14.2264 8.05416 14.0716L6.6687 13.4523C6.55864 13.4007 6.42916 13.4007 6.3191 13.4523L4.93364 14.0716C4.58404 14.2264 4.21502 13.8781 4.3445 13.5104L4.72647 12.4072C4.78474 12.2395 4.73942 12.0589 4.61641 11.9363L3.78773 11.1106C3.52876 10.8526 3.67119 10.401 4.02727 10.3494L5.22498 10.1688C5.36741 10.1494 5.49041 10.0591 5.55516 9.92364L6.09251 8.81409C6.26731 8.47864 6.73344 8.47864 6.89529 8.81409Z" fill="#6D4534"/>
</g>
</svg>
