<?xml version="1.0" encoding="utf-8"?>
<!-- Generator: Adobe Illustrator 27.5.0, SVG Export Plug-In . SVG Version: 6.00 Build 0)  -->
<svg version="1.1" xmlns="http://www.w3.org/2000/svg" xmlns:xlink="http://www.w3.org/1999/xlink" x="0px" y="0px"
	 viewBox="0 0 500 500" style="enable-background:new 0 0 500 500;" xml:space="preserve">
<g id="Background_Complete">
	<g>
		<rect y="382.399" style="fill:#EBEBEB;" width="500" height="0.25"/>
		<rect x="410.767" y="391.922" style="fill:#EBEBEB;" width="33.122" height="0.25"/>
		<rect x="131.471" y="395.306" style="fill:#EBEBEB;" width="49.862" height="0.25"/>
		<rect x="380.241" y="401.208" style="fill:#EBEBEB;" width="29.526" height="0.25"/>
		<rect x="52.459" y="399.528" style="fill:#EBEBEB;" width="21.597" height="0.25"/>
		<rect x="82.959" y="399.528" style="fill:#EBEBEB;" width="38.374" height="0.25"/>
		<rect x="237.544" y="389.209" style="fill:#EBEBEB;" width="93.676" height="0.25"/>
		<path style="fill:#EBEBEB;" d="M237.014,337.8H43.915c-3.147,0-5.708-2.56-5.708-5.708V60.661c0-3.147,2.561-5.708,5.708-5.708
			h193.099c3.146,0,5.707,2.561,5.707,5.708v271.432C242.721,335.24,240.16,337.8,237.014,337.8z M43.915,55.203
			c-3.01,0-5.458,2.448-5.458,5.458v271.432c0,3.01,2.448,5.458,5.458,5.458h193.099c3.009,0,5.457-2.448,5.457-5.458V60.661
			c0-3.009-2.448-5.458-5.457-5.458H43.915z"/>
		<path style="fill:#EBEBEB;" d="M453.31,337.8H260.212c-3.147,0-5.707-2.56-5.707-5.708V60.661c0-3.147,2.561-5.708,5.707-5.708
			H453.31c3.148,0,5.708,2.561,5.708,5.708v271.432C459.019,335.24,456.458,337.8,453.31,337.8z M260.212,55.203
			c-3.009,0-5.457,2.448-5.457,5.458v271.432c0,3.01,2.448,5.458,5.457,5.458H453.31c3.01,0,5.458-2.448,5.458-5.458V60.661
			c0-3.009-2.448-5.458-5.458-5.458H260.212z"/>
	</g>
	<g>
		<g>
			<g>
				<g>
					
						<rect x="132.948" y="213.104" transform="matrix(-1 -1.224647e-16 1.224647e-16 -1 278.9091 589.8422)" style="fill:#F0F0F0;" width="13.014" height="163.635"/>
					
						<rect x="70.439" y="376.738" transform="matrix(-1 -1.224647e-16 1.224647e-16 -1 212.9672 759.1219)" style="fill:#F0F0F0;" width="72.088" height="5.645"/>
					<rect x="67.006" y="213.104" style="fill:#FAFAFA;" width="65.942" height="163.635"/>
					<rect x="74.036" y="298.311" style="fill:#F0F0F0;" width="51.881" height="29.219"/>
					<rect x="74.036" y="336.553" style="fill:#F0F0F0;" width="51.881" height="29.219"/>
					<path style="fill:#FAFAFA;" d="M92.728,301.559h14.497c0.869,0,1.58-0.711,1.58-1.58v-0.846c0-0.869-0.711-1.581-1.58-1.581
						H92.728c-0.869,0-1.581,0.711-1.581,1.581v0.846C91.148,300.847,91.859,301.559,92.728,301.559z"/>
					<path style="fill:#FAFAFA;" d="M92.728,339.801h14.497c0.869,0,1.58-0.711,1.58-1.581v-0.846c0-0.869-0.711-1.581-1.58-1.581
						H92.728c-0.869,0-1.581,0.711-1.581,1.581v0.846C91.148,339.09,91.859,339.801,92.728,339.801z"/>
					<rect x="74.036" y="222.128" style="fill:#F0F0F0;" width="51.881" height="29.219"/>
					<rect x="74.036" y="260.068" style="fill:#F0F0F0;" width="51.881" height="29.219"/>
					<path style="fill:#FAFAFA;" d="M92.728,225.376h14.497c0.869,0,1.58-0.711,1.58-1.58v-0.846c0-0.869-0.711-1.581-1.58-1.581
						H92.728c-0.869,0-1.581,0.711-1.581,1.581v0.846C91.148,224.664,91.859,225.376,92.728,225.376z"/>
					<path style="fill:#FAFAFA;" d="M92.728,263.316h14.497c0.869,0,1.58-0.711,1.58-1.581v-0.846c0-0.869-0.711-1.581-1.58-1.581
						H92.728c-0.869,0-1.581,0.711-1.581,1.581v0.846C91.148,262.605,91.859,263.316,92.728,263.316z"/>
				</g>
			</g>
			<g>
				<g>
					
						<rect x="205.109" y="213.104" transform="matrix(-1 -1.224647e-16 1.224647e-16 -1 431.7452 589.8422)" style="fill:#F0F0F0;" width="21.527" height="163.635"/>
					
						<rect x="142.601" y="376.738" transform="matrix(-1 -1.224647e-16 1.224647e-16 -1 365.2406 759.1219)" style="fill:#F0F0F0;" width="80.039" height="5.645"/>
					<rect x="139.167" y="213.104" style="fill:#FAFAFA;" width="65.942" height="163.635"/>
					<rect x="146.198" y="298.311" style="fill:#F0F0F0;" width="51.881" height="29.219"/>
					<rect x="146.198" y="336.553" style="fill:#F0F0F0;" width="51.881" height="29.219"/>
					<path style="fill:#FAFAFA;" d="M164.89,301.559h14.497c0.869,0,1.581-0.711,1.581-1.58v-0.846c0-0.869-0.711-1.581-1.581-1.581
						H164.89c-0.869,0-1.58,0.711-1.58,1.581v0.846C163.309,300.847,164.02,301.559,164.89,301.559z"/>
					<path style="fill:#FAFAFA;" d="M164.89,339.801h14.497c0.869,0,1.581-0.711,1.581-1.581v-0.846
						c0-0.869-0.711-1.581-1.581-1.581H164.89c-0.869,0-1.58,0.711-1.58,1.581v0.846C163.309,339.09,164.02,339.801,164.89,339.801z
						"/>
					<rect x="146.198" y="222.128" style="fill:#F0F0F0;" width="51.881" height="29.219"/>
					<rect x="146.198" y="260.068" style="fill:#F0F0F0;" width="51.881" height="29.219"/>
					<path style="fill:#FAFAFA;" d="M164.89,225.376h14.497c0.869,0,1.581-0.711,1.581-1.58v-0.846c0-0.869-0.711-1.581-1.581-1.581
						H164.89c-0.869,0-1.58,0.711-1.58,1.581v0.846C163.309,224.664,164.02,225.376,164.89,225.376z"/>
					<path style="fill:#FAFAFA;" d="M164.89,263.316h14.497c0.869,0,1.581-0.711,1.581-1.581v-0.846
						c0-0.869-0.711-1.581-1.581-1.581H164.89c-0.869,0-1.58,0.711-1.58,1.581v0.846C163.309,262.605,164.02,263.316,164.89,263.316
						z"/>
				</g>
			</g>
		</g>
		<g>
			
				<rect x="65.014" y="90.113" transform="matrix(-1 -1.224647e-16 1.224647e-16 -1 299.197 250.8875)" style="fill:#E6E6E6;" width="169.169" height="70.661"/>
			
				<rect x="57.74" y="90.113" transform="matrix(-1 -1.224647e-16 1.224647e-16 -1 289.9897 250.8875)" style="fill:#F0F0F0;" width="174.51" height="70.661"/>
			
				<rect x="118.884" y="47.408" transform="matrix(-1.836970e-16 1 -1 -1.836970e-16 270.4387 -19.5511)" style="fill:#FAFAFA;" width="52.223" height="156.071"/>
			<polygon style="fill:#FFFFFF;" points="146.59,151.556 131.09,99.333 110.18,99.333 125.68,151.556 			"/>
			<polygon style="fill:#FFFFFF;" points="203.862,151.556 188.362,99.333 167.452,99.333 182.952,151.556 			"/>
			<polygon style="fill:#FFFFFF;" points="121.727,151.556 106.228,99.333 85.318,99.333 100.818,151.556 			"/>
		</g>
		<g>
			<rect x="289.483" y="70.883" style="fill:#EBEBEB;" width="93.216" height="146.772"/>
			
				<rect x="269.304" y="104.258" transform="matrix(-1.836970e-16 1 -1 -1.836970e-16 480.3599 -191.8231)" style="fill:#FAFAFA;" width="133.576" height="80.02"/>
			<g>
				<polygon style="fill:#E0E0E0;" points="333.608,211.056 330.92,211.056 338.575,77.347 341.263,77.347 				"/>
				<polygon style="fill:#E0E0E0;" points="338.619,107.32 338.619,111.176 376.102,101.296 376.102,99.937 				"/>
				<polygon style="fill:#E0E0E0;" points="336.091,151.14 336.091,154.996 376.102,139.161 376.102,137.802 				"/>
				<polygon style="fill:#E0E0E0;" points="332.632,196.378 332.632,201.7 376.102,177.65 376.102,176.291 				"/>
				<polygon style="fill:#E0E0E0;" points="337.086,127.069 337.086,130.925 297.076,115.091 297.076,113.731 				"/>
				<polygon style="fill:#E0E0E0;" points="333.854,173.63 333.854,178.952 297.076,159.322 297.076,157.963 				"/>
			</g>
			
				<rect x="229.791" y="143.771" transform="matrix(-1.836970e-16 1 -1 -1.836970e-16 440.847 -152.3102)" style="fill:#E0E0E0;" width="133.576" height="0.994"/>
			
				<rect x="382.699" y="70.883" transform="matrix(-1 -1.224647e-16 1.224647e-16 -1 768.4662 288.5371)" style="fill:#E0E0E0;" width="3.067" height="146.772"/>
		</g>
		<g>
			<g>
				<path style="fill:#E0E0E0;" d="M419.347,206.879c0-6.085,2.363-15.211,2.363-15.211h-9.348h-9.348c0,0,2.363,9.127,2.363,15.211
					c0,6.085-7.396,17.009-7.396,25.721c0,8.712,7.46,19.566,7.46,19.566h6.921h6.921c0,0,7.46-10.854,7.46-19.566
					C426.743,223.888,419.347,212.963,419.347,206.879z"/>
				<path style="fill:#F0F0F0;" d="M431.342,215.417c0-4.937,0.895-12.344,0.895-12.344h-3.541h-3.541c0,0,0.895,7.406,0.895,12.344
					c0,4.938-2.802,13.802-2.802,20.872c0,7.069,2.826,15.877,2.826,15.877h2.622h2.622c0,0,2.826-8.807,2.826-15.877
					C434.144,229.219,431.342,220.354,431.342,215.417z"/>
			</g>
			<g>
				<g>
					<g>
						
							<rect x="258.354" y="252.166" transform="matrix(-1 -1.224647e-16 1.224647e-16 -1 527.3376 634.5628)" style="fill:#E6E6E6;" width="10.629" height="130.232"/>
						
							<rect x="255.509" y="252.166" transform="matrix(-1 -1.224647e-16 1.224647e-16 -1 517.2794 634.5628)" style="fill:#F0F0F0;" width="6.261" height="130.232"/>
						<rect x="253.57" y="252.167" style="fill:#F0F0F0;" width="150.957" height="6.668"/>
						
							<rect x="455.78" y="252.166" transform="matrix(-1 -1.224647e-16 1.224647e-16 -1 922.189 634.5628)" style="fill:#E6E6E6;" width="10.629" height="130.232"/>
						
							<rect x="453.787" y="252.166" transform="matrix(-1 -1.224647e-16 1.224647e-16 -1 913.8348 634.5628)" style="fill:#F0F0F0;" width="6.261" height="130.232"/>
						<rect x="409.075" y="252.167" style="fill:#E6E6E6;" width="59.234" height="6.668"/>
						
							<rect x="405.432" y="252.166" transform="matrix(-1 -1.224647e-16 1.224647e-16 -1 821.4942 634.5628)" style="fill:#E6E6E6;" width="10.629" height="130.232"/>
						
							<rect x="402.588" y="252.166" transform="matrix(-1 -1.224647e-16 1.224647e-16 -1 811.4361 634.5628)" style="fill:#F0F0F0;" width="6.261" height="130.232"/>
					</g>
				</g>
				<g>
					<polygon style="fill:#FAFAFA;" points="257.357,252.166 329.048,295.223 400.74,252.166 					"/>
					<polygon style="fill:#EBEBEB;" points="264.048,252.166 329.048,291.204 394.048,252.166 					"/>
				</g>
				<g>
					<polygon style="fill:#FAFAFA;" points="414.186,252.166 439.963,291.204 465.74,252.166 					"/>
					<polygon style="fill:#EBEBEB;" points="417.259,252.166 440.63,287.185 464.001,252.166 					"/>
				</g>
			</g>
		</g>
	</g>
</g>
<g id="Background_Simple" style="display:none;">
	<g style="display:inline;">
		<path style="fill:#407BFF;" d="M315.496,166.694c34.96,1.821,77.654,6.58,82.267,56.305c3.742,40.332-36.019,69.922-66.922,79.132
			c-35.587,10.605-64.242-15.83-99.891-19.387c-36.314-3.624-55.126,43.886-90.097,38.014
			c-34.017-5.712-53.842-58.037-54.689-90.036c-1.038-39.227,22.041-71.142,45.975-94.937
			c25.507-25.358,58.936-44.521,97.115-26.658C264.622,125.674,274.046,164.535,315.496,166.694z"/>
		<path style="opacity:0.9;fill:#FFFFFF;" d="M315.496,166.694c34.96,1.821,77.654,6.58,82.267,56.305
			c3.742,40.332-36.019,69.922-66.922,79.132c-35.587,10.605-64.242-15.83-99.891-19.387c-36.314-3.624-55.126,43.886-90.097,38.014
			c-34.017-5.712-53.842-58.037-54.689-90.036c-1.038-39.227,22.041-71.142,45.975-94.937
			c25.507-25.358,58.936-44.521,97.115-26.658C264.622,125.674,274.046,164.535,315.496,166.694z"/>
	</g>
</g>
<g id="Shadow_1_">
	<ellipse id="_x3C_Path_x3E__184_" style="fill:#F5F5F5;" cx="250" cy="416.238" rx="193.889" ry="11.323"/>
</g>
<g id="Character_1_">
	<g>
		<polygon style="fill:#FFB573;" points="201.775,407.025 193.735,404.384 197.711,385.064 205.751,387.705 		"/>
		<polygon style="fill:#FFB573;" points="271.706,407.124 263.244,407.124 261.137,387.527 269.599,387.527 		"/>
		<path style="fill:#263238;" d="M262.548,406.144l10.316,0c0.346,0,0.646,0.24,0.72,0.578l1.672,7.522
			c0.173,0.78-0.44,1.518-1.239,1.505c-3.319-0.057-5.741-0.252-9.922-0.252c-2.572,0-10.328,0.267-13.88,0.267
			c-3.474,0-4.016-3.512-2.562-3.83c6.52-1.426,11.433-3.393,13.52-5.27C261.551,406.326,262.042,406.144,262.548,406.144z"/>
		<path style="fill:#263238;" d="M193.879,403.109l8.909,2.455c0.333,0.092,0.558,0.403,0.541,0.749l-0.387,7.695
			c-0.04,0.798-0.807,1.353-1.574,1.128c-3.199-0.94-7.79-2.408-11.83-3.522c-4.723-1.302-5.601-1.751-11.14-3.277
			c-3.349-0.923-3.345-4.565-1.859-4.485c6.767,0.363,8.747,1.232,15.199-0.648C192.44,402.999,193.175,402.915,193.879,403.109z"/>
		<path style="fill:#FFB573;" d="M235.563,150.026c-0.539,0.705-0.957,1.224-1.435,1.81c-0.461,0.572-0.941,1.118-1.42,1.663
			c-0.961,1.088-1.943,2.15-2.949,3.193c-2.001,2.096-4.141,4.071-6.397,5.961c-4.544,3.729-9.565,7.181-15.749,9.363
			c-1.541,0.539-3.166,0.969-4.868,1.251c-0.427,0.067-0.85,0.14-1.281,0.195l-1.315,0.117c-0.361,0.046-1.047,0.051-1.656,0.036
			c-0.564-0.039-1.138-0.088-1.634-0.176c-2.022-0.341-3.609-0.963-5.096-1.598c-1.479-0.643-2.824-1.361-4.103-2.13
			c-2.562-1.518-4.888-3.194-7.107-4.967c-2.228-1.78-4.291-3.626-6.314-5.702l3.835-5.065c4.696,2.336,9.503,4.792,14.103,6.566
			c1.15,0.428,2.281,0.822,3.344,1.118c1.053,0.298,2.08,0.455,2.747,0.469c0.174,0.01,0.28-0.019,0.391-0.022
			c0.068-0.035,0.061-0.024,0.371-0.082l0.703-0.117l0.717-0.173c0.475-0.091,0.969-0.292,1.453-0.425
			c0.493-0.2,0.979-0.349,1.477-0.58c1.986-0.823,3.988-1.973,5.934-3.329c1.965-1.321,3.87-2.863,5.727-4.497
			c1.866-1.627,3.659-3.391,5.422-5.192c0.877-0.905,1.738-1.831,2.572-2.772l1.237-1.411l1.136-1.338L235.563,150.026z"/>
		<g>
			<path style="fill:#FFFFFF;" d="M240.206,145.835c0.628,8.066-17.537,24.526-17.537,24.526l-16.056-13.926
				c0,0,6.762-7.159,14.355-14.362C226.192,137.118,239.527,137.11,240.206,145.835z"/>
			<path style="opacity:0.4;fill:#407BFF;" d="M240.206,145.835c0.628,8.066-17.537,24.526-17.537,24.526l-16.056-13.926
				c0,0,6.762-7.159,14.355-14.362C226.192,137.118,239.527,137.11,240.206,145.835z"/>
			<path style="opacity:0.2;" d="M232.024,149.981c-7.468,0.678-12.236,6.683-14.323,13.311c-0.226,0.742-0.43,1.496-0.592,2.249
				l5.563,4.82c0,0,8.265-7.49,13.451-14.839C236.382,152.048,235.392,149.68,232.024,149.981z"/>
		</g>
		<path style="fill:#FFB573;" d="M180.027,157.539l-2.747-6.98l-9.383,2.88c0,0,3.186,3.453,6.722,5.851L180.027,157.539z"/>
		<polygon style="fill:#FFB573;" points="172.546,145.106 164.811,148.208 167.898,153.439 177.281,150.559 		"/>
		<g>
			<polygon style="opacity:0.2;" points="197.712,385.07 195.323,396.667 203.482,398.748 205.755,387.712 			"/>
			<polygon style="opacity:0.2;" points="269.602,387.533 261.136,387.533 262.226,397.634 270.692,397.634 			"/>
		</g>
		<g>
			<path style="fill:#FFFFFF;" d="M274.595,141.932c-2.61,9.35-4.278,18.873-5.377,27.835c-0.8,6.557-1.281,12.815-1.579,18.49
				c-0.703,13.301-0.411,23.442-0.806,26.878c-6.617-0.459-31.553-2.193-45.149-3.145c-6.149-48.135,5.592-72.935,5.592-72.935
				s4.998-0.997,10.807-1.336c0.765-0.049,1.543-0.076,2.333-0.092c5.114-0.108,13.45,0.659,19.196,1.336
				c1.208,0.144,2.43,0.321,3.618,0.512C269.275,140.459,274.595,141.932,274.595,141.932z"/>
			<path style="opacity:0.4;fill:#407BFF;" d="M274.595,141.932c-2.61,9.35-4.278,18.873-5.377,27.835
				c-0.8,6.557-1.281,12.815-1.579,18.49c-0.703,13.301-0.411,23.442-0.806,26.878c-6.617-0.459-31.553-2.193-45.149-3.145
				c-6.149-48.135,5.592-72.935,5.592-72.935s4.998-0.997,10.807-1.336c0.765-0.049,1.543-0.076,2.333-0.092
				c5.114-0.108,13.45,0.659,19.196,1.336c1.208,0.144,2.43,0.321,3.618,0.512C269.275,140.459,274.595,141.932,274.595,141.932z"/>
		</g>
		<path style="opacity:0.2;" d="M263.194,154.11c-0.025,7.566,2.063,13.961,5.589,19.565c0.126-1.289,0.275-2.59,0.435-3.904
			c0.602-4.927,1.379-10.028,2.41-15.18L263.194,154.11z"/>
		<path style="fill:#FFB573;" d="M259.216,117.219c-1.642,6.091-3.64,17.322,0.393,21.744c-3.396,3.041-8.281,5.489-15.208,4.855
			c-5.305-0.486-5.313-4.219-3.985-6.194c7.001-1.164,7.18-6.286,6.315-11.168L259.216,117.219z"/>
		<path style="opacity:0.2;" d="M254.126,120.988l-7.389,5.463c0.209,1.156,0.352,2.323,0.354,3.448
			c2.657-0.197,6.473-2.832,6.944-5.567C254.271,122.968,254.305,121.644,254.126,120.988z"/>
		<path style="fill:#263238;" d="M245.798,108.113c-2.005,2.827-7.244-2.38-7.053-7.057c7.607-1.007,3.976-6.563,10.904-5.139
			C255.388,97.097,247.993,105.019,245.798,108.113z"/>
		<path style="fill:#FFB573;" d="M264.744,109.942c-2.545,8.003-3.628,12.817-8.784,15.956c-7.755,4.722-16.852-1.526-16.75-10.129
			c0.092-7.743,4.239-19.53,13.01-20.762C260.862,93.793,267.289,101.939,264.744,109.942z"/>
		<path style="fill:#263238;" d="M259.938,117.219c0,0-0.705-3.582-0.329-6.006c0.356-2.299,1.47-4.535,1.47-4.535
			s-4.785-2.83-4.895-6.241c0,0-8.567,2.528-13.132-1.323c-4.565-3.85-0.49-8.306-2.83-10.011c5.595-0.547,7.299,2.86,10.837,2.118
			c3.407-0.715,0.409-3.231,0.88-5.968c10.671,9.192,15.315,4.877,20.49,10.136c3.307,3.361-0.168,9.666-0.168,9.666
			S277.54,114.036,259.938,117.219z"/>
		<path style="fill:#263238;" d="M270.561,104.852c0,0,5.24,1.076,5.381-4.408C278.644,106.031,275.264,106.868,270.561,104.852z"/>
		<path style="fill:#263238;" d="M246.918,117.573c0.001,0,0.003,0.001,0.004,0.001c3.359,0.823,5.462-1.103,5.549-1.185
			c0.087-0.081,0.091-0.218,0.01-0.305c-0.081-0.087-0.218-0.092-0.305-0.01c-0.02,0.019-2.028,1.846-5.152,1.081
			c-0.116-0.028-0.233,0.042-0.261,0.158C246.736,117.427,246.805,117.542,246.918,117.573z"/>
		<path style="fill:#FFB573;" d="M266.16,118.781c-1.624,1.579-3.825,2.26-5.685,2.204c-2.798-0.084-3.366-2.788-1.892-4.993
			c1.326-1.985,4.38-4.333,6.854-3.176C267.873,113.955,268.016,116.976,266.16,118.781z"/>
		<g>
			<path style="fill:#407BFF;" d="M193.079,392.5l13.815,3.801c0,0,17.299-54.535,21.55-84.485
				c1.127-7.942,2.866-19.108,5.521-31.01c3.352-14.996,7.556-31.211,10.999-43.908c3.632-13.373,6.397-22.839,6.397-22.839
				l-29.682-2.069c0,0-12.15,66.485-14.985,92.155C203.742,330.836,193.079,392.5,193.079,392.5z"/>
			<path style="opacity:0.3;" d="M193.079,392.5l13.815,3.801c0,0,17.299-54.535,21.55-84.485c1.127-7.942,2.866-19.108,5.521-31.01
				c3.352-14.996,7.556-31.211,10.999-43.908c3.632-13.373,6.397-22.839,6.397-22.839l-29.682-2.069c0,0-12.15,66.485-14.985,92.155
				C203.742,330.836,193.079,392.5,193.079,392.5z"/>
		</g>
		<path style="opacity:0.2;" d="M233.965,280.806c3.352-14.996,7.556-31.211,10.999-43.908l-3.08-6.633
			C234.521,239.013,232.54,266.094,233.965,280.806z"/>
		<g>
			<path style="fill:#407BFF;" d="M237.693,213.107c0,0,3.203,72.446,6.776,96.982c3.912,26.868,13.847,85.59,13.847,85.59h15.499
				c0,0-5.128-61.791-7.393-88.168c-2.58-30.045,0.405-92.37,0.405-92.37L237.693,213.107z"/>
			<path style="opacity:0.3;" d="M237.693,213.107c0,0,3.203,72.446,6.776,96.982c3.912,26.868,13.847,85.59,13.847,85.59h15.499
				c0,0-5.128-61.791-7.393-88.168c-2.58-30.045,0.405-92.37,0.405-92.37L237.693,213.107z"/>
		</g>
		<polygon style="fill:#407BFF;" points="256.461,396.013 274.711,396.013 274.711,390.561 254.31,390.206 		"/>
		<polygon style="fill:#407BFF;" points="192.124,392.583 207.716,396.88 209.964,391.507 192.188,386.579 		"/>
		<path style="fill:#263238;" d="M251.842,109.111c-0.167,0.662-0.652,1.11-1.085,1.001c-0.433-0.109-0.648-0.734-0.482-1.396
			c0.167-0.662,0.652-1.11,1.085-1.001C251.793,107.824,252.008,108.449,251.842,109.111z"/>
		<path style="fill:#263238;" d="M244.36,107.228c-0.167,0.662-0.652,1.11-1.085,1.001c-0.433-0.109-0.648-0.734-0.482-1.396
			c0.167-0.662,0.652-1.11,1.085-1.001C244.311,105.941,244.527,106.566,244.36,107.228z"/>
		<path style="fill:#ED893E;" d="M246.656,108.156c0,0-2.466,3.44-4.587,4.865c0.896,1.388,3.144,1.245,3.144,1.245L246.656,108.156
			z"/>
		<path style="fill:#263238;" d="M254.774,107.277c-0.146-0.01-0.281-0.1-0.342-0.244c-0.698-1.646-2.149-1.922-2.164-1.925
			c-0.218-0.039-0.363-0.247-0.324-0.465c0.039-0.217,0.238-0.367,0.465-0.324c0.077,0.014,1.895,0.359,2.761,2.401
			c0.087,0.204-0.009,0.439-0.213,0.525C254.897,107.271,254.835,107.281,254.774,107.277z"/>
		<path style="fill:#263238;" d="M241.802,103.845c-0.081-0.006-0.162-0.036-0.229-0.093c-0.17-0.142-0.192-0.395-0.049-0.564
			c1.426-1.698,3.265-1.499,3.344-1.486c0.22,0.027,0.376,0.227,0.349,0.446c-0.027,0.219-0.237,0.375-0.444,0.35l0,0
			c-0.063-0.003-1.495-0.152-2.635,1.205C242.051,103.805,241.926,103.854,241.802,103.845z"/>
		<path style="fill:#407BFF;" d="M259.75,407.622c-0.644,0-1.246-0.109-1.63-0.431c-0.303-0.255-0.442-0.611-0.415-1.059
			c0.021-0.333,0.198-0.492,0.344-0.567c0.94-0.483,3.666,1.197,3.974,1.389c0.069,0.043,0.105,0.122,0.092,0.202
			c-0.013,0.079-0.073,0.143-0.151,0.163C261.377,407.46,260.533,407.622,259.75,407.622z M258.493,405.871
			c-0.105,0-0.193,0.016-0.26,0.05c-0.054,0.028-0.117,0.079-0.126,0.235c-0.02,0.319,0.069,0.557,0.272,0.728
			c0.463,0.388,1.568,0.442,3.005,0.152C260.428,406.484,259.142,405.871,258.493,405.871z"/>
		<path style="fill:#407BFF;" d="M261.917,407.324c-0.033,0-0.066-0.008-0.096-0.024c-0.876-0.476-2.569-2.33-2.39-3.273
			c0.032-0.171,0.159-0.467,0.638-0.526c0.309-0.037,0.598,0.048,0.854,0.258c0.983,0.804,1.185,3.245,1.193,3.349
			c0.006,0.074-0.029,0.144-0.091,0.184C261.993,407.313,261.955,407.324,261.917,407.324z M260.209,403.894
			c-0.03,0-0.06,0.002-0.091,0.006c-0.26,0.032-0.283,0.151-0.293,0.202c-0.106,0.557,0.973,1.958,1.843,2.619
			c-0.099-0.713-0.369-2.137-0.999-2.652C260.525,403.952,260.374,403.894,260.209,403.894z"/>
		<path style="fill:#407BFF;" d="M192.774,404.014c-0.012,0.001-0.024,0.002-0.036,0.001c-1.387-0.101-3.814-0.425-4.489-1.463
			c-0.204-0.313-0.238-0.663-0.103-1.039c0.081-0.225,0.24-0.372,0.461-0.426c1.134-0.266,3.964,2.288,4.281,2.581
			c0.063,0.058,0.082,0.149,0.048,0.227C192.907,403.962,192.844,404.006,192.774,404.014z M188.758,401.467
			c-0.02,0.002-0.038,0.005-0.056,0.009c-0.09,0.022-0.143,0.074-0.179,0.173c-0.092,0.256-0.072,0.48,0.061,0.685
			c0.379,0.582,1.7,1.031,3.584,1.228C191.032,402.578,189.418,401.395,188.758,401.467z"/>
		<path style="fill:#407BFF;" d="M192.617,403.956c-0.008-0.009-0.016-0.018-0.023-0.028c-0.764-1.161-1.985-3.284-1.573-4.452
			c0.124-0.352,0.381-0.593,0.762-0.715c0.227-0.073,0.442-0.036,0.619,0.106c0.901,0.738,0.598,4.537,0.559,4.968
			c-0.008,0.085-0.068,0.155-0.151,0.176C192.74,404.03,192.666,404.007,192.617,403.956z M192.193,399.219
			c-0.014-0.014-0.028-0.027-0.042-0.039c-0.072-0.058-0.146-0.069-0.246-0.036c-0.259,0.083-0.425,0.235-0.506,0.466
			c-0.231,0.655,0.217,1.976,1.208,3.591C192.696,401.7,192.652,399.699,192.193,399.219z"/>
		<g>
			<path style="fill:#FFB573;" d="M275.854,146.802c1.95,2.748,3.606,5.411,5.305,8.178c1.688,2.745,3.249,5.571,4.77,8.437
				c2.981,5.771,5.722,11.724,7.639,18.367c0.229,0.839,0.454,1.68,0.648,2.55c0.105,0.426,0.197,0.866,0.281,1.312l0.13,0.664
				l0.066,0.343l0.082,0.536c0.331,2.815-0.117,4.885-0.609,6.775c-1.04,3.729-2.551,6.758-4.173,9.688
				c-1.63,2.909-3.412,5.635-5.31,8.256c-1.902,2.632-3.865,5.121-6.069,7.572l-5.201-3.649c2.707-5.433,5.467-11,7.586-16.46
				c0.535-1.362,1.006-2.724,1.413-4.051c0.415-1.32,0.746-2.625,0.922-3.795c0.183-1.148,0.164-2.234,0.031-2.519
				c-0.008-0.014-0.014-0.027-0.018-0.041l-0.063-0.229l-0.13-0.478c-0.082-0.317-0.172-0.637-0.278-0.963
				c-0.19-0.644-0.417-1.298-0.645-1.953c-1.892-5.268-4.617-10.618-7.544-15.841c-1.455-2.627-3.019-5.211-4.573-7.807
				c-1.552-2.568-3.242-5.181-4.809-7.597L275.854,146.802z"/>
			<g>
				<path style="fill:#FFFFFF;" d="M274.595,141.932c7.931,1.6,14.888,20.998,14.888,20.998l-16.552,13.483
					c0,0-5.424-9.86-9.762-19.374C258.444,146.676,264.988,139.994,274.595,141.932z"/>
				<path style="opacity:0.4;fill:#407BFF;" d="M274.595,141.932c7.931,1.6,14.888,20.998,14.888,20.998l-16.552,13.483
					c0,0-5.424-9.86-9.762-19.374C258.444,146.676,264.988,139.994,274.595,141.932z"/>
			</g>
		</g>
		<g>
			
				<rect x="154.895" y="176.246" transform="matrix(0.2672 -0.9636 0.9636 0.2672 -51.3301 285.9793)" style="fill:#407BFF;" width="14.961" height="0.99"/>
			
				<rect x="154.808" y="191.891" transform="matrix(0.2672 -0.9636 0.9636 0.2672 -69.5821 293.2669)" style="fill:#407BFF;" width="6.47" height="0.99"/>
			<path style="fill:#407BFF;" d="M241.816,268.705l-83.134-23.022c-6.292-1.742-10.014-8.315-8.271-14.607l23.022-83.134
				c1.742-6.292,8.316-10.014,14.607-8.271l83.134,23.022c6.292,1.742,10.014,8.315,8.271,14.607l-23.022,83.134
				C254.68,266.725,248.107,270.447,241.816,268.705z"/>
			<g>
				<g>
					<path style="fill:#FFFFFF;" d="M221.554,185.215c-0.437,0-0.881-0.058-1.323-0.181c-2.632-0.729-4.175-3.454-3.446-6.086
						l3.989-14.405c0.729-2.633,3.455-4.176,6.086-3.446c2.632,0.729,4.175,3.454,3.446,6.086l-3.989,14.405
						C225.711,183.779,223.722,185.215,221.554,185.215z"/>
					<path style="fill:#FFFFFF;" d="M204.316,245.481c-0.262,0-0.528-0.035-0.794-0.108c-1.579-0.438-2.505-2.072-2.068-3.652
						l3.989-14.405c0.438-1.579,2.071-2.503,3.652-2.068c1.58,0.438,2.505,2.072,2.068,3.652l-3.989,14.405
						C206.81,244.619,205.617,245.481,204.316,245.481z"/>
				</g>
				<g>
					<path style="fill:#FFFFFF;" d="M236.526,193.442c-0.517,0-1.02-0.271-1.292-0.753c-0.404-0.713-0.153-1.618,0.56-2.022
						l13.006-7.365c0.713-0.404,1.618-0.153,2.022,0.56c0.404,0.713,0.153,1.618-0.56,2.022l-13.006,7.365
						C237.025,193.38,236.774,193.442,236.526,193.442z"/>
					<path style="fill:#FFFFFF;" d="M180.327,227.245c-1.207,0-2.379-0.631-3.016-1.756c-0.942-1.664-0.357-3.776,1.307-4.719
						l13.006-7.365c1.665-0.942,3.776-0.357,4.719,1.307c0.942,1.664,0.357,3.776-1.307,4.719l-13.006,7.365
						C181.491,227.101,180.905,227.245,180.327,227.245z"/>
				</g>
				<g>
					<path style="fill:#FFFFFF;" d="M253.253,216.78c-0.175,0-0.353-0.023-0.529-0.072l-14.405-3.989
						c-1.053-0.292-1.67-1.382-1.379-2.435c0.291-1.053,1.383-1.669,2.435-1.379l14.405,3.989c1.053,0.292,1.67,1.382,1.379,2.435
						C254.916,216.205,254.12,216.78,253.253,216.78z"/>
					<path style="fill:#FFFFFF;" d="M191.01,201.522c-0.35,0-0.705-0.046-1.059-0.145l-14.405-3.989
						c-2.106-0.583-3.34-2.763-2.757-4.869c0.583-2.106,2.762-3.344,4.869-2.757l14.405,3.989c2.106,0.583,3.34,2.763,2.757,4.869
						C194.335,200.373,192.744,201.522,191.01,201.522z"/>
				</g>
				<g>
					<path style="fill:#FFFFFF;" d="M234.525,241.265c-0.862,0-1.699-0.451-2.154-1.254l-7.365-13.006
						c-0.673-1.188-0.255-2.698,0.933-3.371c1.191-0.672,2.699-0.255,3.371,0.933l7.365,13.006c0.673,1.188,0.255,2.698-0.933,3.371
						C235.356,241.161,234.937,241.265,234.525,241.265z"/>
					<path style="fill:#FFFFFF;" d="M202.702,187.043c-1.551,0-3.058-0.813-3.877-2.259l-7.365-13.006
						c-1.212-2.139-0.46-4.855,1.68-6.066c2.14-1.211,4.855-0.459,6.066,1.68l7.365,13.006c1.211,2.139,0.46,4.855-1.68,6.066
						C204.198,186.856,203.445,187.043,202.702,187.043z"/>
				</g>
			</g>
		</g>
		<path style="fill:#FFB573;" d="M276.414,213.89l-8.585-0.307l4.155,9.978c0,0,7.366-1.362,7.081-5.346L276.414,213.89z"/>
		<polygon style="fill:#FFB573;" points="262.085,217.702 264.15,225.334 271.985,223.562 267.83,213.583 		"/>
	</g>
</g>
</svg>
