<svg xmlns="http://www.w3.org/2000/svg" xmlns:xlink="http://www.w3.org/1999/xlink" viewBox="0 0 512 512" width="512" height="512" style="width: 100%; height: 100%; transform: translate3d(0px, 0px, 0px);" preserveAspectRatio="xMidYMid meet"><defs><clipPath id="__lottie_element_1051"><rect width="512" height="512" x="0" y="0"></rect></clipPath><symbol id="__lottie_element_1055"><g><g style="display: block;" transform="matrix(1,0,0,1,296.0268859863281,306.0335693359375)" opacity="1"><g opacity="1" transform="matrix(1,0,0,1,0,0)"><path fill="rgb(0,0,0)" fill-opacity="1" d=" M175.2899932861328,98.12000274658203 C175.2899932861328,98.12000274658203 118.12000274658203,185 118.12000274658203,185 C113.62999725341797,181.8699951171875 103.69999694824219,173.36000061035156 99.19999694824219,170.22999572753906 C102.19000244140625,166.25 105.44999694824219,161.92999267578125 108.91000366210938,157.3800048828125 C107.70999908447266,156.67999267578125 106.4800033569336,156.0500030517578 105.16999816894531,155.5500030517578 C95.73999786376953,151.80999755859375 85.1500015258789,153.8300018310547 75.01000213623047,153.49000549316406 C73.30000305175781,153.44000244140625 71.61000061035156,153.30999755859375 69.93000030517578,153.10000610351562 C57.849998474121094,151.6999969482422 46.2400016784668,146.77000427246094 36.75,139.17999267578125 C34.38999938964844,137.2899932861328 32.150001525878906,135.24000549316406 30.06999969482422,133.02000427246094 C28.139999389648438,130.9600067138672 26.670000076293945,128.39999389648438 24.229999542236328,126.97000122070312 C18.469999313354492,123.55999755859375 11.579999923706055,122.36000061035156 5.130000114440918,120.87000274658203 C4.519999980926514,120.73999786376953 3.9000000953674316,120.5999984741211 3.2799999713897705,120.44000244140625 C-3.190000057220459,118.87000274658203 -9.6899995803833,116.76000213623047 -14.569999694824219,112.31999969482422 C-19.600000381469727,107.7300033569336 -22.299999237060547,99.98999786376953 -19.56999969482422,93.91999816894531 C-19.389999389648438,93.5199966430664 -19.18000030517578,93.12000274658203 -18.940000534057617,92.7300033569336 C-15.75,87.38999938964844 -9.010000228881836,85.3499984741211 -2.809999942779541,84.75 C11.359999656677246,83.38999938964844 25.969999313354492,87.45999908447266 37.400001525878906,95.94000244140625 C32.040000915527344,83.37000274658203 22.010000228881836,71.91000366210938 11.619999885559082,63.029998779296875 C11.239999771118164,62.709999084472656 10.84000015258789,62.369998931884766 10.40999984741211,62.029998779296875 C8.890000343322754,62.720001220703125 7.349999904632568,63.369998931884766 5.789999961853027,63.97999954223633 C-1.149999976158142,66.68000030517578 -9.020000457763672,68.26000213623047 -16,65.62999725341797 C-23.770000457763672,62.70000076293945 -29.1299991607666,55.02000045776367 -25.729999542236328,47.439998626708984 C-24.420000076293945,44.52000045776367 -22.719999313354492,41.88999938964844 -20.700000762939453,39.540000915527344 C-28.110000610351562,34.130001068115234 -34.720001220703125,28.969999313354492 -38.27000045776367,25.1200008392334 C-41.5,21.610000610351562 -44.61000061035156,17.559999465942383 -45.09000015258789,12.8100004196167 C-45.61000061035156,7.690000057220459 -42.79999923706055,2.549999952316284 -38.59000015258789,-0.4099999964237213 C-34.380001068115234,-3.359999895095825 -28.969999313354492,-4.309999942779541 -23.860000610351562,-3.740000009536743 C-18.739999771118164,-3.1700000762939453 -14,-0.949999988079071 -9.350000381469727,1.2699999809265137 C1.590000033378601,6.480000019073486 13.180000305175781,13.239999771118164 24.170000076293945,21.020000457763672 C25.700000762939453,20.979999542236328 27.229999542236328,21 28.75,21.079999923706055 C28.75,21.079999923706055 25.420000076293945,20.8700008392334 25.420000076293945,20.8700008392334 C28.530000686645508,19.850000381469727 31.700000762939453,19.020000457763672 34.86000061035156,18.360000610351562 C43.380001068115234,16.559999465942383 52.400001525878906,16.6299991607666 60.91999816894531,18.68000030517578 C60.91999816894531,18.68000030517578 60.9900016784668,18.479999542236328 60.9900016784668,18.479999542236328 C63.15999984741211,17.799999237060547 65.37999725341797,17.280000686645508 67.58999633789062,16.889999389648438 C78.30000305175781,15.029999732971191 89.73999786376953,18.709999084472656 99.86000061035156,25.799999237060547 C118.2699966430664,38.66999816894531 137.8800048828125,71.44000244140625 153.44000244140625,99.05000305175781 C156.1999969482422,95.4000015258789 158.8300018310547,91.91999816894531 161.27000427246094,88.66999816894531 C165.1699981689453,91.12000274658203 171.39999389648438,95.66999816894531 175.2899932861328,98.12000274658203z"></path></g></g></g></symbol><filter id="__lottie_element_1064" filterUnits="objectBoundingBox" x="0%" y="0%" width="100%" height="100%"><feComponentTransfer in="SourceGraphic"><feFuncA type="table" tableValues="1.0 0.0"></feFuncA></feComponentTransfer></filter><mask id="__lottie_element_1055_2" mask-type="alpha"><g filter="url(#__lottie_element_1064)"><rect width="512" height="512" x="0" y="0" fill="#ffffff" opacity="0"></rect><use xlink:href="#__lottie_element_1055"></use></g></mask></defs><g clip-path="url(#__lottie_element_1051)"><g style="display: block;" mask="url(#__lottie_element_1055_2)"><g transform="matrix(1,0,0,1,256,256)" opacity="1"><g opacity="1" transform="matrix(1,0,0,1,0,0)"><g opacity="1" transform="matrix(1,0,0,1,0,0)"><path fill="rgb(0,0,0)" fill-opacity="1" d=" M-109.44400024414062,97.96299743652344 C-109.44400024414062,97.96299743652344 -119.53399658203125,97.96299743652344 -119.53399658203125,97.96299743652344 C-121.0989990234375,97.96299743652344 -122.45800018310547,96.88500213623047 -122.81400299072266,95.36100006103516 C-122.81400299072266,95.36100006103516 -178.4709930419922,-142.8520050048828 -178.4709930419922,-142.8520050048828 C-178.88499450683594,-144.62399291992188 -177.5399932861328,-146.32000732421875 -175.72000122070312,-146.32000732421875 C-175.72000122070312,-146.32000732421875 -166.52000427246094,-146.32000732421875 -166.52000427246094,-146.32000732421875 C-166.52000427246094,-146.32000732421875 -109.44400024414062,97.96299743652344 -109.44400024414062,97.96299743652344z"></path><path stroke-linecap="round" stroke-linejoin="round" fill-opacity="0" stroke="rgb(0,0,0)" stroke-opacity="1" stroke-width="2.1" d=" M-109.44400024414062,97.96299743652344 C-109.44400024414062,97.96299743652344 -119.53399658203125,97.96299743652344 -119.53399658203125,97.96299743652344 C-121.0989990234375,97.96299743652344 -122.45800018310547,96.88500213623047 -122.81400299072266,95.36100006103516 C-122.81400299072266,95.36100006103516 -178.4709930419922,-142.8520050048828 -178.4709930419922,-142.8520050048828 C-178.88499450683594,-144.62399291992188 -177.5399932861328,-146.32000732421875 -175.72000122070312,-146.32000732421875 C-175.72000122070312,-146.32000732421875 -166.52000427246094,-146.32000732421875 -166.52000427246094,-146.32000732421875 C-166.52000427246094,-146.32000732421875 -109.44400024414062,97.96299743652344 -109.44400024414062,97.96299743652344z"></path></g><g opacity="1" transform="matrix(1,0,0,1,0,0)"><path stroke-linecap="round" stroke-linejoin="round" fill-opacity="0" stroke="rgb(0,0,0)" stroke-opacity="1" stroke-width="2.1" d=" M-15.552000045776367,-143.89599609375 C-15.552000045776367,-143.89599609375 40.42499923706055,95.68800354003906 40.42499923706055,95.68800354003906 C40.42499923706055,95.68800354003906 -109.44100189208984,97.96499633789062 -109.44100189208984,97.96499633789062 C-109.44100189208984,97.96499633789062 -166.51600646972656,-146.32000732421875 -166.51600646972656,-146.32000732421875 C-166.51600646972656,-146.32000732421875 -21.475000381469727,-148.5229949951172 -21.475000381469727,-148.5229949951172 C-18.658000946044922,-148.5659942626953 -16.19300079345703,-146.63900756835938 -15.552000045776367,-143.89599609375z"></path></g><g opacity="1" transform="matrix(1,0,0,1,0,0)"><path fill="rgb(0,0,0)" fill-opacity="1" d=" M-68.25800323486328,-147.8350067138672 C-68.25800323486328,-147.8350067138672 -65.77300262451172,-137.57699584960938 -65.77300262451172,-137.57699584960938 C-65.77300262451172,-137.57699584960938 -102.21499633789062,-137.01600646972656 -102.21499633789062,-137.01600646972656 C-102.21499633789062,-137.01600646972656 -104.60900115966797,-146.89700317382812 -104.60900115966797,-146.89700317382812 C-104.60900115966797,-146.89700317382812 -68.25800323486328,-147.8350067138672 -68.25800323486328,-147.8350067138672z"></path><path stroke-linecap="round" stroke-linejoin="round" fill-opacity="0" stroke="rgb(0,0,0)" stroke-opacity="1" stroke-width="2.1" d=" M-68.25800323486328,-147.8350067138672 C-68.25800323486328,-147.8350067138672 -65.77300262451172,-137.57699584960938 -65.77300262451172,-137.57699584960938 C-65.77300262451172,-137.57699584960938 -102.21499633789062,-137.01600646972656 -102.21499633789062,-137.01600646972656 C-102.21499633789062,-137.01600646972656 -104.60900115966797,-146.89700317382812 -104.60900115966797,-146.89700317382812 C-104.60900115966797,-146.89700317382812 -68.25800323486328,-147.8350067138672 -68.25800323486328,-147.8350067138672z"></path></g><g opacity="1" transform="matrix(1,0,0,1,0,0)"><path stroke-linecap="round" stroke-linejoin="round" fill-opacity="0" stroke="rgb(0,0,0)" stroke-opacity="1" stroke-width="2.1" d=" M-119.24600219726562,55.999000549316406 C-119.24600219726562,55.999000549316406 -109.44100189208984,97.96499633789062 -109.44100189208984,97.96499633789062 C-109.44100189208984,97.96499633789062 40.42499923706055,95.68800354003906 40.42499923706055,95.68800354003906 C40.42499923706055,95.68800354003906 31.152000427246094,55.999000549316406 31.152000427246094,55.999000549316406 C31.152000427246094,55.999000549316406 -119.24600219726562,55.999000549316406 -119.24600219726562,55.999000549316406z"></path></g><g opacity="1" transform="matrix(1,0,0,1,0,0)"><path fill="rgb(0,0,0)" fill-opacity="1" d=" M-41.84400177001953,85.44499969482422 C-37.39400100708008,88.44200134277344 -31.083999633789062,88.07499694824219 -27.582000732421875,84.53299713134766 C-21.788000106811523,78.6729965209961 -25.69099998474121,70.38700103759766 -32.178001403808594,66.28800201416016 C-35.665000915527344,64.08499908447266 -38.43299865722656,63.39099884033203 -41.86899948120117,65.4729995727539 C-45.1609992980957,67.46800231933594 -47.40700149536133,70.76699829101562 -47.43899917602539,74.78600311279297 C-47.47200012207031,78.81999969482422 -45.36800003051758,83.0719985961914 -41.84400177001953,85.44499969482422z"></path></g><g opacity="1" transform="matrix(1,0,0,1,0,0)"><path fill="rgb(219,223,230)" fill-opacity="1" d=" M-33.94499969482422,-86.70700073242188 C-33.94499969482422,-86.70700073242188 -111.33200073242188,-83.25299835205078 -111.33200073242188,-83.25299835205078 C-111.33200073242188,-83.25299835205078 -115.07499694824219,-100.52400207519531 -115.07499694824219,-100.52400207519531 C-115.07499694824219,-100.52400207519531 -36.124000549316406,-104.20700073242188 -36.124000549316406,-104.20700073242188 C-36.124000549316406,-104.20700073242188 -33.94499969482422,-86.70700073242188 -33.94499969482422,-86.70700073242188z"></path></g><g opacity="1" transform="matrix(1,0,0,1,0,0)"><path fill="rgb(219,223,230)" fill-opacity="1" d=" M-41.244998931884766,-62.53099822998047 C-41.244998931884766,-62.53099822998047 -97.93099975585938,-60.209999084472656 -97.93099975585938,-60.209999084472656 C-97.93099975585938,-60.209999084472656 -99.43399810791016,-68.93699645996094 -99.43399810791016,-68.93699645996094 C-99.43399810791016,-68.93699645996094 -42.257999420166016,-71.81800079345703 -42.257999420166016,-71.81800079345703 C-42.257999420166016,-71.81800079345703 -41.244998931884766,-62.53099822998047 -41.244998931884766,-62.53099822998047z"></path></g></g><g opacity="1" transform="matrix(1,0,0,1,0,0)"><g opacity="1" transform="matrix(1,0,0,1,0,0)"><path fill="rgb(59,224,148)" fill-opacity="1" d=" M-32.24100112915039,13.331000328063965 C-41.56999969482422,22.148000717163086 -58.189998626708984,24.45400047302246 -71.2300033569336,18.7549991607666 C-91.27400207519531,9.96399974822998 -96.06099700927734,-13.130999565124512 -87.43900299072266,-28.69499969482422 C-84.62000274658203,-33.76499938964844 -80.052001953125,-38.0880012512207 -74.23500061035156,-40.65599822998047 C-61.619998931884766,-46.2239990234375 -44.20199966430664,-43.132999420166016 -34.097999572753906,-33.542999267578125 C-28.51799964904785,-28.23699951171875 -25.20199966430664,-21.358999252319336 -23.94300079345703,-14.428999900817871 C-22.128999710083008,-4.433000087738037 -24.659000396728516,6.164999961853027 -32.24100112915039,13.331000328063965z"></path></g><g opacity="1" transform="matrix(1,0,0,1,0,0)"><path stroke-linecap="round" stroke-linejoin="round" fill-opacity="0" stroke="rgb(255,255,255)" stroke-opacity="1" stroke-width="2.1" d=" M-74.51000213623047,-9.838000297546387 C-70.64600372314453,-5.211999893188477 -68.75800323486328,-3.0350000858306885 -64.89399719238281,1.590999960899353 C-56.46099853515625,-6.6519999504089355 -48.02799987792969,-14.895999908447266 -39.595001220703125,-23.138999938964844"></path></g></g></g></g><g style="display: block;" transform="matrix(1,0,0,1,296.0298767089844,306.03057861328125)" opacity="1"><g opacity="1" transform="matrix(1,0,0,1,0,0)"><g opacity="1" transform="matrix(1,0,0,1,0,0)"><path stroke-linecap="round" stroke-linejoin="round" fill-opacity="0" stroke="rgb(0,0,0)" stroke-opacity="1" stroke-width="2.1" d=" M60.92300033569336,18.68400001525879 C60.92300033569336,18.68400001525879 60.99300003051758,18.47599983215332 60.99300003051758,18.47599983215332 C63.15999984741211,17.79599952697754 65.38300323486328,17.2810001373291 67.59200286865234,16.892000198364258 C78.3030014038086,15.031000137329102 89.73600006103516,18.711999893188477 99.86299896240234,25.797000885009766 C118.28399658203125,38.67499923706055 137.88499450683594,71.46099853515625 153.45799255371094,99.0780029296875 C153.7220001220703,99.55000305175781 153.98599243164062,100.00800323486328 154.25,100.4800033569336 C139.4409942626953,119.94300079345703 124.66000366210938,138.5030059814453 109.86499786376953,157.95199584960938 C109.55899810791016,157.75799560546875 109.25399780273438,157.57699584960938 108.947998046875,157.39700317382812 C107.73899841308594,156.68899536132812 106.48899841308594,156.06300354003906 105.16899871826172,155.5489959716797 C95.73600006103516,151.81199645996094 85.1510009765625,153.82699584960938 75.01000213623047,153.4929962158203 C73.3010025024414,153.43699645996094 71.60600280761719,153.31199645996094 69.92500305175781,153.10400390625 C57.85300064086914,151.7010040283203 46.23899841308594,146.7689971923828 36.750999450683594,139.1840057373047 C34.388999938964844,137.29400634765625 32.15299987792969,135.23899841308594 30.069000244140625,133.01600646972656 C28.13800048828125,130.9600067138672 26.665000915527344,128.4040069580078 24.233999252319336,126.9729995727539 C18.4689998626709,123.55599975585938 11.579000473022461,122.36000061035156 5.132999897003174,120.8740005493164 C4.521999835968018,120.73500061035156 3.8959999084472656,120.59700012207031 3.2850000858306885,120.44400024414062 C-3.188999891281128,118.8740005493164 -9.6899995803833,116.76200103759766 -14.565999984741211,112.31700134277344 C-19.594999313354492,107.73200225830078 -22.304000854492188,99.99500274658203 -19.566999435424805,93.92400360107422 C-19.38599967956543,93.52100372314453 -19.17799949645996,93.11799621582031 -18.941999435424805,92.72899627685547 C-15.746999740600586,87.39399719238281 -9.010000228881836,85.35299682617188 -2.813999891281128,84.75499725341797 C11.355999946594238,83.39399719238281 25.97100067138672,87.46399688720703 37.40399932861328,95.93800354003906"></path></g><g opacity="1" transform="matrix(1,0,0,1,0,0)"><path stroke-linecap="round" stroke-linejoin="round" fill-opacity="0" stroke="rgb(0,0,0)" stroke-opacity="1" stroke-width="2.1" d=" M74.46199798583984,23.930999755859375 C62.53099822998047,17.26799964904785 48.099998474121094,15.574999809265137 34.85599899291992,18.356000900268555 C31.701000213623047,19.018999099731445 28.524999618530273,19.844999313354492 25.417999267578125,20.867000579833984"></path></g><g opacity="1" transform="matrix(1,0,0,1,0,0)"><path stroke-linecap="round" stroke-linejoin="round" fill-opacity="0" stroke="rgb(0,0,0)" stroke-opacity="1" stroke-width="2.1" d=" M-20.697999954223633,39.52399826049805 C-22.70800018310547,41.8849983215332 -24.41200065612793,44.51499938964844 -25.726999282836914,47.444000244140625 C-29.128999710083008,55.020999908447266 -23.770999908447266,62.696998596191406 -15.99899959564209,65.62699890136719 C-9.024999618530273,68.25599670410156 -1.152999997138977,66.68099975585938 5.793000221252441,63.979000091552734 C7.355999946594238,63.37099838256836 8.89900016784668,62.707000732421875 10.432999610900879,62.02199935913086"></path></g><g opacity="1" transform="matrix(1,0,0,1,0,0)"><path stroke-linecap="round" stroke-linejoin="round" fill-opacity="0" stroke="rgb(0,0,0)" stroke-opacity="1" stroke-width="2.1" d=" M66.26100158691406,38.37300109863281 C63.733001708984375,35.630001068115234 60.97200012207031,33.117000579833984 57.922000885009766,30.917999267578125 C48.24700164794922,23.94300079345703 36.21500015258789,20.753999710083008 24.2450008392334,21.010000228881836"></path></g><g opacity="1" transform="matrix(1,0,0,1,0,0)"><g opacity="1" transform="matrix(1,0,0,1,0,0)"><path fill="rgb(0,0,0)" fill-opacity="1" d=" M118.12300109863281,185 C113.62699890136719,181.87100219726562 103.697998046875,173.36000061035156 99.2020034790039,170.2310028076172 C116.67400360107422,146.91900634765625 143.7969970703125,111.98100280761719 161.2689971923828,88.66899871826172 C165.16600036621094,91.11900329589844 171.39500427246094,95.67500305175781 175.29200744628906,98.125 C175.29200744628906,98.125 118.12300109863281,185 118.12300109863281,185z"></path><path stroke-linecap="round" stroke-linejoin="round" fill-opacity="0" stroke="rgb(0,0,0)" stroke-opacity="1" stroke-width="2.1" d=" M118.12300109863281,185 C113.62699890136719,181.87100219726562 103.697998046875,173.36000061035156 99.2020034790039,170.2310028076172 C116.67400360107422,146.91900634765625 143.7969970703125,111.98100280761719 161.2689971923828,88.66899871826172 C165.16600036621094,91.11900329589844 171.39500427246094,95.67500305175781 175.29200744628906,98.125 C175.29200744628906,98.125 118.12300109863281,185 118.12300109863281,185z"></path></g></g><g opacity="1" transform="matrix(1,0,0,1,0,0)"><path stroke-linecap="round" stroke-linejoin="round" fill-opacity="0" stroke="rgb(0,0,0)" stroke-opacity="1" stroke-width="2.1" d=" M56.893001556396484,50.18000030517578 C39.875,30.201000213623047 13.777999877929688,12.303000450134277 -9.354999542236328,1.2669999599456787 C-14,-0.9490000009536743 -18.743999481201172,-3.1659998893737793 -23.858999252319336,-3.7360000610351562 C-28.974000930786133,-4.306000232696533 -34.380001068115234,-3.36299991607666 -38.59199905395508,-0.4050000011920929 C-42.80400085449219,2.552999973297119 -45.61399841308594,7.689000129699707 -45.09199905395508,12.809000015258789 C-44.608001708984375,17.562000274658203 -41.500999450683594,21.604999542236328 -38.266998291015625,25.121999740600586 C-29.01799964904785,35.18299865722656 1.2319999933242798,54.14699935913086 11.619999885559082,63.02799987792969 C22.006999969482422,71.90899658203125 32.0369987487793,83.37200164794922 37.40299987792969,95.94100189208984"></path></g><g opacity="1" transform="matrix(1,0,0,1,0,0)"><path fill="rgb(0,0,0)" fill-opacity="1" d=" M-39.290000915527344,0.11500000208616257 C-36.94900131225586,6.2220001220703125 -30.489999771118164,10.937999725341797 -23.961999893188477,11.336000442504883 C-17.43400001525879,11.734000205993652 -10.538000106811523,7.953000068664551 -7.4720001220703125,2.177000045776367 C-20.077999114990234,-4.563000202178955 -30.773000717163086,-5.8979997634887695 -39.290000915527344,0.11500000208616257z"></path><path stroke-linecap="round" stroke-linejoin="round" fill-opacity="0" stroke="rgb(0,0,0)" stroke-opacity="1" stroke-width="2.1" d=" M-39.290000915527344,0.11500000208616257 C-36.94900131225586,6.2220001220703125 -30.489999771118164,10.937999725341797 -23.961999893188477,11.336000442504883 C-17.43400001525879,11.734000205993652 -10.538000106811523,7.953000068664551 -7.4720001220703125,2.177000045776367 C-20.077999114990234,-4.563000202178955 -30.773000717163086,-5.8979997634887695 -39.290000915527344,0.11500000208616257z"></path></g></g><g opacity="1" transform="matrix(1,0,0,1,0,0)"><path fill="rgb(0,0,0)" fill-opacity="1" d=" M3.4519999027252197,120.36000061035156 C3.4519999027252197,120.36000061035156 3.3959999084472656,120.38800048828125 3.2850000858306885,120.44400024414062 C-3.188999891281128,118.8740005493164 -9.6899995803833,116.76200103759766 -14.565999984741211,112.31700134277344 C-19.594999313354492,107.73200225830078 -22.304000854492188,99.99500274658203 -19.566999435424805,93.92400360107422 C-19.469999313354492,94.00700378417969 -19.415000915527344,94.06300354003906 -19.415000915527344,94.06300354003906 C-13.88599967956543,93.16000366210938 -8.496000289916992,96.16100311279297 -5.133999824523926,100.35600280761719 C-1.7580000162124634,104.56600189208984 -0.03500000014901161,109.83000183105469 1.6460000276565552,114.99800109863281 C2.243000030517578,116.84600067138672 2.8540000915527344,118.4990005493164 3.4519999027252197,120.36000061035156z"></path><path stroke-linecap="round" stroke-linejoin="round" fill-opacity="0" stroke="rgb(0,0,0)" stroke-opacity="1" stroke-width="2.1" d=" M3.4519999027252197,120.36000061035156 C3.4519999027252197,120.36000061035156 3.3959999084472656,120.38800048828125 3.2850000858306885,120.44400024414062 C-3.188999891281128,118.8740005493164 -9.6899995803833,116.76200103759766 -14.565999984741211,112.31700134277344 C-19.594999313354492,107.73200225830078 -22.304000854492188,99.99500274658203 -19.566999435424805,93.92400360107422 C-19.469999313354492,94.00700378417969 -19.415000915527344,94.06300354003906 -19.415000915527344,94.06300354003906 C-13.88599967956543,93.16000366210938 -8.496000289916992,96.16100311279297 -5.133999824523926,100.35600280761719 C-1.7580000162124634,104.56600189208984 -0.03500000014901161,109.83000183105469 1.6460000276565552,114.99800109863281 C2.243000030517578,116.84600067138672 2.8540000915527344,118.4990005493164 3.4519999027252197,120.36000061035156z"></path></g></g><g style="display: block;" transform="matrix(1,0,0,1,256,256)" opacity="1"><g opacity="1" transform="matrix(1,0,0,1,0,0)"><path fill="rgb(79,145,255)" fill-opacity="1" d=" M100.98600006103516,-73.95999908447266 C86.21399688720703,-61.34600067138672 64.89900207519531,-56.104000091552734 45.88800048828125,-61.007999420166016 C45.42300033569336,-61.124000549316406 44.95899963378906,-61.257999420166016 44.50199890136719,-61.382999420166016 C35.25699996948242,-64.03399658203125 26.795000076293945,-69.08799743652344 20.06599998474121,-75.7509994506836 C19.242000579833984,-76.56600189208984 18.451000213623047,-77.40799713134766 17.70199966430664,-78.26699829101562 C9.829999923706055,-76.33000183105469 -0.22200000286102295,-74.69499969482422 -8.96399974822998,-73.4800033569336 C-3.2339999675750732,-83.1729965209961 1.8300000429153442,-89.09600067138672 5.736000061035156,-97.41600036621094 C4.997000217437744,-99.01499938964844 4.308000087738037,-100.6240005493164 3.6440000534057617,-102.23300170898438 C-2.492000102996826,-117.18099975585938 -3.247999906539917,-135.08999633789062 3.3450000286102295,-150.05799865722656 C10.694000244140625,-166.70599365234375 26.700000762939453,-179.43099975585938 44.89400100708008,-183.51499938964844 C63.0880012512207,-187.60699462890625 83.04000091552734,-183.08399963378906 97.71600341796875,-171.91099548339844 C112.39199829101562,-160.72900390625 121.58300018310547,-143.18800354003906 122.64600372314453,-125.11599731445312 C123.77100372314453,-106.0790023803711 115.75800323486328,-86.5739974975586 100.98600006103516,-73.95999908447266z"></path></g><g opacity="1" transform="matrix(1,0,0,1,0,1)"><path stroke-linecap="butt" stroke-linejoin="miter" fill-opacity="0" stroke-miterlimit="10" stroke="rgb(255,255,255)" stroke-opacity="1" stroke-width="2.1" d=" M31.170000076293945,-134.6929931640625 C33.25899887084961,-138.1719970703125 36.066001892089844,-141.6790008544922 40.04899978637695,-142.32400512695312 C45.242000579833984,-143.1649932861328 49.880001068115234,-138.65699768066406 51.974998474121094,-133.83099365234375 C54.06999969482422,-129.0050048828125 54.61399841308594,-123.58599853515625 56.981998443603516,-118.88800048828125 C58.007999420166016,-116.85299682617188 59.417999267578125,-114.93800354003906 61.375,-113.77100372314453 C63.332000732421875,-112.60399627685547 65.90599822998047,-112.30599975585938 67.88999938964844,-113.427001953125 C71.33300018310547,-115.37300109863281 71.49400329589844,-120.12899780273438 71.95999908447266,-124.05699920654297 C72.24800109863281,-126.48300170898438 72.85199737548828,-128.95399475097656 74.3280029296875,-130.89999389648438 C75.80400085449219,-132.8459930419922 78.31600189208984,-134.1580047607422 80.7040023803711,-133.6439971923828 C83.10099792480469,-133.1280059814453 84.7969970703125,-130.98599243164062 85.91300201416016,-128.80299377441406 C87.02899932861328,-126.62000274658203 87.8010025024414,-124.21900177001953 89.37000274658203,-122.33399963378906 C91.27799987792969,-120.04100036621094 94.31800079345703,-118.73899841308594 97.29399871826172,-118.93900299072266 C100.2699966430664,-119.13899993896484 103.10800170898438,-120.83699798583984 104.69200134277344,-123.36399841308594"></path></g></g></g></svg>