<svg width="26" height="24" viewBox="0 0 26 24" fill="none" xmlns="http://www.w3.org/2000/svg">
<path d="M11.2577 1.09115C12.0227 -0.266139 13.9773 -0.266141 14.7423 1.09115L17.3116 5.64955C17.597 6.1559 18.0886 6.51304 18.6583 6.62801L23.7876 7.66294C25.3149 7.97109 25.9188 9.82998 24.8644 10.977L21.3231 14.8292C20.9297 15.2571 20.7419 15.8349 20.8086 16.4123L21.4094 21.6104C21.5883 23.1581 20.007 24.307 18.5903 23.6586L13.8323 21.4809C13.3038 21.239 12.6962 21.239 12.1677 21.4809L7.40971 23.6586C5.99299 24.307 4.41173 23.1581 4.5906 21.6104L5.19135 16.4123C5.25808 15.8349 5.07032 15.2571 4.67695 14.8292L1.13561 10.977C0.0811572 9.82998 0.685145 7.97109 2.21241 7.66294L7.34166 6.62801C7.91143 6.51304 8.40299 6.1559 8.6884 5.64955L11.2577 1.09115Z" fill="#FFB800"/>
</svg>
