<?xml version="1.0" encoding="utf-8"?><svg id="epLRxi54B2b1" xmlns="http://www.w3.org/2000/svg" xmlns:xlink="http://www.w3.org/1999/xlink" viewBox="0 0 800 800" shape-rendering="geometricPrecision" text-rendering="geometricPrecision"> <style> <![CDATA[#epLRxi54B2b4 { animation-name: epLRxi54B2b4_c_o, epLRxi54B2b4_s_do, epLRxi54B2b4_s_da; animation-duration: 2500ms; animation-fill-mode: forwards; animation-timing-function: linear; animation-direction: normal; animation-iteration-count: infinite; }@keyframes epLRxi54B2b4_c_o { 0% {opacity: 0.500000} 12% {opacity: 0.500000} 80% {opacity: 0} 100% {opacity: 0}}@keyframes epLRxi54B2b4_s_do { 0% {stroke-dashoffset: 0;animation-timing-function: cubic-bezier(0,0,0.580000,1)} 12% {stroke-dashoffset: 135;animation-timing-function: cubic-bezier(0,0,0.575000,0.950000)} 24% {stroke-dashoffset: 135} 80% {stroke-dashoffset: 135} 100% {stroke-dashoffset: 135}}@keyframes epLRxi54B2b4_s_da { 0% {stroke-dasharray: 0, 411.610000;animation-timing-function: cubic-bezier(0,0,0.580000,1)} 12% {stroke-dasharray: 135, 276.610000;animation-timing-function: cubic-bezier(0,0,0.575000,0.950000)} 24% {stroke-dasharray: 135, 276.610000} 80% {stroke-dasharray: 135, 276.610000} 100% {stroke-dasharray: 135, 276.610000}} #epLRxi54B2b5 { animation-name: epLRxi54B2b5_c_o, epLRxi54B2b5_s_do, epLRxi54B2b5_s_da; animation-duration: 2500ms; animation-fill-mode: forwards; animation-timing-function: linear; animation-direction: normal; animation-iteration-count: infinite; }@keyframes epLRxi54B2b5_c_o { 0% {opacity: 0} 12% {opacity: 0} 16% {opacity: 1} 80% {opacity: 1} 100% {opacity: 0}}@keyframes epLRxi54B2b5_s_do { 0% {stroke-dashoffset: 0} 12% {stroke-dashoffset: 135;animation-timing-function: cubic-bezier(0,0,0.575000,0.950000)} 24% {stroke-dashoffset: 135} 33.200000% {stroke-dashoffset: 135;animation-timing-function: cubic-bezier(0.295000,0.710000,0.575000,0.950000)} 80% {stroke-dashoffset: 411.610000} 100% {stroke-dashoffset: 411.610000}}@keyframes epLRxi54B2b5_s_da { 0% {stroke-dasharray: 0, 411.610000} 12% {stroke-dasharray: 0, 411.610000;animation-timing-function: cubic-bezier(0,0,0.575000,0.950000)} 24% {stroke-dasharray: 135, 276.610000} 33.200000% {stroke-dasharray: 135, 276.610000;animation-timing-function: cubic-bezier(0.295000,0.710000,0.575000,0.950000)} 80% {stroke-dasharray: 411.610000, 0} 100% {stroke-dasharray: 411.610000, 0}} #epLRxi54B2b6 { animation-name: epLRxi54B2b6_c_o, epLRxi54B2b6_s_do, epLRxi54B2b6_s_da; animation-duration: 2500ms; animation-fill-mode: forwards; animation-timing-function: linear; animation-direction: normal; animation-iteration-count: infinite; }@keyframes epLRxi54B2b6_c_o { 0% {opacity: 0.500000} 12% {opacity: 0.500000} 80% {opacity: 0} 100% {opacity: 0}}@keyframes epLRxi54B2b6_s_do { 0% {stroke-dashoffset: 0;animation-timing-function: cubic-bezier(0,0,0.580000,1)} 12% {stroke-dashoffset: 220;animation-timing-function: cubic-bezier(0,0,0.575000,0.950000)} 24% {stroke-dashoffset: 220} 80% {stroke-dashoffset: 220} 100% {stroke-dashoffset: 220}}@keyframes epLRxi54B2b6_s_da { 0% {stroke-dasharray: 0, 691.250000;animation-timing-function: cubic-bezier(0,0,0.580000,1)} 12% {stroke-dasharray: 220, 471.250000;animation-timing-function: cubic-bezier(0,0,0.575000,0.950000)} 24% {stroke-dasharray: 220, 471.250000} 80% {stroke-dasharray: 220, 471.250000} 100% {stroke-dasharray: 220, 471.250000}} #epLRxi54B2b7 { animation-name: epLRxi54B2b7_c_o, epLRxi54B2b7_s_do, epLRxi54B2b7_s_da; animation-duration: 2500ms; animation-fill-mode: forwards; animation-timing-function: linear; animation-direction: normal; animation-iteration-count: infinite; }@keyframes epLRxi54B2b7_c_o { 0% {opacity: 0} 12% {opacity: 0} 16% {opacity: 1} 80% {opacity: 1} 100% {opacity: 0}}@keyframes epLRxi54B2b7_s_do { 0% {stroke-dashoffset: 0} 12% {stroke-dashoffset: 220;animation-timing-function: cubic-bezier(0,0,0.575000,0.950000)} 24% {stroke-dashoffset: 220} 33.200000% {stroke-dashoffset: 220;animation-timing-function: cubic-bezier(0.295000,0.710000,0.575000,0.950000)} 80% {stroke-dashoffset: 691.250000} 100% {stroke-dashoffset: 691.250000}}@keyframes epLRxi54B2b7_s_da { 0% {stroke-dasharray: 0, 691.250000} 12% {stroke-dasharray: 0, 691.250000;animation-timing-function: cubic-bezier(0,0,0.575000,0.950000)} 24% {stroke-dasharray: 220, 471.250000} 33.200000% {stroke-dasharray: 220, 471.250000;animation-timing-function: cubic-bezier(0.295000,0.710000,0.575000,0.950000)} 80% {stroke-dasharray: 691.250000, 0} 100% {stroke-dasharray: 691.250000, 0}} #epLRxi54B2b8 { animation-name: epLRxi54B2b8_c_o, epLRxi54B2b8_s_do, epLRxi54B2b8_s_da; animation-duration: 2500ms; animation-fill-mode: forwards; animation-timing-function: linear; animation-direction: normal; animation-iteration-count: infinite; }@keyframes epLRxi54B2b8_c_o { 0% {opacity: 0.500000} 12% {opacity: 0.500000} 80% {opacity: 0} 100% {opacity: 0}}@keyframes epLRxi54B2b8_s_do { 0% {stroke-dashoffset: 0;animation-timing-function: cubic-bezier(0,0,0.580000,1)} 12% {stroke-dashoffset: 295;animation-timing-function: cubic-bezier(0,0,0.575000,0.950000)} 24% {stroke-dashoffset: 295} 80% {stroke-dashoffset: 295} 100% {stroke-dashoffset: 295}}@keyframes epLRxi54B2b8_s_da { 0% {stroke-dasharray: 0, 945.750000;animation-timing-function: cubic-bezier(0,0,0.580000,1)} 12% {stroke-dasharray: 295, 650.750000;animation-timing-function: cubic-bezier(0,0,0.575000,0.950000)} 24% {stroke-dasharray: 295, 650.750000} 80% {stroke-dasharray: 295, 650.750000} 100% {stroke-dasharray: 295, 650.750000}} #epLRxi54B2b9 { animation-name: epLRxi54B2b9_c_o, epLRxi54B2b9_s_do, epLRxi54B2b9_s_da; animation-duration: 2500ms; animation-fill-mode: forwards; animation-timing-function: linear; animation-direction: normal; animation-iteration-count: infinite; }@keyframes epLRxi54B2b9_c_o { 0% {opacity: 0} 12% {opacity: 0} 16% {opacity: 1} 80% {opacity: 1} 100% {opacity: 0}}@keyframes epLRxi54B2b9_s_do { 0% {stroke-dashoffset: 0} 12% {stroke-dashoffset: 295;animation-timing-function: cubic-bezier(0,0,0.575000,0.950000)} 24% {stroke-dashoffset: 295} 33.200000% {stroke-dashoffset: 295;animation-timing-function: cubic-bezier(0.295000,0.710000,0.575000,0.950000)} 80% {stroke-dashoffset: 945.750000} 100% {stroke-dashoffset: 945.750000}}@keyframes epLRxi54B2b9_s_da { 0% {stroke-dasharray: 0, 945.750000} 12% {stroke-dasharray: 0, 945.750000;animation-timing-function: cubic-bezier(0,0,0.575000,0.950000)} 24% {stroke-dasharray: 295, 650.750000} 33.200000% {stroke-dasharray: 295, 650.750000;animation-timing-function: cubic-bezier(0.295000,0.710000,0.575000,0.950000)} 80% {stroke-dasharray: 945.750000, 0} 100% {stroke-dasharray: 945.750000, 0}} #epLRxi54B2b10 { animation-name: epLRxi54B2b10_c_o, epLRxi54B2b10_s_do, epLRxi54B2b10_s_da; animation-duration: 2500ms; animation-fill-mode: forwards; animation-timing-function: linear; animation-direction: normal; animation-iteration-count: infinite; }@keyframes epLRxi54B2b10_c_o { 0% {opacity: 0.500000} 12% {opacity: 0.500000} 80% {opacity: 0} 100% {opacity: 0}}@keyframes epLRxi54B2b10_s_do { 0% {stroke-dashoffset: 0;animation-timing-function: cubic-bezier(0,0,0.580000,1)} 12% {stroke-dashoffset: 375;animation-timing-function: cubic-bezier(0,0,0.575000,0.950000)} 24% {stroke-dashoffset: 375} 80% {stroke-dashoffset: 375} 100% {stroke-dashoffset: 375}}@keyframes epLRxi54B2b10_s_da { 0% {stroke-dasharray: 0, 1225.390000;animation-timing-function: cubic-bezier(0,0,0.580000,1)} 12% {stroke-dasharray: 375, 850.390000;animation-timing-function: cubic-bezier(0,0,0.575000,0.950000)} 24% {stroke-dasharray: 375, 850.390000} 80% {stroke-dasharray: 375, 850.390000} 100% {stroke-dasharray: 375, 850.390000}} #epLRxi54B2b11 { animation-name: epLRxi54B2b11_c_o, epLRxi54B2b11_s_do, epLRxi54B2b11_s_da; animation-duration: 2500ms; animation-fill-mode: forwards; animation-timing-function: linear; animation-direction: normal; animation-iteration-count: infinite; }@keyframes epLRxi54B2b11_c_o { 0% {opacity: 0} 12% {opacity: 0} 16% {opacity: 1} 80% {opacity: 1} 100% {opacity: 0}}@keyframes epLRxi54B2b11_s_do { 0% {stroke-dashoffset: 0} 12% {stroke-dashoffset: 375;animation-timing-function: cubic-bezier(0,0,0.575000,0.950000)} 24% {stroke-dashoffset: 375} 33.200000% {stroke-dashoffset: 375;animation-timing-function: cubic-bezier(0.295000,0.710000,0.575000,0.950000)} 80% {stroke-dashoffset: 1225.390000} 100% {stroke-dashoffset: 1225.390000}}@keyframes epLRxi54B2b11_s_da { 0% {stroke-dasharray: 0, 1225.390000} 12% {stroke-dasharray: 0, 1225.390000;animation-timing-function: cubic-bezier(0,0,0.575000,0.950000)} 24% {stroke-dasharray: 375, 850.390000} 33.200000% {stroke-dasharray: 375, 850.390000;animation-timing-function: cubic-bezier(0.295000,0.710000,0.575000,0.950000)} 80% {stroke-dasharray: 1225.390000, 0} 100% {stroke-dasharray: 1225.390000, 0}} #epLRxi54B2b12 { animation-name: epLRxi54B2b12_c_o, epLRxi54B2b12_s_do, epLRxi54B2b12_s_da; animation-duration: 2500ms; animation-fill-mode: forwards; animation-timing-function: linear; animation-direction: normal; animation-iteration-count: infinite; }@keyframes epLRxi54B2b12_c_o { 0% {opacity: 0.500000} 12% {opacity: 0.500000} 80% {opacity: 0} 100% {opacity: 0}}@keyframes epLRxi54B2b12_s_do { 0% {stroke-dashoffset: 0;animation-timing-function: cubic-bezier(0,0,0.580000,1)} 12% {stroke-dashoffset: 450;animation-timing-function: cubic-bezier(0,0,0.575000,0.950000)} 24% {stroke-dashoffset: 450} 80% {stroke-dashoffset: 450} 100% {stroke-dashoffset: 450}}@keyframes epLRxi54B2b12_s_da { 0% {stroke-dasharray: 0, 1505.030000;animation-timing-function: cubic-bezier(0,0,0.580000,1)} 12% {stroke-dasharray: 450, 1055.780000;animation-timing-function: cubic-bezier(0,0,0.575000,0.950000)} 24% {stroke-dasharray: 450, 1055.780000} 80% {stroke-dasharray: 450, 1055.780000} 100% {stroke-dasharray: 450, 1055.780000}} #epLRxi54B2b13 { animation-name: epLRxi54B2b13_c_o, epLRxi54B2b13_s_do, epLRxi54B2b13_s_da; animation-duration: 2500ms; animation-fill-mode: forwards; animation-timing-function: linear; animation-direction: normal; animation-iteration-count: infinite; }@keyframes epLRxi54B2b13_c_o { 0% {opacity: 0} 12% {opacity: 0} 16% {opacity: 1} 80% {opacity: 1} 100% {opacity: 0}}@keyframes epLRxi54B2b13_s_do { 0% {stroke-dashoffset: 0;animation-timing-function: step-end} 12% {stroke-dashoffset: 450;animation-timing-function: cubic-bezier(0,0,0.575000,0.950000)} 24% {stroke-dashoffset: 450} 33.200000% {stroke-dashoffset: 450;animation-timing-function: cubic-bezier(0.295000,0.710000,0.575000,0.950000)} 80% {stroke-dashoffset: 1505.030000} 100% {stroke-dashoffset: 1505.030000}}@keyframes epLRxi54B2b13_s_da { 0% {stroke-dasharray: 0, 1505.030000;animation-timing-function: step-end} 12% {stroke-dasharray: 0, 1505.030000;animation-timing-function: cubic-bezier(0,0,0.575000,0.950000)} 24% {stroke-dasharray: 450, 1055.780000} 33.200000% {stroke-dasharray: 450, 1055.780000;animation-timing-function: cubic-bezier(0.295000,0.710000,0.575000,0.950000)} 80% {stroke-dasharray: 1505.030000, 0} 100% {stroke-dasharray: 1505.030000, 0}} #epLRxi54B2b14 { animation-name: epLRxi54B2b14_c_o, epLRxi54B2b14_s_do, epLRxi54B2b14_s_da; animation-duration: 2500ms; animation-fill-mode: forwards; animation-timing-function: linear; animation-direction: normal; animation-iteration-count: infinite; }@keyframes epLRxi54B2b14_c_o { 0% {opacity: 0.500000} 12% {opacity: 0.500000} 80% {opacity: 0} 100% {opacity: 0}}@keyframes epLRxi54B2b14_s_do { 0% {stroke-dashoffset: 0;animation-timing-function: cubic-bezier(0,0,0.580000,1)} 12% {stroke-dashoffset: 530;animation-timing-function: cubic-bezier(0,0,0.575000,0.950000)} 24% {stroke-dashoffset: 530} 80% {stroke-dashoffset: 530} 100% {stroke-dashoffset: 530}}@keyframes epLRxi54B2b14_s_da { 0% {stroke-dasharray: 0, 1775.250000;animation-timing-function: cubic-bezier(0,0,0.580000,1)} 12% {stroke-dasharray: 530, 1245.250000;animation-timing-function: cubic-bezier(0,0,0.575000,0.950000)} 24% {stroke-dasharray: 530, 1245.250000} 80% {stroke-dasharray: 530, 1245.250000} 100% {stroke-dasharray: 530, 1245.250000}} #epLRxi54B2b15 { animation-name: epLRxi54B2b15_c_o, epLRxi54B2b15_s_do, epLRxi54B2b15_s_da; animation-duration: 2500ms; animation-fill-mode: forwards; animation-timing-function: linear; animation-direction: normal; animation-iteration-count: infinite; }@keyframes epLRxi54B2b15_c_o { 0% {opacity: 0} 12% {opacity: 0} 16% {opacity: 1} 80% {opacity: 1} 100% {opacity: 0}}@keyframes epLRxi54B2b15_s_do { 0% {stroke-dashoffset: 0;animation-timing-function: step-end} 12% {stroke-dashoffset: 530;animation-timing-function: cubic-bezier(0,0,0.575000,0.950000)} 24% {stroke-dashoffset: 530} 33.200000% {stroke-dashoffset: 530;animation-timing-function: cubic-bezier(0.295000,0.710000,0.575000,0.950000)} 80% {stroke-dashoffset: 1775.250000} 100% {stroke-dashoffset: 1775.250000}}@keyframes epLRxi54B2b15_s_da { 0% {stroke-dasharray: 0, 1775.250000;animation-timing-function: step-end} 12% {stroke-dasharray: 0, 1775.250000;animation-timing-function: cubic-bezier(0,0,0.575000,0.950000)} 24% {stroke-dasharray: 530, 1245.250000} 33.200000% {stroke-dasharray: 530, 1245.250000;animation-timing-function: cubic-bezier(0.295000,0.710000,0.575000,0.950000)} 80% {stroke-dasharray: 1775.250000, 0} 100% {stroke-dasharray: 1775.250000, 0}} #epLRxi54B2b16_tr {animation: epLRxi54B2b16_tr__tr 2500ms linear infinite normal forwards}@keyframes epLRxi54B2b16_tr__tr { 0% {transform: translate(400px,400px) rotate(0deg);animation-timing-function: cubic-bezier(0,0,0.580000,1)} 12% {transform: translate(400px,400px) rotate(-111.526024deg);animation-timing-function: cubic-bezier(0,0,0.580000,1)} 24% {transform: translate(400px,400px) rotate(0deg);animation-timing-function: cubic-bezier(0.250000,0.460000,0.450000,0.940000)} 80% {transform: translate(400px,400px) rotate(-360deg)} 100% {transform: translate(400px,400px) rotate(-360deg)}}]]></style><g id="epLRxi54B2b2" transform="matrix(1 0 0 1 7.81073799000018 0)"><g id="epLRxi54B2b3"><path id="epLRxi54B2b4" d="M-65.500000,0C-65.500000,-36.174651,-36.174651,-65.500000,0,-65.500000C36.174651,-65.500000,65.500000,-36.174651,65.500000,0C65.500000,36.174651,36.174651,65.500000,0,65.500000C-36.174651,65.500000,-65.500000,36.174651,-65.500000,0Z" transform="matrix(0.63324482142338 0.69061170151006 -0.69061170151006 0.63324482142338 400 400)" opacity="0.5" fill="none" stroke="rgb(101,28,206)" stroke-width="49" stroke-linecap="round" stroke-miterlimit="10" stroke-dasharray="0,411.610000"/><path id="epLRxi54B2b5" d="M-65.500000,0C-65.500000,-36.174651,-36.174651,-65.500000,0,-65.500000C36.174651,-65.500000,65.500000,-36.174651,65.500000,0C65.500000,36.174651,36.174651,65.500000,0,65.500000C-36.174651,65.500000,-65.500000,36.174651,-65.500000,0Z" transform="matrix(0.63324482142338 0.69061170151006 -0.69061170151006 0.63324482142338 400 400)" opacity="0" fill="none" stroke="rgb(101,28,206)" stroke-width="49" stroke-linecap="round" stroke-miterlimit="10" stroke-dasharray="0,411.610000"/><path id="epLRxi54B2b6" d="M-110,0C-110,-60.751322,-60.751322,-110,0,-110C60.751322,-110,110,-60.751322,110,0C110,60.751322,60.751322,110,0,110C-60.751322,110,-110,60.751322,-110,0Z" transform="matrix(0.64734308167594 0.70598715058119 -0.70598715058119 0.64734308167594 400 400)" opacity="0.5" fill="none" stroke="rgb(0,139,255)" stroke-width="46" stroke-linecap="round" stroke-miterlimit="10" stroke-dasharray="0,691.250000"/><path id="epLRxi54B2b7" d="M-110,0C-110,-60.751322,-60.751322,-110,0,-110C60.751322,-110,110,-60.751322,110,0C110,60.751322,60.751322,110,0,110C-60.751322,110,-110,60.751322,-110,0Z" transform="matrix(0.64734308167594 0.70598715058119 -0.70598715058119 0.64734308167594 400 400)" opacity="0" fill="none" stroke="rgb(0,139,255)" stroke-width="48" stroke-linecap="round" stroke-miterlimit="10" stroke-dasharray="0,691.250000"/><path id="epLRxi54B2b8" d="M-150.500000,0C-150.500000,-83.118855,-83.118855,-150.500000,0,-150.500000C83.118855,-150.500000,150.500000,-83.118855,150.500000,0C150.500000,83.118855,83.118855,150.500000,0,150.500000C-83.118855,150.500000,-150.500000,83.118855,-150.500000,0Z" transform="matrix(0.67583138557196 0.73705626533928 -0.73705626533928 0.67583138557196 400 400)" opacity="0.5" fill="none" stroke="rgb(11,179,48)" stroke-width="47" stroke-linecap="round" stroke-miterlimit="10" stroke-dasharray="0,945.750000"/><path id="epLRxi54B2b9" d="M-150.500000,0C-150.500000,-83.118855,-83.118855,-150.500000,0,-150.500000C83.118855,-150.500000,150.500000,-83.118855,150.500000,0C150.500000,83.118855,83.118855,150.500000,0,150.500000C-83.118855,150.500000,-150.500000,83.118855,-150.500000,0Z" transform="matrix(0.67583138557196 0.73705626533928 -0.73705626533928 0.67583138557196 400 400)" opacity="0" fill="none" stroke="rgb(11,179,48)" stroke-width="47" stroke-linecap="round" stroke-miterlimit="10" stroke-dasharray="0,945.750000"/><path id="epLRxi54B2b10" d="M-195,0C-195,-107.695526,-107.695526,-195,0,-195C107.695526,-195,195,-107.695526,195,0C195,107.695526,107.695526,195,0,195C-107.695526,195,-195,107.695526,-195,0Z" transform="matrix(0.67583138557196 0.73705626533928 -0.73705626533928 0.67583138557196 400 400)" opacity="0.5" fill="none" stroke="rgb(255,239,11)" stroke-width="45" stroke-linecap="round" stroke-miterlimit="10" stroke-dasharray="0,1225.390000"/><path id="epLRxi54B2b11" d="M-195,0C-195,-107.695526,-107.695526,-195,0,-195C107.695526,-195,195,-107.695526,195,0C195,107.695526,107.695526,195,0,195C-107.695526,195,-195,107.695526,-195,0Z" transform="matrix(0.67583138557196 0.73705626533928 -0.73705626533928 0.67583138557196 400 400)" opacity="0" fill="none" stroke="rgb(255,239,11)" stroke-width="45" stroke-linecap="round" stroke-miterlimit="10" stroke-dasharray="0,1225.390000"/><path id="epLRxi54B2b12" d="M-239.500000,0C-239.500000,-132.272198,-132.272198,-239.500000,0,-239.500000C132.272198,-239.500000,239.500000,-132.272198,239.500000,0C239.500000,132.272198,132.272198,239.500000,0,239.500000C-132.272198,239.500000,-239.500000,132.272198,-239.500000,0Z" transform="matrix(0.67583138557196 0.73705626533928 -0.73705626533928 0.67583138557196 400 400)" opacity="0.5" fill="none" stroke="rgb(245,117,21)" stroke-width="45" stroke-linecap="round" stroke-miterlimit="10" stroke-dasharray="0,1505.030000"/><path id="epLRxi54B2b13" d="M-239.500000,0C-239.500000,-132.272198,-132.272198,-239.500000,0,-239.500000C132.272198,-239.500000,239.500000,-132.272198,239.500000,0C239.500000,132.272198,132.272198,239.500000,0,239.500000C-132.272198,239.500000,-239.500000,132.272198,-239.500000,0Z" transform="matrix(0.67583138557196 0.73705626533928 -0.73705626533928 0.67583138557196 400 400)" opacity="0" fill="none" stroke="rgb(245,117,21)" stroke-width="45" stroke-linecap="round" stroke-miterlimit="10" stroke-dasharray="0,1505.030000"/><path id="epLRxi54B2b14" d="M-282.500000,0C-282.500000,-156.020442,-156.020442,-282.500000,0,-282.500000C156.020442,-282.500000,282.500000,-156.020442,282.500000,0C282.500000,156.020442,156.020442,282.500000,0,282.500000C-156.020442,282.500000,-282.500000,156.020442,-282.500000,0Z" transform="matrix(0.67583138557196 0.73705626533928 -0.73705626533928 0.67583138557196 400 400)" opacity="0.5" fill="none" stroke="rgb(240,20,22)" stroke-width="43" stroke-linecap="round" stroke-miterlimit="10" stroke-dasharray="0,1775.250000"/><path id="epLRxi54B2b15" d="M-282.500000,0C-282.500000,-156.020442,-156.020442,-282.500000,0,-282.500000C156.020442,-282.500000,282.500000,-156.020442,282.500000,0C282.500000,156.020442,156.020442,282.500000,0,282.500000C-156.020442,282.500000,-282.500000,156.020442,-282.500000,0Z" transform="matrix(0.67583138557196 0.73705626533928 -0.73705626533928 0.67583138557196 400 400)" opacity="0" fill="none" stroke="rgb(240,20,22)" stroke-width="43" stroke-linecap="round" stroke-miterlimit="10" stroke-dasharray="0,1775.250000"/></g><g id="epLRxi54B2b16_tr" transform="translate(400,400) rotate(0)"><g id="epLRxi54B2b16" transform="translate(-400,-400)"><path id="epLRxi54B2b17" d="M199,205.800000C199,205.800000,169.300000,181.700000,162.500000,182C151,182.600000,121.900000,215.500000,127.200000,224.900000C148.500000,262.500000,202.400000,345.300000,198.600000,351.700000C191.100000,364.500000,47,509.700000,47,509.700000" fill="none" stroke="rgb(0,0,0)" stroke-width="12" stroke-miterlimit="10"/><path id="epLRxi54B2b18" d="M394.900000,366.700000L362.400000,400C353.900000,408.700000,346.100000,404.800000,338.800000,397.700000L165.300000,228.500000C158,221.400000,153.900000,213.700000,162.400000,204.900000L194.900000,171.600000C203.400000,162.900000,211.200000,166.800000,218.500000,173.900000L392,343.200000C399.300000,350.300000,403.500000,358,394.900000,366.700000Z" fill="rgb(240,20,22)" stroke="rgb(0,0,0)" stroke-width="5" stroke-miterlimit="10"/><path id="epLRxi54B2b19" d="M389.800000,372L367.600000,394.800000C359.100000,403.500000,346.100000,404.900000,338.800000,397.800000L185.200000,247.900000C185.300000,247.800000,185.400000,247.700000,185.400000,247.600000L238.400000,193.300000L392,343.200000C399.300000,350.300000,398.300000,363.300000,389.800000,372Z" fill="rgb(245,117,21)" stroke="rgb(0,0,0)" stroke-width="5" stroke-miterlimit="10"/><path id="epLRxi54B2b20" d="M389.800000,372L367.600000,394.800000C359.100000,403.500000,346.100000,404.900000,338.800000,397.800000L218.600000,280.500000C218.600000,280.500000,271.600000,226.200000,271.800000,226L392,343.200000C399.300000,350.300000,398.300000,363.300000,389.800000,372Z" fill="rgb(255,239,11)" stroke="rgb(0,0,0)" stroke-width="5" stroke-miterlimit="10"/><path id="epLRxi54B2b21" d="M389.800000,372L367.600000,394.800000C359.100000,403.500000,346.100000,404.900000,338.800000,397.800000L251.700000,312.900000L304.300000,259C304.500000,258.800000,304.700000,258.600000,304.900000,258.400000L391.900000,343.300000C399.300000,350.300000,398.300000,363.300000,389.800000,372Z" fill="rgb(11,179,48)" stroke="rgb(0,0,0)" stroke-width="5" stroke-miterlimit="10"/><path id="epLRxi54B2b22" d="M389.800000,372L367.600000,394.800000C359.100000,403.500000,346.100000,404.900000,338.800000,397.800000L284.900000,345.200000L337.500000,291.300000C337.700000,291.100000,337.900000,290.900000,338.100000,290.700000L392,343.300000C399.300000,350.300000,398.300000,363.300000,389.800000,372Z" fill="rgb(0,139,255)" stroke="rgb(0,0,0)" stroke-width="5" stroke-miterlimit="10"/><path id="epLRxi54B2b23" d="M394.900000,366.700000L362.400000,400C353.900000,408.700000,346.100000,404.800000,338.800000,397.700000L318.300000,377.700000L370.400000,324.300000C370.800000,323.900000,371.200000,323.500000,371.600000,323.200000L392,343.100000C399.300000,350.300000,403.500000,358,394.900000,366.700000Z" fill="rgb(101,28,206)" stroke="rgb(0,0,0)" stroke-width="5" stroke-miterlimit="10"/><line id="epLRxi54B2b24" x1="209.200000" y1="182.400000" x2="383.500000" y2="352.400000" fill="none" stroke="rgb(255,255,255)" stroke-width="7" stroke-linecap="round" stroke-linejoin="round" stroke-miterlimit="10"/><path id="epLRxi54B2b25" d="M185.200000,247.900000C185.300000,247.800000,185.400000,247.700000,185.400000,247.600000L238.400000,193.300000" fill="none" stroke="rgb(0,0,0)" stroke-width="5" stroke-miterlimit="10"/><path id="epLRxi54B2b26" d="M218.600000,280.500000C218.600000,280.500000,271.600000,226.200000,271.800000,226" fill="none" stroke="rgb(0,0,0)" stroke-width="5" stroke-miterlimit="10"/><path id="epLRxi54B2b27" d="M318.400000,377.800000C318.400000,377.800000,371.400000,323.500000,371.600000,323.300000" fill="none" stroke="rgb(0,0,0)" stroke-width="5" stroke-miterlimit="10"/><path id="epLRxi54B2b28" d="M284.900000,345.200000C284.900000,345.200000,337.900000,290.900000,338.100000,290.700000" fill="none" stroke="rgb(0,0,0)" stroke-width="5" stroke-miterlimit="10"/><path id="epLRxi54B2b29" d="M252,312.800000C252.400000,312.400000,305.200000,258.300000,305.200000,258.300000" fill="none" stroke="rgb(0,0,0)" stroke-width="5" stroke-miterlimit="10"/><path id="epLRxi54B2b30" d="M394.900000,366.700000L362.400000,400C353.900000,408.700000,346.100000,404.800000,338.800000,397.700000L318.300000,377.700000L370.400000,324.300000C370.800000,323.900000,371.200000,323.500000,371.600000,323.200000L392,343.100000C399.300000,350.300000,403.500000,358,394.900000,366.700000Z" fill="none" stroke="rgb(0,0,0)" stroke-width="5" stroke-miterlimit="10"/><path id="epLRxi54B2b31" d="M45.300000,522.500000C43.200000,521.300000,41.200000,519.900000,39.400000,518.100000L39,517.700000C27.500000,506.500000,28,487.800000,40,477.200000L160.700000,368.300000C162.800000,366.500000,166,366.500000,167.900000,368.500000L186,386.100000C188,388.100000,188.200000,391.200000,186.300000,393.400000L79.800000,516.200000C71,526.500000,56.500000,528.700000,45.300000,522.500000Z" fill="rgb(222,184,153)" stroke="rgb(0,0,0)" stroke-width="5" stroke-miterlimit="10"/><path id="epLRxi54B2b32" d="M182.100000,382.300000L186.100000,386.200000C188.100000,388.200000,188.300000,391.300000,186.400000,393.500000L79.800000,516.200000C71.100000,526.500000,56.600000,528.700000,45.400000,522.500000" fill="rgb(204,153,153)" stroke="rgb(0,0,0)" stroke-width="5" stroke-miterlimit="10"/><line id="epLRxi54B2b33" x1="164.300000" y1="396.800000" x2="63.300000" y2="500.400000" fill="none" stroke="rgb(255,255,255)" stroke-width="5" stroke-linecap="round" stroke-linejoin="round" stroke-miterlimit="10"/></g></g></g></svg>